<svg width="20" height="16" fill="none" xmlns="http://www.w3.org/2000/svg"><path fill-rule="evenodd" clip-rule="evenodd" d="M20 4.777h-4.246a.865.865 0 01.864-.814V2.064C12.694 1.927 10.858.647 10.014 0 9.17.647 7.328 1.927 3.406 2.064v1.9a.865.865 0 01.864.813H0v5.25h3.968c0 .167-.088.664-1.155.783.73.671 4.99 4.284 7.201 4.284 2.212 0 6.482-3.613 7.212-4.284-.997-.109-1.155-.546-1.155-.783H20v-5.25zM3.84 3.64V2.455C7.39 2.27 9.142 1.205 10.014.55c.936.664 2.62 1.72 6.17 1.904l-.002 1.184c-.483.174-.832.599-.848 1.138h-.426c.014-.61.347-1.111.84-1.403v-.536c-2.865-.202-4.737-1.09-5.734-1.776-.87.639-2.62 1.495-5.74 1.776l.002.536c.492.292.826.793.84 1.403H4.69c-.017-.54-.368-.964-.85-1.138zm10.681.655v.483h-.464v-.379c0-.118-.143-.173-.207-.173h-.444v.552h-.464V2.74l1.115.232c.158.034.464.138.464.444v.33c0 .119-.014.223-.162.297.069.04.162.172.162.251zM12.547 3.08v1.244c.005.153-.084.453-.489.453h-.607c-.202 0-.464-.107-.464-.473V2.488c0-.217.222-.355.47-.267l.809.311c.197.08.286.252.28.548zM9.17 2.513v-.514l.843-.459.884.484v.513l-.612-.33v2.57h-.503v-2.6l-.612.336zm-.06-.025v1.816c0 .366-.261.473-.463.473H8.04c-.405 0-.494-.3-.49-.453V3.08c-.004-.296.085-.469.282-.548l.81-.31c.247-.09.469.049.469.266zm-2.66 2.29l-.38-.814v.813h-.464V3.065l.464-.083.365.78.405-.943.434-.114v2.072H6.81v-.843l-.36.843zm9.788 6.21c-1.165 1.184-4.685 3.652-6.225 3.652S4.965 12.172 3.8 10.987c.602-.266.7-.654.74-.96h.484c-.03.286-.09.743-.484 1.02.454.434 3.854 3.159 5.473 3.159 1.62 0 5.03-2.725 5.485-3.16-.395-.276-.455-.733-.484-1.02h.484c.04.307.138.695.74.961zm-10.21.275c.026.017 1.068.83 1.068.83v.495s-1.466-1.096-1.51-1.122a.482.482 0 01-.141-.247c-.018-.089 0-.795 0-.875 0-.079.088-.317.212-.317h1.139v.468h-.68c-.106-.01-.168.026-.168.123v.521c0 .036.044.106.08.124zm1.041-1.236h.477l.256.795.415-.795h.45l-.644 1.395v1.67c0 .079-.45-.169-.459-.23-.018-.062 0-1.458 0-1.458l-.495-1.377zm2.227 3.027c.026.053.609.327.609.327v.548s-.936-.398-1.024-.486a.346.346 0 01-.107-.247v-2.773c0-.168.336-.396.416-.396h.688v.502c0 .017-.397.017-.494 0-.053-.01-.124.062-.124.309v2.049c0 .044 0 .123.036.167zm1.986-.132v.477s-.777.344-.9.406c-.071.035-.15-.027-.15-.133v-3.645h.53v3.107l.52-.212zm1.14-1.677v.406h-.495v.98l.6-.282v.433l-.795.397c-.097.044-.22 0-.22-.088v-2.888c0-.115.097-.176.176-.176h.927v.503h-.688v.715h.494zm1.526.034s-.777.018-.918 0c-.133-.018-.186-.044-.186-.141 0-.088-.009-.671 0-.84.018-.167.283-.254.407-.271a45 45 0 011.165 0v.457h-1.121c-.044 0-.036.38 0 .38h1.006c.142 0 .124.035.124.097v.565c0 .062-.088.133-.124.168-.026.027-1.501.919-1.501.919v-.398s1.175-.742 1.183-.795c.018-.08-.035-.14-.035-.14zm5.627-1.693H.444V5.282h19.132v4.304zM8.124 2.927L8.5 2.78c.069-.03.148 0 .148.109V4.15c0 .084-.04.153-.144.153h-.34c-.109 0-.148-.054-.148-.143V3.154c0-.108.01-.177.108-.227zm3.959.227v1.007c0 .089-.04.143-.148.143h-.34c-.104 0-.144-.069-.144-.153V2.888c0-.109.079-.138.148-.109l.375.148c.1.05.109.119.109.227zm1.876.247c.098.02.098.114.098.198 0 .083-.015.162-.104.162h-.547v-.473l.553.113zM.889 5.677V9.14H19.14V5.676H.89zm1.702 3.06H2.19V7.578h-.317v1.159H1.47v-2.7h.402v1.08h.317v-1.08h.402v2.7zm.936 0l-.071-.702h-.294l-.083.702h-.363l.307-2.7h.602l.307 2.7h-.405zm1.682-1.854c0 .2-.036.358-.18.472.02.024.175.128.18.31v1.072h-.401v-.903c0-.163-.07-.215-.326-.215v1.118H4.08v-2.7h.664c.323 0 .465.114.465.463v.383zm1.043 1.854h-.81v-2.7h.402V8.31h.408v.427zm.972 0h-.838v-2.7h.831v.422h-.429v.66h.41v.426h-.41v.765h.436v.427zm.932 0h-.401V7.728l-.414-1.69h.414l.216.943.223-.943h.376l-.414 1.671v1.028zm1.025-1.19h-.736v-.34h.736v.34zm1.266.7c0 .258-.167.49-.478.49h-.572v-2.7h.485c.398 0 .565.137.565.611v1.6zm.918.49l-.07-.702H11l-.082.702h-.364l.307-2.7h.602l.308 2.7h-.406zm1.106 0h-.45l-.377-2.7h.41l.195 1.624.194-1.623h.405l-.377 2.699zm.893 0h-.402v-2.7h.402v2.7zm1.288-.49c0 .258-.166.49-.477.49h-.573v-2.7h.486c.398 0 .564.137.564.611v1.6zm1.308-1.293h-.402v-.377c0-.136-.08-.166-.16-.166-.084 0-.16.03-.16.166v.3c0 .193.717.535.717.808v.65c0 .353-.311.455-.561.455-.247 0-.553-.102-.553-.455v-.587h.402v.479c0 .136.071.167.154.167.08 0 .156-.03.156-.167v-.284c0-.38-.717-.485-.717-.924v-.58c0-.352.311-.454.558-.454.25 0 .566.102.566.455v.514zm1.305 1.38c0 .353-.324.456-.57.456-.247 0-.563-.103-.563-.455V6.44c0-.353.316-.455.563-.455.246 0 .57.102.57.455v1.895zm1.38.403h-.492l-.32-1.537v1.537h-.404v-2.7h.544l.263 1.373V6.038h.408v2.699zM3.21 7.579l.093-1.049h.027l.078 1.049H3.21zm1.272-1.17h.159c.091 0 .152.065.152.168v.405c0 .098-.03.218-.171.218h-.14v-.79zm5.317.055h.095c.102 0 .151.026.151.2V8.11c0 .174-.05.2-.151.2h-.095V6.465zm1.249 1.115l.093-1.049h.027l.078 1.049h-.198zm2.956-1.115h.095c.102 0 .152.026.152.2V8.11c0 .174-.05.2-.152.2h-.095V6.465zm2.53 1.708V6.587c0-.136.08-.167.164-.167s.165.03.165.167v1.585c0 .137-.081.167-.165.167-.083 0-.164-.03-.164-.167z" fill="#2C2C2C"/></svg>