<svg width="16" height="16" fill="none" xmlns="http://www.w3.org/2000/svg"><path d="M13.723 0H2.277C.985 0 0 .985 0 2.277v11.446C0 15.015.985 16 2.277 16h11.446C15.015 16 16 15.015 16 13.723V2.277C16 .985 15.015 0 13.723 0zM8 12.8c2.646 0 4.8-2.092 4.8-4.615 0-.431-.062-.923-.185-1.293h1.354v6.523a.617.617 0 01-.615.616H2.646a.617.617 0 01-.615-.616V6.831h1.415a4.68 4.68 0 00-.184 1.292C3.2 10.708 5.354 12.8 8 12.8zm0-1.846c-1.723 0-3.077-1.354-3.077-3.016 0-1.661 1.354-3.015 3.077-3.015 1.723 0 3.077 1.354 3.077 3.015 0 1.724-1.354 3.016-3.077 3.016zm5.908-6.585c0 .37-.308.677-.677.677h-1.723a.683.683 0 01-.677-.677V2.708c0-.37.308-.677.677-.677h1.723c.369 0 .677.307.677.677v1.661z" fill="#fff"/></svg>