<svg width="24" height="24" fill="none" xmlns="http://www.w3.org/2000/svg"><g clip-path="url(#clip0)" fill="#fff"><path d="M3.988 21.325a.472.472 0 00-.663 0 .472.472 0 00.331.8.472.472 0 00.47-.469.472.472 0 00-.138-.331zm18.021-12.75a.471.471 0 00-.663 0 .472.472 0 000 .663.472.472 0 00.663 0 .47.47 0 000-.663z"/><path d="M23.863.137A.47.47 0 0023.53 0H12a.469.469 0 00-.47.47v1.34L7.088 3a.469.469 0 00-.331.575l2.303 8.594-1.993 1.992a1.406 1.406 0 00-1.16-.614h-4.5C.63 13.547 0 14.178 0 14.953v7.64C0 23.37.631 24 1.407 24h4.5c.658 0 1.212-.455 1.364-1.068l.558.486c.43.375.981.582 1.552.582h14.15c.259 0 .469-.21.469-.469V.47a.47.47 0 00-.137-.332zM6.375 22.594a.47.47 0 01-.468.468h-4.5a.47.47 0 01-.47-.468v-7.64a.47.47 0 01.47-.47h1.78v5.4a.469.469 0 00.938 0v-5.4h1.782a.47.47 0 01.468.47v7.64zm1.409-18.81L11.53 2.78v1.737l-.314.085a.469.469 0 00-.331.574c.18.672-.22 1.365-.893 1.545a.469.469 0 00-.33.575l1.826 6.766h-.94l-.485-1.896A.468.468 0 009.985 12L7.784 3.785zm3.747 2.883v3.955l-.855-3.165c.357-.185.65-.46.855-.79zm6.735 16.396H9.38c-.344 0-.677-.125-.936-.351l-1.132-.988v-6.483l2.046-2.046.371 1.452a.47.47 0 00.454.353H19.4a.657.657 0 010 1.313h-4.722a.469.469 0 000 .937h6.19a.657.657 0 010 1.313h-6.19a.469.469 0 000 .937h5.186a.657.657 0 010 1.313h-5.186a.469.469 0 000 .937h3.588a.657.657 0 010 1.313zm4.796 0h-3.345a1.584 1.584 0 000-1.313h.148a1.595 1.595 0 001.424-2.307 1.596 1.596 0 001.172-1.537c0-.355-.117-.684-.314-.95v-5.94a.469.469 0 00-.938 0v5.334a1.59 1.59 0 00-.342-.037h-.015a1.596 1.596 0 00-1.452-2.25h-.753A2.246 2.246 0 0020.009 12a2.246 2.246 0 00-2.244-2.243A2.246 2.246 0 0015.522 12c0 .924.562 1.72 1.362 2.063h-2.562V5.15a2.207 2.207 0 001.68-1.68h3.527a2.207 2.207 0 001.68 1.68v1.457a.469.469 0 00.938 0V4.731a.469.469 0 00-.47-.468A1.263 1.263 0 0120.417 3a.469.469 0 00-.469-.468h-4.363a.469.469 0 00-.469.468c0 .696-.566 1.263-1.262 1.263a.469.469 0 00-.469.468v9.332h-.915V.938h10.593v22.125zm-5.296-9.757c-.72 0-1.306-.586-1.306-1.306 0-.72.586-1.306 1.306-1.306a1.307 1.307 0 010 2.612z"/></g><defs><clipPath id="clip0"><path fill="#fff" d="M0 0h24v24H0z"/></clipPath></defs></svg>