<svg width="20" height="21" fill="none" xmlns="http://www.w3.org/2000/svg"><g clip-path="url(#clip0)"><path d="M17.07.177h-3.554a2.933 2.933 0 00-2.93 2.93V6.66a4.106 4.106 0 01-4.102 4.102H2.93A2.933 2.933 0 000 13.693v3.554a2.933 2.933 0 002.93 2.93h3.554a2.933 2.933 0 002.93-2.93v-3.555a4.106 4.106 0 014.102-4.101h3.554A2.933 2.933 0 0020 6.66V3.106a2.933 2.933 0 00-2.93-2.93zM8.242 13.692v3.555a1.76 1.76 0 01-1.758 1.758H2.93a1.76 1.76 0 01-1.758-1.758v-3.555c0-.969.788-1.757 1.758-1.757h3.554a5.25 5.25 0 002.274-.516 5.242 5.242 0 00-.516 2.273zm10.586-7.03a1.76 1.76 0 01-1.758 1.757h-3.554c-.814 0-1.585.185-2.274.516.33-.69.516-1.46.516-2.274V3.106c0-.969.788-1.757 1.758-1.757h3.554c.97 0 1.758.788 1.758 1.757v3.555z" fill="#fff"/></g><defs><clipPath id="clip0"><path fill="#fff" transform="translate(0 .177)" d="M0 0h20v20H0z"/></clipPath></defs></svg>