<svg width="100" height="100" fill="none" xmlns="http://www.w3.org/2000/svg"><g clip-path="url(#clip0)" fill="#B72032"><path d="M85.417 56.9c-8.041 0-14.583 6.542-14.583 14.584 0 8.041 6.542 14.583 14.583 14.583 8.042 0 14.584-6.542 14.584-14.583 0-8.042-6.542-14.584-14.584-14.584zm0 20.834a6.258 6.258 0 01-6.25-6.25 6.258 6.258 0 016.25-6.25 6.258 6.258 0 016.25 6.25 6.258 6.258 0 01-6.25 6.25zM36.615 66.621a2.075 2.075 0 00-1.962-1.387H22.915a6.258 6.258 0 016.25 6.25 6.258 6.258 0 01-6.25 6.25 6.258 6.258 0 01-6.25-6.25 6.258 6.258 0 016.25-6.25H11.182c-.883 0-1.67.554-1.962 1.387-.6 1.683-.888 3.27-.888 4.863 0 8.041 6.542 14.583 14.583 14.583 8.042 0 14.584-6.542 14.584-14.583 0-1.592-.288-3.18-.884-4.863zm7.134-30.554H14.582a6.258 6.258 0 00-6.25 6.25 6.258 6.258 0 006.25 6.25h29.167a6.258 6.258 0 006.25-6.25 6.258 6.258 0 00-6.25-6.25zm21.639 4.325a2.09 2.09 0 00-2.725 1.12l-10.416 25a2.084 2.084 0 003.845 1.605l10.417-25a2.084 2.084 0 00-1.12-2.725z"/><path d="M42.763 53.476a2.082 2.082 0 00-1.596-.742H14.583c-2.42 0-4.72-.858-6.654-2.483a2.088 2.088 0 00-2.858.166c-.396.417-.767.846-1.113 1.267C1.404 54.826 0 58.897 0 63.15a6.258 6.258 0 006.25 6.25h33.333a2.08 2.08 0 002.075-1.909c.005-.066.567-6.633 1.563-12.316a2.094 2.094 0 00-.458-1.7zm27.841-34.859a3.538 3.538 0 00-2.666 4.591l.008.021a3.536 3.536 0 003.359 2.421H75l2.084-8.333-6.48 1.3z"/><path d="M78.59 15.88a2.086 2.086 0 00-1.916-.605l-6.483 1.296a5.624 5.624 0 00-4.225 7.317 5.62 5.62 0 005.337 3.846H75c.954 0 1.788-.65 2.021-1.58l2.084-8.333a2.08 2.08 0 00-.513-1.942zm-5.216 7.687h-2.07c-.63 0-1.188-.404-1.392-1.021a1.426 1.426 0 01.12-1.192 1.44 1.44 0 01.976-.7l3.254-.65-.888 3.563z"/><path d="M85.416 48.567c-4.504 0-6.304-4.687-6.42-4.987l-11.01-25.688c-1.266-2.962-4.445-4.537-7.587-3.762a6.538 6.538 0 00-4.137 3.191 6.55 6.55 0 00-.471 5.209l2.079 6.241 5.7-3.42a2.085 2.085 0 012.858.712 2.085 2.085 0 01-.712 2.858l-6.492 3.896 3.384 10.154c.079.234.196.45.346.642l3.733 4.67c1.808 2.26 1.854 5.4.117 7.647-1.18 1.52-2.13 3.096-2.83 4.679a6.228 6.228 0 00.488 5.937 6.248 6.248 0 005.246 2.85h3.208c1.15 0 2.084-.933 2.084-2.083 0-.43-.159-.804-.384-1.134l9.096-6.062c.363.541.942.929 1.646.95 4.2.129 11.583 0 13.733-2.088.588-.57.909-1.312.909-2.079 0-4.291-8.217-8.333-14.584-8.333z"/><path d="M64.284 22.492a2.081 2.081 0 00-2.858-.713l-10.417 6.25a2.086 2.086 0 001.075 3.871c.367 0 .738-.096 1.071-.3l10.417-6.25a2.087 2.087 0 00.712-2.858zM54.167 65.234H39.583a2.084 2.084 0 000 4.166h14.584a2.084 2.084 0 000-4.166z"/></g><defs><clipPath id="clip0"><path fill="#fff" d="M0 0h100v100H0z"/></clipPath></defs></svg>