<svg width="190" height="35" fill="none" xmlns="http://www.w3.org/2000/svg"><path fill-rule="evenodd" clip-rule="evenodd" d="M187.026 23.767a2.311 2.311 0 012.31 2.31 2.301 2.301 0 01-1.416 2.183 2.315 2.315 0 01-3.21-2.183 2.312 2.312 0 012.316-2.31v-.319a2.635 2.635 0 00-2.441 3.64 2.649 2.649 0 001.43 1.428 2.634 2.634 0 003.44-1.43 2.647 2.647 0 00-.002-2.014 2.629 2.629 0 00-2.427-1.624v.319z" fill="#2C2C2C" fill-opacity=".8"/><path fill-rule="evenodd" clip-rule="evenodd" d="M186.404 24.868h.843c.365 0 .765.055.765.51 0 .602-.641.532-1.056.532h-.553v.282h.664l.84 1.36h.427l-.887-1.36c.522-.013.929-.227.929-.807 0-.247-.11-.51-.332-.632-.221-.133-.468-.146-.716-.146h-1.282v2.945h.356v-2.684h.002zM17.968 35c3.36-3.047 13.75-9.297 17.344-10.468L13.75 9.062l.977-.625 7.93 5.78c.977.703 9.179 2.344 12.5-2.344L17.812 0C14.765 2.891 4.062 9.375 0 10.78l22.656 15.625-.625.822-8.437-5.78c-2.656-1.602-9.61-3.282-13.438 1.835L17.968 35zm163.983-6.33V7.499h-7.656v21.17h7.656zM95.586 7.499h24.023v4.609l-11.251 11.015h11.251v5.547H95.586v-4.61l11.211-11.016H95.586V7.5zm51.366 0h7.616v7.11l7.697-7.11h10.274l-10.822 10.078 10.822 11.093h-10.274l-7.657-6.953v6.953h-7.656V7.499zM43.32 21.835c0 4.765 2.93 7.42 10.899 7.46h4.375c6.445 0 9.961-1.913 10-7.578 0-4.531-4.375-6.171-8.672-6.64-4.297-.468-7.032-.507-7.11-1.913.04-1.015 1.095-1.367 2.422-1.367 1.328 0 3.985 1.327 3.985 2.265h8.593c0-4.257-3.594-7.226-10.508-7.226h-3.007c-6.328 0-11.016 2.772-11.016 6.21 0 3.36 0 7.344 9.219 7.578 5 .43 6.719.274 6.719 1.954 0 .938-.938 1.446-2.266 1.406-1.288-.037-3.516-.663-3.516-2.147H43.32v-.002zm39.726 7.462c9.258 0 10.976-4.064 10.937-7.579V7.498h-7.656v13.126c0 .664.39 2.892-4.14 2.892-4.767 0-4.532-2.266-4.532-2.93V7.5H70v14.218c0 3.322.781 7.579 10.506 7.579h2.541zm51.171 0c9.259 0 10.977-4.064 10.939-7.579V7.498h-7.657v13.126c0 .664.391 2.892-4.14 2.892-4.767 0-4.531-2.266-4.531-2.93V7.5h-7.657v14.218c0 3.322.782 7.579 10.508 7.579h2.538z" fill="#2C2C2C" fill-opacity=".8"/></svg>