<svg width="30" height="30" fill="none" xmlns="http://www.w3.org/2000/svg"><g clip-path="url(#clip0)"><path d="M4.935 13.52a4.935 4.935 0 000 9.87c1.99 0 3.701-1.18 4.482-2.878l1.172.904s8.616.062 9.09-.206c0 0-1.07-2.92.287-4.154.143-.13.323-.278.52-.435a4.934 4.934 0 104.58-3.101c-.045 0-.088.006-.133.007.357-.232.584-.377.584-.377l-.37-.33s1.07-.246.823-.78c-.247-.535-2.837-3.743-2.837-3.743s.458-.987-.49-1.687l-.457.988s-1.161-.802-1.624-.648c-.463.154-1.156.231-1.373.57l-.215.201s-.061.355.293.88c0 0 3.562 1.094 3.732 1.896 0 0 .247.51-.818.632l-.215.278-.571.031-1.033-2.36s-.988.262-1.496.663l.077.4s-4.148-2.821-8.05 1.358c0 0-2.884.833-4.905-1.727 0 0-.03-.833-4.904-.679l.34.355s-.34.031-.478.247c-.139.216.077.447 1.187.447 0 0 2.515 2.868 4.442 2.699l2.745 1.327 1.219 2.081s.002.18.014.453l-.936.198a4.935 4.935 0 00-4.682-3.38zm20.13 1.512a3.426 3.426 0 013.423 3.423 3.426 3.426 0 01-3.423 3.422 3.426 3.426 0 01-3.422-3.422 3.426 3.426 0 013.422-3.423zm-20.13 6.846a3.427 3.427 0 01-3.423-3.422 3.426 3.426 0 013.423-3.423c1.45 0 2.69.909 3.187 2.186l-3.616.77.233 1.28 3.554-.157a3.426 3.426 0 01-3.358 2.766zm5.927-2.88c.101.342.233.615.406.732l-1.586.062c.068-.243.12-.493.15-.75l1.03-.044z" fill="#2C2C2C"/></g><defs><clipPath id="clip0"><path fill="#fff" d="M0 0h30v30H0z"/></clipPath></defs></svg>