<svg width="30" height="30" fill="none" xmlns="http://www.w3.org/2000/svg"><path d="M27.508 14.639c.547-.227.66-1.173-.066-1.362a5.136 5.136 0 00-1.677-.147c1.206-1.112 1.775-1.985.889-2.179-.77-.169-1.399-.466-1.966-.775.152-1.904.308-4.68-2.337-4.634-.924.017-.925 1.451 0 1.435 1.166-.02 1.113 1.371.992 2.452-.955-.471-1.896-.647-3.303.237-2.789 1.754-7.968 1.594-12.112-.318-4.143-1.913-4.223-.479-4.223-.479s-4.468 6.332-1.434 3.905c1.106-.885 2.747-.773 4.539-.152-2.06-.41-4.414.177-6.182 1.857-.448.425-.144 1.015.306 1.173A5.319 5.319 0 005.32 23.98a5.317 5.317 0 005.316-5.264c.393.05.81-.175.78-.683-.104-1.685-.75-3-1.707-3.926.022-.04.041-.08.062-.12 1.89 1.054 3.723 2.37 5.093 3.429a.6.6 0 00-.064.096l-.478.956c-.175.35-.096.774.257.98.32.189.807.093.981-.256l.438-.875c.732.597 1.174.99 1.174.99s.452-.282 1.161-.742c-.063.31-.1.63-.105.962-.01.703.813.87 1.216.505a5.316 5.316 0 108.065-5.393zm-22.19 7.907a3.89 3.89 0 01-3.884-3.885 3.889 3.889 0 013.885-3.884c.715 0 1.384.198 1.96.536a29.9 29.9 0 01-2.407 3.05c-.616.687.396 1.704 1.014 1.014a32.365 32.365 0 002.48-3.117c.523.662.837 1.494.837 2.4a3.89 3.89 0 01-3.884 3.886zm18.576-5.42c-.39-.45-.805-.878-1.222-1.305a3.89 3.89 0 011.131-.463c.026.59.053 1.178.09 1.767zm.788 5.898a3.889 3.889 0 01-3.885-3.885c0-.893.306-1.714.815-2.37 1 1.019 1.972 2.057 2.63 3.36.398.79 1.417.187 1.31-.553-.204-1.419-.274-2.848-.33-4.28a3.887 3.887 0 013.345 3.843 3.89 3.89 0 01-3.885 3.885z" fill="#2C2C2C"/></svg>