<svg width="30" height="30" fill="none" xmlns="http://www.w3.org/2000/svg"><path d="M4.33 15.546c1.473 0 2.776.74 3.558 1.868l1.127-.483v-.706l-3.53-1.465-.906-2.089h-.416l-2.089 2.48a.407.407 0 11-.623-.525l1.646-1.955h-.262a.407.407 0 110-.815h.613l-.534-.253a.51.51 0 01-.244-.674l.308-.662a.51.51 0 01.457-.295l5.652-.052h.005a.51.51 0 01.373.163c.01.01 1.165 1.207 3.295 1.484.14-.259.368-.623.706-.985.82-.879 1.896-1.343 3.113-1.343.247 0 .503.019.761.056l.004.001c.06.01 1.482.23 3.45.783l.09.002c.226 0 .775-.04.988-.413a.709.709 0 00.044-.094l-.941-.17a.484.484 0 01.173-.953l.759.138c-.117-.48-.38-1.134-.904-2.027a.51.51 0 01.619-.734c.056.02 1.397.536 2.613 1.807a6.897 6.897 0 011.864 3.786 1.861 1.861 0 00-.263-.387s-1.39.907-.605 2.221h.92a9.386 9.386 0 01-.105.827.51.51 0 01-.158.288l-1.137 1.045c3.74-.501 5.085 1.926 5.085 1.926.28.373.14.776-.313.562.304.592.477 1.262.477 1.972a4.334 4.334 0 01-4.33 4.33 4.334 4.334 0 01-4.296-4.853h-5.29l2.088-1.557s2.478.24 4.246-1.684c-.185-.01-.387-.015-.601-.015-1.434 0-3.43.258-4.795 1.487a.516.516 0 01-.056.043l-4.686 3.159a.508.508 0 01-.645-.063l-1.888-1.888-1.126.482a4.334 4.334 0 01-4.292 4.888A4.334 4.334 0 010 19.876a4.334 4.334 0 014.33-4.33zm4.685-1.05l-3.19-1.513.431.994 2.76 1.145v-.626zm16.656 7.671a2.295 2.295 0 002.292-2.292 2.295 2.295 0 00-2.45-2.286l.947 1.955-1.833.89-.876-1.808c-.235.36-.372.788-.372 1.25a2.295 2.295 0 002.292 2.291zm-21.342 0c1.16 0 2.12-.866 2.271-1.985l-1.734.743-.802-1.873 1.878-.804a2.284 2.284 0 00-1.613-.665 2.295 2.295 0 00-2.292 2.292 2.295 2.295 0 002.292 2.292z" fill="#B72032"/></svg>