<svg width="15" height="17" fill="none" xmlns="http://www.w3.org/2000/svg"><path d="M11.307 1.337a21.554 21.554 0 00-8.056 0C2.078 1.59.599 3.007.344 4.122a15.91 15.91 0 000 6.582c.306 1.114 1.785 2.532 2.907 2.785.05 0 .102.05.102.102v3.19c0 .152.204.253.306.1l1.53-1.569s1.223-1.266 1.427-1.468c0 0 .051-.05.102-.05 1.53.05 3.11-.102 4.64-.355 1.173-.254 2.652-1.671 2.906-2.785a15.91 15.91 0 000-6.583c-.305-1.063-1.784-2.481-2.957-2.734zm.051 9.52c-.255.506-.56.91-1.07 1.164l-.46.152c-.204-.05-.357-.101-.51-.152-1.631-.658-3.16-1.57-4.385-2.886a12.178 12.178 0 01-1.682-2.532c-.204-.456-.408-.86-.561-1.317-.153-.405.102-.81.357-1.114a2.36 2.36 0 01.917-.658c.255-.152.51-.05.714.152.408.506.816 1.013 1.122 1.57.204.354.153.76-.204 1.012-.102.051-.153.102-.255.203-.05.05-.153.101-.204.203a.49.49 0 00-.05.455c.407 1.165 1.172 2.076 2.345 2.583.204.1.357.152.612.152.357-.051.51-.456.765-.659.255-.202.56-.202.866-.05.255.152.51.354.816.557.255.202.51.354.765.557.153.1.204.354.102.607zM9.216 7.058c-.101 0-.05 0 0 0-.203 0-.254-.102-.305-.254 0-.1 0-.253-.051-.354a.962.962 0 00-.357-.557l-.306-.152c-.153-.05-.255-.05-.408-.05-.153-.051-.204-.152-.204-.304 0-.102.153-.203.255-.203.816.05 1.427.506 1.53 1.469v.202c0 .101-.052.203-.154.203zm-.51-2.228a3.812 3.812 0 00-.815-.254c-.102 0-.255-.05-.357-.05-.153 0-.255-.101-.204-.253 0-.152.102-.254.255-.203.51.05.969.152 1.428.355.917.455 1.427 1.215 1.58 2.228v.658c-.05.202-.408.253-.459 0 0-.05-.05-.152-.05-.203 0-.455-.103-.911-.307-1.316a2.735 2.735 0 00-1.07-.962zm2.754 3.038c-.153 0-.255-.152-.255-.304 0-.304-.05-.608-.102-.911-.204-1.62-1.53-2.937-3.11-3.19-.255-.051-.51-.051-.714-.102-.153 0-.357 0-.408-.202-.051-.152.102-.304.255-.304h.102c2.09.05.102 0 0 0 2.141.05 3.926 1.468 4.283 3.595.051.354.102.709.102 1.114.102.152 0 .304-.153.304z" fill="#fff"/></svg>