<svg width="16" height="12" fill="none" xmlns="http://www.w3.org/2000/svg"><path d="M16 4.438c0-.35-.058-.76-.058-1.226-.059-.467-.117-.935-.176-1.343-.116-.468-.291-.818-.642-1.11-.292-.292-.7-.467-1.11-.525C12.673.058 10.687 0 8 0 5.314 0 3.27.058 1.985.234c-.408.058-.817.233-1.11.525a2.33 2.33 0 00-.641 1.11 4.681 4.681 0 00-.176 1.343A9.48 9.48 0 000 4.438v2.686c0 .35.058.76.058 1.226.059.468.117.935.176 1.343.116.468.292.818.642 1.11.292.292.7.467 1.11.525 1.342.176 3.328.234 6.014.234 2.686 0 4.73-.058 6.015-.233.408-.059.817-.234 1.11-.526a2.33 2.33 0 00.641-1.11 4.68 4.68 0 00.176-1.343C16 7.883 16 7.474 16 7.124V4.438zm-4.905 1.81L6.482 9.11a.446.446 0 01-.292.117c-.117 0-.175 0-.292-.058a.613.613 0 01-.292-.526v-5.78c0-.234.117-.41.292-.526a.53.53 0 01.584 0l4.613 2.861c.175.117.292.292.292.467 0 .175-.117.467-.292.584z" fill="#fff"/></svg>