<svg width="20" height="20" fill="none" xmlns="http://www.w3.org/2000/svg"><g clip-path="url(#clip0)"><path d="M3.29 9.013a3.29 3.29 0 000 6.58 3.288 3.288 0 002.988-1.918l.781.603s5.744.04 6.06-.138c0 0-.713-1.946.192-2.769.095-.087.215-.185.346-.29a3.29 3.29 0 103.053-2.067c-.03 0-.058.003-.088.004l.39-.251-.247-.22s.713-.164.549-.52c-.165-.357-1.892-2.496-1.892-2.496s.306-.658-.327-1.124l-.304.658s-.775-.535-1.083-.432c-.308.103-.77.155-.915.38l-.144.135s-.04.236.195.586c0 0 2.376.73 2.489 1.264 0 0 .164.34-.545.422l-.144.185-.38.02-.69-1.573s-.658.175-.997.442l.052.267s-2.766-1.88-5.367.905c0 0-1.923.555-3.27-1.151 0 0-.02-.555-3.27-.453L.95 6.3s-.226.02-.319.164c-.092.144.052.298.792.298 0 0 1.676 1.913 2.961 1.8l1.83.884.813 1.388s.001.12.01.302l-.625.132A3.29 3.29 0 003.29 9.013zm13.42 1.009a2.284 2.284 0 012.282 2.281 2.284 2.284 0 01-2.282 2.282 2.284 2.284 0 01-2.281-2.282 2.284 2.284 0 012.281-2.281zM3.29 14.585a2.284 2.284 0 01-2.282-2.281 2.284 2.284 0 012.282-2.282c.967 0 1.794.606 2.125 1.457l-2.41.514.154.853 2.37-.105a2.284 2.284 0 01-2.239 1.844zm3.952-1.92c.067.229.155.41.27.488l-1.057.042a3.43 3.43 0 00.1-.5l.687-.03z" fill="#fff"/></g><defs><clipPath id="clip0"><path fill="#fff" d="M0 0h20v20H0z"/></clipPath></defs></svg>