<svg width="49" height="49" fill="none" xmlns="http://www.w3.org/2000/svg"><path d="M41.929 25.392a7.068 7.068 0 00-5.814 3.052l-1.84-.789v-1.154l5.766-2.392 1.48-3.413h.68l3.41 4.051a.664.664 0 00.939.08.666.666 0 00.08-.937l-2.689-3.194h.428a.665.665 0 100-1.33h-1l.87-.413a.832.832 0 00.4-1.102l-.502-1.082a.832.832 0 00-.748-.481l-9.232-.084h-.007a.832.832 0 00-.61.265c-.016.018-1.902 1.971-5.382 2.424a7.829 7.829 0 00-1.152-1.608c-1.338-1.435-3.097-2.194-5.086-2.194a8.69 8.69 0 00-1.249.093c-.098.015-2.42.377-5.635 1.278a2.777 2.777 0 01-.148.004c-.368 0-1.264-.066-1.613-.675a1.16 1.16 0 01-.072-.152l1.538-.28a.79.79 0 00-.282-1.555l-1.24.225c.19-.782.62-1.852 1.476-3.31a.832.832 0 00-1.01-1.2c-.093.035-2.282.876-4.268 2.952-1.272 1.329-2.621 3.352-3.045 6.183.113-.22.253-.433.429-.632 0 0 2.271 1.483.99 3.629H6.285c.036.436.093.885.173 1.35a.833.833 0 00.257.471l1.858 1.707c-6.11-.82-8.306 3.145-8.306 3.145-.459.61-.228 1.268.511.919A7.024 7.024 0 000 32.463c0 3.9 3.172 7.072 7.071 7.072a7.08 7.08 0 007.072-7.072c0-.29-.02-.574-.054-.854h8.64l-3.41-2.543s-4.048.391-6.935-2.751c.302-.015.631-.025.982-.025 2.341 0 5.601.421 7.832 2.429a.84.84 0 00.091.071l7.654 5.159a.83.83 0 001.053-.102l3.084-3.084 1.838.788c-.038.299-.06.603-.06.912 0 3.9 3.172 7.072 7.07 7.072A7.08 7.08 0 0049 32.463a7.08 7.08 0 00-7.071-7.071zm-7.654-1.715l5.21-2.47-.703 1.623-4.507 1.87v-1.023zM7.071 36.207a3.748 3.748 0 01-3.743-3.744A3.748 3.748 0 017.33 28.73l-1.548 3.192 2.994 1.453 1.431-2.952a3.72 3.72 0 01.608 2.04 3.748 3.748 0 01-3.744 3.744zm34.858 0a3.749 3.749 0 01-3.71-3.242l2.833 1.213 1.31-3.06-3.067-1.313a3.731 3.731 0 012.634-1.086 3.748 3.748 0 013.743 3.744 3.748 3.748 0 01-3.743 3.744z" fill="#B72032"/></svg>