<svg width="100" height="100" fill="none" xmlns="http://www.w3.org/2000/svg"><path d="M14.431 51.82c4.912 0 9.256 2.468 11.864 6.228l3.756-1.61v-2.354l-11.766-4.882-3.021-6.965h-1.388l-6.961 8.267a1.356 1.356 0 01-1.914.165 1.358 1.358 0 01-.164-1.914l5.487-6.518h-.873a1.358 1.358 0 110-2.716h2.04l-1.777-.843a1.698 1.698 0 01-.812-2.248l1.023-2.207c.276-.595.87-.977 1.525-.983l18.841-.171h.015a1.7 1.7 0 011.243.54c.035.038 3.884 4.023 10.985 4.948a15.965 15.965 0 012.352-3.282c2.731-2.93 6.32-4.477 10.378-4.477a17.723 17.723 0 012.55.19c.2.03 4.94.768 11.5 2.608.072.004.175.008.302.008.752 0 2.58-.135 3.292-1.378.051-.09.1-.193.147-.31l-3.139-.57a1.613 1.613 0 01.577-3.174l2.529.459c-.387-1.597-1.266-3.78-3.013-6.757a1.698 1.698 0 012.064-2.448c.188.07 4.656 1.789 8.71 6.025 2.594 2.712 5.348 6.84 6.213 12.619a6.221 6.221 0 00-.875-1.29s-4.636 3.025-2.02 7.405h3.07c-.074.89-.188 1.807-.352 2.755-.064.37-.249.708-.525.962l-3.791 3.483c12.467-1.672 16.95 6.42 16.95 6.42.936 1.244.465 2.586-1.043 1.873a14.335 14.335 0 011.59 6.573c0 7.958-6.474 14.432-14.431 14.432-7.958 0-14.431-6.474-14.431-14.432 0-.59.04-1.172.108-1.744H53.614l6.96-5.188s8.261.798 14.155-5.616c-.617-.03-1.29-.05-2.005-.05-4.779 0-11.431.86-15.984 4.957a1.727 1.727 0 01-.187.145l-15.62 10.528a1.693 1.693 0 01-2.149-.208l-6.293-6.293-3.752 1.607c.08.61.124 1.23.124 1.862 0 7.958-6.473 14.432-14.43 14.432C6.473 80.683 0 74.209 0 66.25s6.474-14.432 14.431-14.432zm15.62-3.5l-10.634-5.042 1.437 3.313 9.197 3.817V48.32zm55.518 25.571c4.213 0 7.64-3.427 7.64-7.64 0-4.213-3.428-7.64-7.64-7.64a7.72 7.72 0 00-.529.02l3.161 6.516-6.11 2.964-2.922-6.024a7.591 7.591 0 00-1.24 4.164c0 4.213 3.427 7.64 7.64 7.64zm-71.138 0c3.866 0 7.068-2.886 7.57-6.617l-5.78 2.476-2.674-6.242 6.258-2.681a7.614 7.614 0 00-5.374-2.216c-4.212 0-7.64 3.427-7.64 7.64 0 4.213 3.428 7.64 7.64 7.64z" fill="#B72032"/></svg>