<svg width="20" height="20" fill="none" xmlns="http://www.w3.org/2000/svg"><path d="M10 0C4.479 0 0 4.479 0 9.99a9.98 9.98 0 002.922 7.078A9.945 9.945 0 0010 20a9.939 9.939 0 007.068-2.932A9.945 9.945 0 0020 9.989a9.939 9.939 0 00-2.932-7.067A9.928 9.928 0 0010 0zm0 .344a9.57 9.57 0 016.82 2.825 9.57 9.57 0 012.825 6.82c0 5.328-4.328 9.656-9.645 9.656a9.595 9.595 0 01-6.831-2.824A9.576 9.576 0 01.344 9.989a9.57 9.57 0 012.825-6.82A9.595 9.595 0 0110 .344zm0 .397C4.887.741.741 4.887.741 9.99A9.26 9.26 0 0010 19.25c5.113 0 9.248-4.147 9.248-9.26 0-5.102-4.135-9.248-9.248-9.248zm-1.364.494h.741l.666 1.74.666-1.74h.73v2.45h-.494v-1.71l-.633 1.708h-.538L9.13 1.976v1.708h-.494V1.235zm6.939 1.87l.376.461-.956 1.257 1.46-.623.409.494-.924 1.3 1.428-.677.376.472L15.5 6.874l-.44-.547.88-1.3-1.438.59-.452-.547 1.526-1.966zm-11.279.354c.108 0 .205.043.312.118.097.086.14.118.268.344a.609.609 0 01-.01.365c.279-.172.59-.13.784.064.3.29.258.645-.032.978L4.372 6.82l-1.87-1.569 1.182-1.417c.172-.204.387-.376.612-.376zM10 4.082a5.918 5.918 0 015.908 5.907c0 3.266-2.653 5.919-5.908 5.919a5.923 5.923 0 01-5.918-5.919c0-3.254 2.653-5.907 5.918-5.907zm-5.865.032c-.075 0-.15.021-.182.075l-.72.849.44.365.71-.838c.085-.107.085-.258-.044-.376a.398.398 0 00-.204-.075zM10 4.468A5.522 5.522 0 004.468 9.99H10V4.47zm0 5.521v5.532a5.53 5.53 0 005.532-5.532H10zM4.952 4.694a.275.275 0 00-.204.086l-.752.891.462.398.74-.892c.108-.118.087-.3-.053-.419a.322.322 0 00-.193-.064z" fill="#2C2C2C"/></svg>