<svg width="49" height="49" fill="none" xmlns="http://www.w3.org/2000/svg"><path d="M32.556 10.039l-.782-1.587-.783 1.587a1.44 1.44 0 01-1.081.785l-1.75.254 1.266 1.235c.338.33.493.805.413 1.27l-.3 1.744 1.566-.823a1.437 1.437 0 011.336 0l1.566.823-.299-1.743c-.08-.466.074-.941.413-1.271l1.266-1.235-1.75-.254a1.435 1.435 0 01-1.08-.785z" fill="#B72032"/><path d="M45.172.096H18.375a3.828 3.828 0 00-3.828 3.828v15.312a3.828 3.828 0 003.828 3.828h9.57l2.634 3.951c.568.852 1.82.852 2.389 0l2.634-3.95h9.57A3.828 3.828 0 0049 19.235V3.924A3.828 3.828 0 0045.172.096zm-5.697 11.008l-2.81 2.738.664 3.867a1.436 1.436 0 01-2.083 1.513l-3.473-1.826-3.472 1.826a1.435 1.435 0 01-2.083-1.513l.663-3.867-2.809-2.738a1.436 1.436 0 01.796-2.449l3.882-.564 1.736-3.518a1.436 1.436 0 012.575 0l1.736 3.518 3.882.564a1.435 1.435 0 01.796 2.449z" fill="#B72032"/><path d="M28.19 28.608l-1.781-2.672h-8.034c-2.922 0-5.412-1.882-6.325-4.496l-.374-.094H3.828A3.828 3.828 0 000 25.174v15.312a3.828 3.828 0 003.828 3.829h9.57l2.634 3.95c.568.852 1.82.852 2.389 0l2.634-3.95h9.57a3.828 3.828 0 003.828-3.829V29.591a4.298 4.298 0 01-2.68.934 4.298 4.298 0 01-3.583-1.917zM5.742 25.652h4.785a1.436 1.436 0 010 2.871H5.742a1.436 1.436 0 110-2.87zm22.969 14.356H5.742a1.436 1.436 0 110-2.871h22.969a1.436 1.436 0 010 2.87zm0-5.742H5.742a1.436 1.436 0 110-2.871h22.969a1.436 1.436 0 010 2.87z" fill="#B72032"/></svg>