<svg width="24" height="24" fill="none" xmlns="http://www.w3.org/2000/svg"><g clip-path="url(#clip0)"><path d="M23.185 11.086l-1.634-.707-1.388-2.7a2.185 2.185 0 00-1.966-1.195h-2.39v-.675A2.205 2.205 0 0013.61 3.59H2.186C.965 3.59 0 4.592 0 5.81v10.34a1.347 1.347 0 001.329 1.366h.305c0 .054-.005.075-.005.108a2.776 2.776 0 005.551.02v-.026c0-.037 0-.053-.005-.107h9.232v.107a2.776 2.776 0 005.551.022v-.134h.691c.745 0 1.35-.606 1.35-1.35v-3.827a1.344 1.344 0 00-.814-1.243zM4.41 19.343a1.7 1.7 0 01-1.704-1.703 1.7 1.7 0 011.704-1.704 1.7 1.7 0 011.704 1.704c0 .937-.766 1.703-1.704 1.703zm10.325-2.888H6.923a2.753 2.753 0 00-2.513-1.602 2.739 2.739 0 00-2.513 1.602H1.35c-.166 0-.278-.128-.278-.294V13.4h13.663v3.054zm0-10.641v6.515H1.072V5.814c0-.627.487-1.147 1.114-1.147H13.61c.627.006 1.13.52 1.125 1.142v.005zm1.072 1.747h2.39a1.13 1.13 0 011.018.605l1.071 2.074h-4.48V7.56zm3.38 11.782a1.7 1.7 0 01-1.703-1.703 1.7 1.7 0 011.704-1.704 1.705 1.705 0 010 3.408zm3.746-3.182c0 .166-.112.294-.278.294H21.7a2.774 2.774 0 00-5.026 0h-.868v-5.143h5.251l1.704.75a.315.315 0 01.171.289v3.81z" fill="#fff"/></g><defs><clipPath id="clip0"><path fill="#fff" d="M0 0h24v24H0z"/></clipPath></defs></svg>