<svg width="24" height="24" fill="none" xmlns="http://www.w3.org/2000/svg"><g clip-path="url(#clip0)"><path d="M23.853 14.422l-4.241 8.026c-.208.4-.796.822-1.25.822l-17.008.003A1.353 1.353 0 010 21.919L.003 8.712c0-.747.605-1.353 1.352-1.354H2.6V8.51h-.832a.614.614 0 00-.615.614l.002 12.38c0 .34.275.615.614.615h.852l4.02-8.131c.226-.454.656-.822 1.11-.822h9.843l.003-3.272a1.26 1.26 0 011.15 1.251v2.021h4.515c.533.006.982.533.592 1.255zm-20.47 3.605c-.037-4.048 0-16.19 0-16.19 0-.612.498-1.11 1.11-1.11h8.891c.143 0 .278.06.375.164l2.874 3.123a.51.51 0 01.134.345v8.09h-.932v-7.39a.232.232 0 00-.232-.232h-2.2a.467.467 0 01-.467-.466V1.89a.232.232 0 00-.232-.231h-8.21a.178.178 0 00-.178.177V17.01l-.714 1.443s-.215-.016-.22-.425zM13.87 3.894h1.385L13.87 2.388v1.506zm.505 1.882H5.782a.574.574 0 000 1.147h8.593a.575.575 0 000-1.147zm.574 3.915a.574.574 0 00-.574-.573H5.782a.574.574 0 000 1.146h8.593a.574.574 0 00.574-.573zm-9.741 3.364c0 .316.257.573.574.573h.206c.362-1.01 1.261-1.146 1.261-1.146H5.782a.574.574 0 00-.574.573z" fill="#B72032"/></g><defs><clipPath id="clip0"><path fill="#fff" d="M0 0h24v24H0z"/></clipPath></defs></svg>