<svg width="24" height="24" fill="none" xmlns="http://www.w3.org/2000/svg"><g clip-path="url(#clip0)" fill="#fff"><path d="M14.043 16.8a2 2 0 10-4-.001 2 2 0 004 0zm-3.2 0a1.2 1.2 0 112.4 0 1.2 1.2 0 01-2.4 0zm1.2-8.802a1.6 1.6 0 100-3.2 1.6 1.6 0 000 3.2zm0-2.4a.8.8 0 110 1.6.8.8 0 010-1.6z"/><path d="M.872 4.844a.4.4 0 00.523.217l.46-.19.377.914-.459.19a.4.4 0 10.307.74l.458-.19.379.913-.461.19a.4.4 0 00.307.74l.46-.19.753 1.82a.794.794 0 00-.14.833l.72 1.74a.8.8 0 001.046.433l1.326-.549.314.76V21.2a1.2 1.2 0 00-1.2 1.2v.4a1.2 1.2 0 001.2 1.2h9.601a1.2 1.2 0 001.2-1.2v-.4a1.2 1.2 0 00-1.2-1.2v-3.274a1.193 1.193 0 000-2.253v-2.405l.337-.813 1.328.55a.8.8 0 001.045-.433l.72-1.742a.8.8 0 00-.139-.832l.754-1.82.458.19a.4.4 0 00.307-.739l-.46-.19.38-.915.458.19a.4.4 0 10.306-.74l-.459-.19.379-.914.459.19a.402.402 0 00.545-.291.4.4 0 00-.239-.448l-.466-.193.27-.69a1.744 1.744 0 00-.945-2.277L19.4.133a1.744 1.744 0 00-2.28.949l-.267.686-.447-.186a.4.4 0 10-.306.739l.457.189-.378.915-.457-.19a.4.4 0 10-.306.74l.458.19-.219.527a3.992 3.992 0 00-7.214-.028l-.207-.5.459-.19a.4.4 0 10-.307-.739l-.457.19-.378-.915.456-.19a.4.4 0 00-.306-.738l-.448.185-.269-.694A1.743 1.743 0 004.71.133L2.23 1.16a1.736 1.736 0 00-.948 2.268l.272.699-.467.193a.4.4 0 00-.215.523zm14.395 3.914l.549.227-.72 1.74-1.327-.549.089-.215a4.023 4.023 0 001.41-1.203zm2.39.455l-1.062 2.567-.375.907-.928-.349.388-.935.002-.004 1.027-2.477.036-.087a.4.4 0 01.523-.214l.174.071a.4.4 0 01.215.52v.001zM8.042 17.6h.8v1.6h-.8v-1.6zM6.49 9.301v-.005l-.036-.086a.4.4 0 01.214-.52l.174-.074a.404.404 0 01.525.214l.037.088 1.029 2.48.385.93-.931.35-.37-.894v-.007c0-.003-.003-.004-.004-.006L6.49 9.3zm1.552 4.175l1.456-.547 2.407-.905a.389.389 0 01.266 0l3.872 1.452v.745l-3.59-1.35a1.201 1.201 0 00-.824 0l-3.587 1.35v-.745zm4.831-2.933a.4.4 0 00.217.217l1.698.703-.247.593-2.09-.785a1.199 1.199 0 00-.82 0l-2.063.775-.243-.584 1.695-.704a.394.394 0 00.232-.44c.53.108 1.077.106 1.606-.004a.39.39 0 00.015.23zm-2.61-.568l.08.2-1.326.55-.72-1.741.527-.218c.377.51.87.925 1.438 1.21zm-2.21-3.798c-.003.074-.01.147-.01.22 0 .578.126 1.148.37 1.672l-.464.192a1.205 1.205 0 00-1.41-.385l-.177.072c-.502.21-.8.73-.725 1.269l-.955.395-.72-1.74 4.091-1.695zm-2.757 6.088l-.72-1.74 1.328-.55.72 1.74-1.327.55zM17.245 22.4v.4a.4.4 0 01-.4.4H7.241a.4.4 0 01-.4-.4v-.4a.4.4 0 01.4-.4h9.601a.4.4 0 01.4.4zm-9.202-1.2V20h.8a.8.8 0 00.8-.8v-1.6a.8.8 0 00-.8-.8h-.8v-1.724l3.864-1.453a.394.394 0 01.27 0l3.867 1.453v.597a1.19 1.19 0 00-.7 1.606l-2.65 2.32h-1.05a.4.4 0 000 .8h1.05c.193 0 .38-.07.527-.197l2.674-2.342c.048.025.098.047.15.066V21.2H8.041zm8.401-4a.4.4 0 110-.8.4.4 0 010 .8zm2.371-4.934l-1.328-.55.72-1.742 1.328.55-.72 1.742zm.614-2.654l-.955-.396a1.198 1.198 0 00-.726-1.268l-.175-.072a1.2 1.2 0 00-1.409.385l-.486-.2a3.97 3.97 0 00.366-1.663c0-.08-.007-.154-.011-.231l4.117 1.705-.72 1.74zM17.865 1.38a.94.94 0 011.229-.508l2.48 1.029a.944.944 0 01.51 1.237l-.267.684-4.221-1.748.269-.694zm-.568 1.436l4.22 1.748-.377.914-4.221-1.748.378-.914zm3.537 3.4l-.38.915-4.22-1.746.38-.915 4.22 1.747zm-8.791-3.018a3.2 3.2 0 110 6.4 3.2 3.2 0 010-6.4zM7.876 5.386l-4.22 1.746-.379-.914 4.22-1.748.38.916zm-.684-1.655l-4.22 1.747-.379-.915 4.22-1.748.379.916zm-5.167-.6a.936.936 0 01.512-1.23l2.48-1.03a.94.94 0 011.225.5l.273.702-4.22 1.748-.27-.692z"/></g><defs><clipPath id="clip0"><path fill="#fff" d="M0 0h24v24H0z"/></clipPath></defs></svg>