<svg width="20" height="16" fill="none" xmlns="http://www.w3.org/2000/svg"><path fill-rule="evenodd" clip-rule="evenodd" d="M9.293 11.515l-5.034.542.993.97h7.128l-2.643-1.56-.444.048zm0-4.016l6.933-1.85s1.01-.073 2.012-2.344L9.293 6.238 2.335 8.51s-.598.194-.832.356c0 0-.162.097-.162.323 0 0 .016.17.138.29l.299.3 3.798-.986s-.235-.307.234-.372l3.483-.92zm0 3.62a.319.319 0 00.073.154l-.073.008-5.277.598-1.002-.937 6.279-1.124 5.365-.953c-.88 1.73-2.658 1.73-2.658 1.73l-2.214.282c-.372.008-.477.105-.493.202v.04zm0-2.99l7.313-1.85c-.865 1.955-2.602 2.02-2.602 2.02l-4.711.954-1.544.315c-.743.016-.42.396-.42.396l-4.5.768-.841-.744 7.305-1.859zm0-3.951L19.515 0s-.347 1.026-.566 1.552c0 0-.266.832-1.333 1.163L9.293 5.657 2.077 8.194s-.93.331-1.083.72c0 0-.218.444.372.945l3.482 3.168H3.483L.679 10.279S.049 9.762 0 9.026v-.153c.008-.049.008-.097.024-.154 0 0 .121-.808 1.334-1.3l7.935-3.241zm-7.435 9.366H.048v.444h.413v1.35H.049v.46h1.81v-.46h-.445v-.428h1.333v.428h-.436v.46h1.786v-.46h-.428v-1.35h.428v-.444H2.303v.444h.444v.445H1.414v-.444h.444v-.445zm15.896 1.042h.347l-.347-.525-.04-.048-.316.573h.356zm0-1.042h.719l1.082 1.794H20v.46h-1.948v-.46h.437l-.186-.267h-1.18l-.145.267h.428v.46h-1.503v-.46h.46l.744-1.35h-.5v-.444h1.147zm-3.467 1.77c.428-.049.679-.21.679-.63 0-.485-.283-.639-.68-.68-.072-.008-.145-.008-.225-.008h-.453v1.334h.364c.113 0 .218-.008.315-.016zm0-1.77h.29c.744 0 1.302.347 1.302 1.14 0 .912-.525 1.098-1.592 1.115h-2.028v-.461h.436v-1.35h-.436v-.444h2.028zm-8.291 1.875a.754.754 0 00.751-.744.745.745 0 00-.751-.751h-.008a.736.736 0 00-.744.743c0 .396.316.752.736.752h.016zm0-1.988h.024c1.059 0 1.754.396 1.754 1.212 0 .752-.639 1.252-1.778 1.252h-.032c-1.107 0-1.77-.428-1.77-1.236 0-.776.654-1.228 1.802-1.228zm3.709.113H7.919v.444h.428v1.35H7.92v.46h1.422v-.46h-.444v-1.156l1.252 1.617h1.382v-1.81h.453v-.445h-1.471v.444h.46v1.188l-1.268-1.632z" fill="#fff"/></svg>