<svg width="20" height="11" fill="none" xmlns="http://www.w3.org/2000/svg"><g clip-path="url(#clip0)"><path d="M.03 3.951v2.563h5.854V3.586h1.142c.729 0 1.944.122 3.05.365 1.287.28 2.43.74 2.43 1.397 0 .546-.851 1.166-.876 1.166H20s-.206-.923-.644-1.53c-.28-.4-.631-.753-1.166-1.033-.462-.243-1.057-.437-1.87-.57v-.134c.376 0 1.384-.365 2.259-.948C19.757 1.51 19.975.04 19.975.04h-8.284s.692.57.692 1.093c0 1.093-3.91 1.92-5.332 1.92H5.885V.04H.029v3.911zm.05 4.875v-1.83h.993v.987l.878-.988h1.165L2.008 8.143l.442.684.787 1.21H2.043l-.735-1.21-.235.246v.965H.08V8.826z" fill="#2C2C2C"/><path d="M3.484 8.826c.47-.19 1.16-.08 1.16-.356 0-.16-.195-.178-.287-.178-.126 0-.287.023-.31.213h-.844c0-.471.333-.741 1.206-.741 1.05 0 1.113.385 1.113.913v1.039c0 .126.006.19.12.281v.04H4.73l-.04-.235c-.247.235-.505.298-.833.298-.419 0-.792-.206-.792-.665 0-.339.184-.511.42-.609z" fill="#2C2C2C"/><path d="M5.757 8.826l-.333-.999h.855l.247 1 .092.367.098-.368.253-.999h.746l.246 1 .092.367.092-.368.259-.999h.832l-.322 1-.384 1.21h-.855l-.322-1.21-.023-.087-.023.086-.293 1.212h-.86l-.397-1.212zm3.639 0c.466-.19 1.154-.08 1.154-.356 0-.16-.189-.178-.287-.178-.12 0-.287.023-.304.213h-.85c0-.471.34-.741 1.212-.741 1.045 0 1.108.385 1.108.913v1.039c0 .126.005.19.12.281v.04h-.907l-.046-.235c-.247.235-.5.298-.832.298-.414 0-.787-.206-.787-.665 0-.339.179-.511.42-.609zm2.28 0a.545.545 0 01-.098-.333c0-.568.586-.729 1.05-.729.483 0 1.045.11 1.097.695h-.798a.244.244 0 00-.086-.16.265.265 0 00-.178-.058c-.15 0-.247.051-.247.16 0 .219.695.178 1.103.425a.555.555 0 01.292.505c0 .46-.379.77-1.188.77-.505 0-1.068-.155-1.114-.752h.838c0 .092.035.16.092.206.057.04.132.064.218.064.132 0 .276-.04.276-.196 0-.298-.953-.149-1.257-.597zm2.589 0c.465-.19 1.154-.08 1.154-.356 0-.16-.196-.178-.287-.178-.12 0-.287.023-.31.213h-.844c0-.471.333-.741 1.211-.741 1.045 0 1.108.385 1.108.913v1.039c0 .126.006.19.12.281v.04h-.912l-.04-.235c-.247.235-.5.298-.833.298-.419 0-.792-.206-.792-.665 0-.339.184-.511.425-.609zm2.205 0v-1.83h.878v1.503l.562-.671h1.028l-.821.855.098.144.832 1.21h-1.056l-.477-.786-.167.167v.62h-.878V8.826zm2.628-.998v2.21h.879V7.827h-.879zm0-.913v.626h.879v-.626h-.879z" fill="#2C2C2C"/><path d="M15.418 9.062c-.287.138-.665.069-.665.356 0 .11.103.184.275.184.31 0 .413-.241.39-.54zm-4.868 0c-.287.138-.665.069-.665.356 0 .11.103.184.281.184.304 0 .408-.241.384-.54zm-5.906 0c-.288.138-.666.069-.666.356 0 .11.103.184.275.184.31 0 .414-.241.39-.54z" fill="#fff"/></g><defs><clipPath id="clip0"><path fill="#fff" d="M0 0h20v10.101H0z"/></clipPath></defs></svg>