<svg width="155" height="63" fill="none" xmlns="http://www.w3.org/2000/svg"><path d="M68 27.18l.414-.52c.352.472.837.876 1.57.876 1.076 0 1.748-.746 1.748-1.81v-5.599h.673v5.6c0 1.641-1.076 2.423-2.385 2.423-.85 0-1.5-.295-2.02-.97zm16.52.828l-.781-1.936h-4.172l-.779 1.936h-.781l3.225-7.881h.837l3.225 7.88h-.774zm-2.86-7.158l-1.864 4.605h3.722L81.66 20.85zm9.515 7.158v-7.881h2.954c1.512 0 2.374 1.063 2.374 2.304 0 1.24-.872 2.304-2.374 2.304H91.85v3.273h-.675zm4.618-5.575c0-.992-.685-1.69-1.738-1.69h-2.207v3.38h2.207c1.056 0 1.738-.71 1.738-1.69zm11.618 5.575l-.779-1.936h-4.171l-.779 1.936h-.779l3.225-7.881h.837l3.225 7.88h-.779zm-2.859-7.158l-1.865 4.605h3.722l-1.857-4.605zm15.15 7.158l-4.961-6.77v6.77h-.675v-7.881h.685l4.938 6.675v-6.675h.672v7.88h-.659zm7.337 0v-7.881h4.999v.614h-4.324v2.918h4.24v.614h-4.24v3.118h4.324v.614h-4.999v.003zm10.946-1.109l.437-.508c.507.579 1.334 1.147 2.468 1.147 1.606 0 2.068-.898 2.068-1.573 0-2.316-4.724-1.111-4.724-3.862 0-1.289 1.157-2.103 2.588-2.103 1.169 0 2.068.414 2.669 1.111l-.449.498c-.566-.685-1.37-.995-2.256-.995-1.05 0-1.842.604-1.842 1.454 0 2.02 4.725.91 4.725 3.851 0 1.015-.673 2.233-2.799 2.233-1.304-.002-2.284-.533-2.885-1.253zm12.017 1.109v-7.881H155v.614h-4.324v2.918h4.24v.614h-4.24v3.118H155v.614h-4.998v.003zm-67.74 12.044l.921-1.312a3.461 3.461 0 002.504 1.076c.934 0 1.37-.413 1.37-.873 0-1.37-4.536-.413-4.536-3.377 0-1.312 1.134-2.398 2.989-2.398 1.25 0 2.29.379 3.07 1.1l-.934 1.25c-.637-.591-1.487-.863-2.291-.863-.708 0-1.111.307-1.111.78 0 1.24 4.523.4 4.523 3.343 0 1.441-1.037 2.527-3.153 2.527-1.523-.002-2.609-.51-3.352-1.253zm12.346 1.108v-7.877h3.684c1.713 0 2.647 1.157 2.647 2.54 0 1.37-.944 2.527-2.647 2.527h-2.007v2.81h-1.677zm4.62-5.337c0-.663-.507-1.064-1.17-1.064h-1.77v2.114h1.77c.663 0 1.17-.401 1.17-1.05zm7.483 5.337v-7.877h1.677v7.878h-1.677zm12.41 0l-1.548-2.8h-1.228v2.8h-1.677v-7.877h3.684c1.641 0 2.659 1.075 2.659 2.54 0 1.382-.886 2.138-1.738 2.339l1.784 2.999h-1.936zm.165-5.35c0-.65-.508-1.05-1.17-1.05h-1.771v2.126h1.771c.662 0 1.17-.404 1.17-1.076zm7.695 5.35v-7.877h1.677v7.878h-1.677zm9.776 0v-6.4h-2.304v-1.477h6.285v1.476h-2.294v6.402h-1.687z" fill="#fff"/><ellipse cx="31.551" cy="31.493" rx="31.449" ry="31.452" fill="#fff"/><path d="M2.09 28.59c1.745.297 2.831-4.213 3.127-5.432-5.926.199-4.97 5.136-3.127 5.432z" fill="#B72032"/><path d="M15.828 51.787c.383-1.47 1.059-5.527 1.294-7.203-.353 2.293-2.322 6.145-4.762 5.938-6.057-.558-2.999-12.143-2.852-13.377-3.616-2.588-3.321-6.262-1.734-7.733 1.969-1.794 6.233-1.588 6.35.293.108 1.578-.537 3.986-.937 6.27 2.293-.53 2.638-2.45 2.823-3.484.226-1.269.226-3.774-2.313-6.315-1.282-1.282-3.06-1.967-4.463-2.328-.395 1.679-.856 3.292-1.415 4.313-2.492 4.78-6.605 2.454-7.568-.661A31.82 31.82 0 000 31.497c0 9.758 4.438 18.48 11.404 24.257-.116-1.433 1.025-3.124 4.424-3.967zM7.183 11.471A31.406 31.406 0 00.965 23.727c.838-.946 2.297-1.675 4.582-1.919.722-3.373 1.233-6.887 1.636-10.337z" fill="#B72032"/><path d="M8.272 30.06c-1.087 1.206-.97 3.911 1.558 5.262-.029.088.646-3.557.676-3.645.736-2.97-1-2.97-2.234-1.617zm19.595 8.26c-2.675 1.06-3.616 8.528-1.999 9.322 3.322 1.618 4.762-10.438 1.999-9.321z" fill="#B72032"/><path d="M54.629 46.878c-1.118 2.44-2.94 4.234-5.38 3.968a2.26 2.26 0 01-1.308-.595c-6.544 2.554-9.295-2.965-7.755-10.93a2.49 2.49 0 01-1.587.177c-.207 2.823-1 7.85-2.94 9.82-2.324 2.352-4.999.177-5.91-2.38-1.117 2.41-2.94 4.175-5.35 3.91-4.144-.411-3.91-11.82 1.206-14.437 1.557-.793 3.233-.764 4.264.588.028.059.058.089.086.147.117-.412.237-.794.354-1.206 2.645.823 3.292 1.324 3.204 1.706-3.558 14.995 3.646 13.524 4.469 1.646-1.617-.765-2.558-3.234-1.088-6.322l2.557 1.47c-1.999 5.558 1.088 4.97 1.47 1.941.44.117 3.38.97 3.233 1.676-1.919 8.057-1.3 12.707 3.217 11.51-2.005-3.13-1.065-11.035 3.083-13.156 1.558-.793 3.233-.764 4.263.588.028.03.058.089.088.118.676-3.145 1.676-6.526 2.44-8.497 2.647.853 3.058 1.883 2.97 2.264-.765 2.91-1.852 6.38-2.44 9.702-.62 3.608-.54 6.259.417 7.635a31.35 31.35 0 004.803-16.722C62.995 14.103 48.893 0 31.498 0a31.362 31.362 0 00-19.349 6.643c.363 2.964 1.893 10.525 2.716 12.599.33.79 6.946-8.296 8.198-12.05.362-1.153 4.28 1.548 4.148 2.238 0 0-2.304 10.667-2.106 15.869.208 5.06 2.192 4.362 4.735 3.207-1.525-3.521-.554-10.014 3.5-12.082 1.694-.877 3.564-.936 4.791.35.35.41.672.876.906 1.461-7.129-2.834-8.268 10.93-4.5 10.461 2.689-.35 4.12-4.762 3.653-6.749-3.8-.117-2.017-3.857-.03-3.04 2.221.936 1.403 4.558.847 6.371-.964 3.07-3.126 5.699-6.341 5.552-.97-.042-1.75-.572-2.326-1.407-5.84 3.088-9.515.906-9.352-6.263.066-2.437.33-4.51.823-7.802-1.218 1.283-6.75 9.91-8 6.518-1.35-3.687-2.172-7.11-2.665-9.218-.495 3.16-.955 6.387-1.58 9.581l-.006.012c1.624.41 3.727 1.213 5.29 2.776 3.063 3.064 3.047 6.174 2.765 7.754-.121.677-.372 2.085-1.372 3.231-.816.937-1.937 1.497-3.348 1.675l-.07.384c-.822 3.087-1.465 9.779.123 10.307 4.057 1.294 5.763-15.935 5.763-18.67 1.882.383 3.499.795 3.499 1.176-.383 6.763-1.53 14.907-3.117 21.522-1.063 3.865-2.823 5.454-4.392 5.743A31.341 31.341 0 0031.498 63c10.521 0 19.836-5.16 25.556-13.087-1.111-.58-1.922-1.628-2.425-3.035zM41.43 15.984a78.264 78.264 0 011.52-4.85c2.658.846 3.067 1.87 2.95 2.25a358.16 358.16 0 01-.789 2.922c1.081.03 2.22-.029 3.215-.234l.058 1.286c-1.14.234-2.397.234-3.594.117a38.133 38.133 0 00-.936 4.267c-.933 6.233.394 9.31 5.042 7.412-1.97-3.304-1.148-10.527 3.17-12.731 1.695-.878 3.565-.936 4.793.35.35.409.672.876.905 1.461-7.129-2.834-8.268 10.93-4.5 10.461 2.689-.35 4.12-4.763 3.653-6.75-3.8-.116-2.017-3.856-.029-3.039 2.22.936 1.403 4.558.848 6.37-.964 3.07-3.126 5.7-6.342 5.552-.823-.036-1.507-.422-2.049-1.047-6.7 3.242-9.82-1.383-8.939-8.713.147-1.314.439-2.775.819-4.178-.877-.234-1.431-.409-1.431-.409l-.03-.79c.001 0 .673.148 1.666.293z" fill="#B72032"/><path d="M12.595 56.14c.47.587 1.91.086 2.97-3.384-2.97.943-3.47 2.737-2.97 3.383zm40.122-17.82c-2.676 1.06-3.617 8.528-2 9.322 3.323 1.618 4.852-10.468 2-9.321z" fill="#B72032"/></svg>