<svg width="49" height="49" fill="none" xmlns="http://www.w3.org/2000/svg"><path d="M41.822 27.371c-1.176 0-2.27.312-3.251.815l-1.94-2.306c.86-.508 1.79-.9 2.774-1.12.802-.18 1.597-.246 2.425-.259a4.099 4.099 0 002.91-1.194c.822-.813 1.293-1.944 1.293-3.282 0-7.352-6.194-12.752-12.733-12.752h-1.622a1.435 1.435 0 100 2.872H33.3c.428 0 .835.073 1.249.126v2.774c-.834.076-1.619.334-2.362.68-.01-.011-.021-.018-.03-.03a7.16 7.16 0 00-2.93 2.517l-3.268 4.901a1.44 1.44 0 01-.977.622c-2.906.447-5.425 2.3-6.748 5.005 1.226 1.833 1.96 4.016 1.96 6.373h-2.967c0-4.75-3.864-8.613-8.614-8.613C3.863 24.5 0 28.364 0 33.113c0 4.75 3.864 8.614 8.613 8.614 3.738 0 6.895-2.408 8.085-5.743h13.544c.793 0 1.436-.642 1.436-1.435 0-.798.095-1.612.282-2.42.39-1.676 1.262-3.202 2.433-4.448l1.937 2.302c-1.036 1.245-1.685 2.823-1.685 4.566 0 3.957 3.22 7.178 7.177 7.178 3.958 0 7.178-3.22 7.178-7.178 0-3.958-3.22-7.178-7.178-7.178zM8.613 38.856a5.748 5.748 0 01-5.742-5.743 5.748 5.748 0 015.742-5.742 5.748 5.748 0 015.742 5.742H10.05a1.436 1.436 0 01-1.436-1.435 1.435 1.435 0 10-2.87 0 4.312 4.312 0 004.306 4.306h3.508c-.996 1.709-2.827 2.871-4.944 2.871zm33.21 0a4.312 4.312 0 01-4.307-4.307c0-.832.248-1.602.658-2.262l2.527 3.159a1.437 1.437 0 002.243-1.794l-2.524-3.156a4.252 4.252 0 011.402-.254 4.312 4.312 0 014.307 4.307 4.312 4.312 0 01-4.307 4.306z" fill="#B72032"/><path d="M24.379 18.309l2.46-3.69c.786-1.18 1.817-2.138 2.988-2.882-1.576-.995-3.392-1.592-5.327-1.592a10.076 10.076 0 00-8.37 4.501l2.297 1.378c1.845 1.107 3.864 1.848 5.952 2.285zm-7.429.177l-9.213-5.47H1.436C.642 13.016 0 13.658 0 14.45c0 3.958 3.22 7.178 7.178 7.178 2.871 0 5.85.062 9.041 2.837.013-.023.013-.049.027-.071 1.113-1.79 2.686-3.18 4.488-4.155-1.305-.477-2.583-1.034-3.785-1.754z" fill="#B72032"/></svg>