<svg width="24" height="24" fill="none" xmlns="http://www.w3.org/2000/svg"><g clip-path="url(#clip0)" fill="#B72032"><path d="M13.258 5.618l1.241-.886a.4.4 0 00-.004-.654l-.296-.205a.393.393 0 00-.399-.03l-.426.214a.4.4 0 00.038.733l.16.06-.722.36.408.408zM10.4 9.51c.232-.15.431-.346.584-.576l1.784-2.672.004-.004-.004-.004-.672-.672h-.004l-.06.032A9.228 9.228 0 008.98 8.05l-.164.2a1.72 1.72 0 00.048 2.229L10.4 9.51zm-4.64 3.945l2.348-1.18a.395.395 0 00.22-.404l-.016-.136-2.96 1.684a.404.404 0 00.408.036zm6.396.608a.389.389 0 000-.556.572.572 0 00-.116-.084c-.011 0-.02-.008-.032-.008a.348.348 0 00-.128-.024.407.407 0 00-.28.116.396.396 0 000 .556c.157.146.4.146.556 0zm3.209-2.016v.732a.79.79 0 01-.232.564l-1.168 1.168v.553l2.26-2.265-.168-1.172-.692.42z"/><path d="M22.838 4.746a3.93 3.93 0 00-2.804-1.165 3.93 3.93 0 00-2.809 1.165l-.036.036c.028-.04.056-.084.088-.124.176-.224.332-.424.472-.609l.004-.004a51.341 51.341 0 01.828-1.036.947.947 0 00.216-.604.957.957 0 00-.616-.888l-.744-.28-.416-.156a7.178 7.178 0 00-5.177.056l-1.232.492a.401.401 0 00.088.768l1.616.248c.096.012.196.032.296.052.076.016.156.032.236.052a9.3 9.3 0 011.116.32c.213.072.42.152.617.232-.008 0 .616.256.68.3.297.156.49.457.508.793a.828.828 0 01-.34.66l-1.873 1.332a.764.764 0 01-.12.316l-1.72 2.584v.048l-.24 2.653.272-.004c.217 0 .425.088.576.244.145.155.224.36.22.572.066.041.126.09.18.144a1.193 1.193 0 01-.656 2.02l-.06.252.228 2.08-.824-.167-.204-1.825a.832.832 0 01.024-.288l.048-.2a1.059 1.059 0 01-.244-.184 1.198 1.198 0 010-1.688 1.06 1.06 0 01.244-.184.792.792 0 01-.6-.844l.156-1.737c-.004.004-.004.008-.008.008L9.06 11.303l.06.472c.065.504-.2.993-.656 1.216l-2.345 1.176a1.197 1.197 0 01-1.38-.22l-.092-.096-.476.716a2.396 2.396 0 01-1.228.936l-1.04.356-.688-.232.8-.648.672-.232c.334-.112.622-.332.82-.624l.372-.564.456-.688-.288-.096a.817.817 0 00-.784.144L.146 15.463a.4.4 0 00.124.688l.216.073a.288.288 0 00.056.02l1.537.52a.436.436 0 00.248 0l3.78-1.193c.02-.008.036-.012.052-.02l2.377-1.132-.244 1.044a3.898 3.898 0 00-2.577 1.157 3.956 3.956 0 106.533 1.496l.572.116a1.24 1.24 0 001.129-.34l5.072-5.073a1.23 1.23 0 00.265-1.364 3.97 3.97 0 003.553-6.71zM12.28 1.829h-.008c.008-.004.016-.004.02-.008-.004.004-.008.008-.012.008zm-1.992 16.69c.075.152.128.312.16.477h-.352l.192-.476zm-3.256 2.19a1.944 1.944 0 01-.497-1.413l.88.176c.007.146.043.29.109.42l-.492.816zm-.297-2.185v-.004c.22-.447.602-.794 1.069-.968l-.268 1.128-.8-.156zm1.777 2.852a1.96 1.96 0 01-.832-.184l.428-.712a1.158 1.158 0 00.476.116l.648.648-.72.132zm1.4-.584l-.484-.484c.15-.127.265-.29.336-.472l.016-.04h.672a1.946 1.946 0 01-.54.996zM20.05 5.546c.056 0 .116.004.172.008v.388a1.586 1.586 0 00-.885.164l-.2-.336c.282-.147.595-.224.913-.224zm-1.537.744l.144.236h-.308c.048-.084.102-.163.164-.236zm-1.94-4.257l.144-.212c.008.004.016.004.024.008l.744.28-.248.368a.43.43 0 00.056.54l.14.14c-.14.18-.304.396-.496.636l-.212-.212a1.23 1.23 0 01-.152-1.548zm.22 11.334l-2.948 2.944a.398.398 0 01-.28.12.403.403 0 01-.4-.404v-1.516a.8.8 0 01.232-.564l1.172-1.172-.004-.728a.8.8 0 01.388-.684l.696-.42a.805.805 0 01.756-.037.79.79 0 01.444.609l.168 1.176a.802.802 0 01-.224.676zm1.86-4.445a2.116 2.116 0 01-.304-.4l.473-.004a1.5 1.5 0 00.108.128l-.277.276zm.348-1.204l-1.244.004-.888-.004a2.096 2.096 0 01.004-.388h.948l1.172-.004h.789a.2.2 0 01.196.188.204.204 0 01-.2.204H19zm1.057 1.784a1.96 1.96 0 01-.716-.132l.312-.312a1.497 1.497 0 00.732.02h.004l.176.356-.508.068zm.964-3.708c.162.086.31.197.44.328.205.207.362.457.46.732l-.368.124a1.646 1.646 0 00-.368-.58 1.327 1.327 0 00-.164-.14v-.464zm.436 3.132l-.172.152h-.004l-.18-.36h.004a1.588 1.588 0 00.52-.92l.408-.136a1.95 1.95 0 01-.576 1.264z"/></g><defs><clipPath id="clip0"><path fill="#fff" d="M0 0h24v24H0z"/></clipPath></defs></svg>