<svg width="24" height="24" fill="none" xmlns="http://www.w3.org/2000/svg"><path d="M22.125 2.625H1.875c-.621 0-1.124.504-1.125 1.125v13.5c0 .621.504 1.124 1.125 1.125H10.5v.75H9A1.877 1.877 0 007.125 21c0 .207.168.375.375.375h9a.375.375 0 00.375-.375A1.877 1.877 0 0015 19.125h-1.5v-.75h8.625c.621 0 1.124-.504 1.125-1.125V3.75c0-.621-.504-1.124-1.125-1.125zM15 19.875c.477 0 .901.3 1.06.75H7.94c.159-.45.583-.75 1.06-.75h6zm-3.75-.75v-.75h1.5v.75h-1.5zM22.5 17.25a.375.375 0 01-.375.375H1.875a.375.375 0 01-.375-.375v-1.125h21v1.125zm0-1.875h-21V3.75c0-.207.168-.375.375-.375h20.25c.207 0 .375.168.375.375v11.625z" fill="#fff"/><path d="M20.625 10.125h-4.5a.375.375 0 00-.375.375V12c0 .207.168.375.375.375h.973l-.221 2.213a.375.375 0 00.598.337l1.183-.887.53.795a.375.375 0 00.624-.416l-.44-.66 1.326-.264a.375.375 0 00.152-.668l-.6-.45h.375A.375.375 0 0021 12v-1.5a.375.375 0 00-.375-.375zm-3.452 1.5H16.5v-.75h.748l-.075.75zm1.352 1.575l-.817.612.224-2.238 1.797 1.348-1.048.21a.425.425 0 00-.156.068zm1.725-1.575h-1l-1-.75h2v.75zm-6.375-6.75H12a.375.375 0 000 .75h1.875a.375.375 0 000-.75zm0 1.5h-3.75a.375.375 0 000 .75h3.75a.375.375 0 000-.75zm0 1.5h-3.75a.375.375 0 000 .75h3.75a.375.375 0 000-.75zM5.5 11.606a.375.375 0 00.232 0A5.239 5.239 0 007.51 10.5c.785-.74 1.676-2.062 1.456-4.164a.375.375 0 00-.173-.279L5.816 4.182a.375.375 0 00-.4 0L2.44 6.057a.375.375 0 00-.173.279 6.11 6.11 0 00.237 2.17c.459 1.538 1.494 2.61 2.996 3.1zM3.003 6.59l2.613-1.646 2.62 1.65c.099 1.351-.311 2.475-1.22 3.342-.41.387-.886.698-1.407.916-1.198-.428-1.998-1.281-2.38-2.535a5.566 5.566 0 01-.226-1.727z" fill="#fff"/><path d="M5.25 9.375h.02a.375.375 0 00.273-.14l1.5-1.876a.375.375 0 10-.586-.468L5.22 8.438l-.454-.453a.375.375 0 00-.53.53l.75.75c.07.07.166.11.265.11zm13.875-5.25c-.254 0-.506.037-.75.11a2.625 2.625 0 100 5.03 2.625 2.625 0 10.75-5.14zM15.75 6.75c.001-.892.63-1.66 1.503-1.838a2.62 2.62 0 000 3.676A1.878 1.878 0 0115.75 6.75zm3.375 1.875a1.875 1.875 0 110-3.75 1.875 1.875 0 010 3.75z" fill="#fff"/><path d="M19.875 6a.375.375 0 00-.375-.375h-.375a.75.75 0 100 1.5h-.375a.375.375 0 000 .75h.375a.75.75 0 100-1.5h.375A.375.375 0 0019.875 6zM10.5 5.625a.375.375 0 100-.75.375.375 0 000 .75zm3.375 3.75H9.75a.375.375 0 000 .75h4.125a.375.375 0 000-.75zm0 1.5H9a.375.375 0 000 .75h4.875a.375.375 0 000-.75zm0 1.5h-10.5a.375.375 0 000 .75h10.5a.375.375 0 000-.75zm0 1.5h-10.5a.375.375 0 000 .75h10.5a.375.375 0 000-.75z" fill="#fff"/></svg>