<svg width="0" height="0" class="hidden"><symbol xmlns="http://www.w3.org/2000/svg" viewBox="0 0 16 14" id="telegram"><path d="M.28 6.7l3.68 1.37 1.434 4.615c.062.311.436.374.686.187l2.057-1.684c.187-.187.5-.187.748 0l3.679 2.681c.25.187.623.063.686-.25L15.992.528c.062-.312-.25-.624-.561-.499L.28 5.888c-.375.125-.375.687 0 .811zm4.926.685l7.232-4.427c.125-.062.25.125.125.188L6.64 8.694c-.187.187-.374.437-.374.749l-.187 1.496c0 .187-.312.25-.374 0l-.748-2.743c-.187-.312-.063-.686.249-.81z" fill="currentColor"/></symbol><symbol xmlns="http://www.w3.org/2000/svg" viewBox="0 0 16 15" id="trolley"><path d="M6.205 15c-.472 0-.925-.197-1.259-.55a1.926 1.926 0 01-.521-1.325c0-.497.187-.974.521-1.326a1.74 1.74 0 011.26-.549c.472 0 .925.197 1.259.55.334.35.521.828.521 1.325s-.187.974-.521 1.326a1.74 1.74 0 01-1.26.549zm6.234 0c-.473 0-.926-.197-1.26-.55a1.926 1.926 0 01-.521-1.325c0-.497.187-.974.521-1.326a1.74 1.74 0 011.26-.549c.472 0 .925.197 1.259.55.334.35.521.828.521 1.325s-.187.974-.521 1.326a1.74 1.74 0 01-1.26.549zM.829 1.803a.837.837 0 01-.588-.274A.927.927 0 010 .9C0 .667.087.442.241.274A.838.838 0 01.83 0h1.025c.803 0 1.498.587 1.672 1.412l1.116 5.29c.174.824.869 1.411 1.672 1.411h6.69l1.283-5.41H5.966a.838.838 0 01-.58-.277.928.928 0 01-.238-.623c0-.232.085-.455.238-.623a.838.838 0 01.58-.278h8.321c.26 0 .517.062.751.182.234.12.44.295.6.511a1.894 1.894 0 01.311 1.547L14.665 8.55c-.093.39-.307.737-.608.984a1.658 1.658 0 01-1.054.382H6.314a3.32 3.32 0 01-2.143-.793 3.637 3.637 0 01-1.2-2.03l-1.117-5.29H.829z" fill="currentColor"/></symbol><symbol xmlns="http://www.w3.org/2000/svg" viewBox="0 0 15 17" id="viber"><path d="M11.307 1.337a21.554 21.554 0 00-8.056 0C2.078 1.59.599 3.007.344 4.122a15.91 15.91 0 000 6.582c.306 1.114 1.785 2.532 2.907 2.785.05 0 .102.05.102.102v3.19c0 .152.204.253.306.1l1.53-1.569s1.223-1.266 1.427-1.468c0 0 .051-.05.102-.05 1.53.05 3.11-.102 4.64-.355 1.173-.254 2.652-1.671 2.906-2.785a15.91 15.91 0 000-6.583c-.305-1.063-1.784-2.481-2.957-2.734zm.051 9.52c-.255.506-.56.91-1.07 1.164l-.46.152c-.204-.05-.357-.101-.51-.152-1.631-.658-3.16-1.57-4.385-2.886a12.178 12.178 0 01-1.682-2.532c-.204-.456-.408-.86-.561-1.317-.153-.405.102-.81.357-1.114a2.36 2.36 0 01.917-.658c.255-.152.51-.05.714.152.408.506.816 1.013 1.122 1.57.204.354.153.76-.204 1.012-.102.051-.153.102-.255.203-.05.05-.153.101-.204.203a.49.49 0 00-.05.455c.407 1.165 1.172 2.076 2.345 2.583.204.1.357.152.612.152.357-.051.51-.456.765-.659.255-.202.56-.202.866-.05.255.152.51.354.816.557.255.202.51.354.765.557.153.1.204.354.102.607zM9.216 7.058c-.101 0-.05 0 0 0-.203 0-.254-.102-.305-.254 0-.1 0-.253-.051-.354a.962.962 0 00-.357-.557l-.306-.152c-.153-.05-.255-.05-.408-.05-.153-.051-.204-.152-.204-.304 0-.102.153-.203.255-.203.816.05 1.427.506 1.53 1.469v.202c0 .101-.052.203-.154.203zm-.51-2.228a3.812 3.812 0 00-.815-.254c-.102 0-.255-.05-.357-.05-.153 0-.255-.101-.204-.253 0-.152.102-.254.255-.203.51.05.969.152 1.428.355.917.455 1.427 1.215 1.58 2.228v.658c-.05.202-.408.253-.459 0 0-.05-.05-.152-.05-.203 0-.455-.103-.911-.307-1.316a2.735 2.735 0 00-1.07-.962zm2.754 3.038c-.153 0-.255-.152-.255-.304 0-.304-.05-.608-.102-.911-.204-1.62-1.53-2.937-3.11-3.19-.255-.051-.51-.051-.714-.102-.153 0-.357 0-.408-.202-.051-.152.102-.304.255-.304h.102c2.09.05.102 0 0 0 2.141.05 3.926 1.468 4.283 3.595.051.354.102.709.102 1.114.102.152 0 .304-.153.304z" fill="currentColor"/></symbol><symbol xmlns="http://www.w3.org/2000/svg" viewBox="0 0 16 17" id="watsapp"><path d="M13.659 3.29A7.945 7.945 0 008.027.957C3.624.957.056 4.513.056 8.901c0 1.39.39 2.778 1.059 3.945L0 16.957l4.237-1.111a8.151 8.151 0 003.79.944c4.405 0 7.973-3.555 7.973-7.944-.056-2.056-.836-4.056-2.341-5.556zm-1.784 8.445c-.168.444-.948.889-1.338.944-.335.056-.78.056-1.227-.055-.279-.111-.669-.223-1.115-.445-2.007-.833-3.29-2.833-3.4-3-.112-.11-.837-1.055-.837-2.055 0-1 .502-1.445.67-1.667.166-.222.39-.222.557-.222h.39c.111 0 .279-.056.446.333.167.389.557 1.389.613 1.445a.353.353 0 010 .333 1.162 1.162 0 01-.223.333c-.111.111-.223.278-.279.334-.111.11-.223.222-.111.388.111.223.502.834 1.115 1.39.78.666 1.394.888 1.617 1 .223.11.334.055.446-.056.111-.111.501-.556.613-.778.111-.222.279-.167.446-.111.167.055 1.17.556 1.338.667.223.11.334.166.39.222.056.167.056.555-.111 1z" fill="currentColor"/></symbol><symbol xmlns="http://www.w3.org/2000/svg" viewBox="0 0 16 12" id="youtube"><path d="M16 4.438c0-.35-.058-.76-.058-1.226-.059-.467-.117-.935-.176-1.343-.116-.468-.291-.818-.642-1.11-.292-.292-.7-.467-1.11-.525C12.673.058 10.687 0 8 0 5.314 0 3.27.058 1.985.234c-.408.058-.817.233-1.11.525a2.33 2.33 0 00-.641 1.11 4.681 4.681 0 00-.176 1.343A9.48 9.48 0 000 4.438v2.686c0 .35.058.76.058 1.226.059.468.117.935.176 1.343.116.468.292.818.642 1.11.292.292.7.467 1.11.525 1.342.176 3.328.234 6.014.234 2.686 0 4.73-.058 6.015-.233.408-.059.817-.234 1.11-.526a2.33 2.33 0 00.641-1.11 4.68 4.68 0 00.176-1.343C16 7.883 16 7.474 16 7.124V4.438zm-4.905 1.81L6.482 9.11a.446.446 0 01-.292.117c-.117 0-.175 0-.292-.058a.613.613 0 01-.292-.526v-5.78c0-.234.117-.41.292-.526a.53.53 0 01.584 0l4.613 2.861c.175.117.292.292.292.467 0 .175-.117.467-.292.584z" fill="currentColor"/></symbol><symbol xmlns="http://www.w3.org/2000/svg" viewBox="0 0 16 16" id="facebook"><path d="M16 2.653C16 1.243 14.757 0 13.347 0H2.653C1.243 0 0 1.244 0 2.653v10.694C0 14.757 1.244 16 2.653 16H8.04V9.948H6.05V7.295h1.99V6.218c0-1.824 1.327-3.4 2.985-3.4h2.155v2.653h-2.155c-.249 0-.498.25-.498.747v1.077h2.653v2.653h-2.65V16h2.818C14.757 16 16 14.757 16 13.347V2.653z" fill="currentColor"/></symbol><symbol xmlns="http://www.w3.org/2000/svg" viewBox="0 0 20 20" id="heart"><path d="M5.833 2.5c-2.3 0-4.166 1.847-4.166 4.125 0 1.84.729 6.204 7.906 10.617a.821.821 0 00.854 0c7.177-4.413 7.906-8.778 7.906-10.617 0-2.278-1.865-4.125-4.166-4.125S10 5 10 5 8.134 2.5 5.833 2.5z" stroke="currentColor" stroke-width="2" stroke-linecap="round" stroke-linejoin="round"/></symbol><symbol xmlns="http://www.w3.org/2000/svg" viewBox="0 0 16 16" id="instagram"><path d="M13.723 0H2.277C.985 0 0 .985 0 2.277v11.446C0 15.015.985 16 2.277 16h11.446C15.015 16 16 15.015 16 13.723V2.277C16 .985 15.015 0 13.723 0zM8 12.8c2.646 0 4.8-2.092 4.8-4.615 0-.431-.062-.923-.185-1.293h1.354v6.523a.617.617 0 01-.615.616H2.646a.617.617 0 01-.615-.616V6.831h1.415a4.68 4.68 0 00-.184 1.292C3.2 10.708 5.354 12.8 8 12.8zm0-1.846c-1.723 0-3.077-1.354-3.077-3.016 0-1.661 1.354-3.015 3.077-3.015 1.723 0 3.077 1.354 3.077 3.015 0 1.724-1.354 3.016-3.077 3.016zm5.908-6.585c0 .37-.308.677-.677.677h-1.723a.683.683 0 01-.677-.677V2.708c0-.37.308-.677.677-.677h1.723c.369 0 .677.307.677.677v1.661z" fill="currentColor"/></symbol><symbol xmlns="http://www.w3.org/2000/svg" viewBox="0 0 20 20" id="search"><path d="M9.167 15.833a6.667 6.667 0 100-13.333 6.667 6.667 0 000 13.333zM17.5 17.5l-3.625-3.625" stroke="currentColor" stroke-width="2" stroke-linecap="round" stroke-linejoin="round"/></symbol><symbol xmlns="http://www.w3.org/2000/svg" viewBox="0 0 12.83 15.5" id="pin_red"><path d="M6.5 0A6.18 6.18 0 00.17 6c0 4.83 6.09 8.84 6.33 9 0 0 6.36-4.17 6.33-9A6.18 6.18 0 006.5 0zm0 9a3.09 3.09 0 01-3.17-3A3.09 3.09 0 016.5 3a3.09 3.09 0 013.17 3A3.09 3.09 0 016.5 9z" fill="currentColor"/></symbol><symbol fill="none" xmlns="http://www.w3.org/2000/svg" viewBox="0 0 155 63" id="logo"><path d="M68 27.18l.414-.52c.352.472.837.876 1.57.876 1.076 0 1.748-.746 1.748-1.81v-5.599h.673v5.6c0 1.641-1.076 2.423-2.385 2.423-.85 0-1.5-.295-2.02-.97zm16.52.828l-.781-1.936h-4.172l-.779 1.936h-.781l3.225-7.881h.837l3.225 7.88h-.774zm-2.86-7.158l-1.864 4.605h3.722L81.66 20.85zm9.515 7.158v-7.881h2.954c1.512 0 2.374 1.063 2.374 2.304 0 1.24-.872 2.304-2.374 2.304H91.85v3.273h-.675zm4.618-5.575c0-.992-.685-1.69-1.738-1.69h-2.207v3.38h2.207c1.056 0 1.738-.71 1.738-1.69zm11.618 5.575l-.779-1.936h-4.171l-.779 1.936h-.779l3.225-7.881h.837l3.225 7.88h-.779zm-2.859-7.158l-1.865 4.605h3.722l-1.857-4.605zm15.15 7.158l-4.961-6.77v6.77h-.675v-7.881h.685l4.938 6.675v-6.675h.672v7.88h-.659zm7.337 0v-7.881h4.999v.614h-4.324v2.918h4.24v.614h-4.24v3.118h4.324v.614h-4.999v.003zm10.946-1.109l.437-.508c.507.579 1.334 1.147 2.468 1.147 1.606 0 2.068-.898 2.068-1.573 0-2.316-4.724-1.111-4.724-3.862 0-1.289 1.157-2.103 2.588-2.103 1.169 0 2.068.414 2.669 1.111l-.449.498c-.566-.685-1.37-.995-2.256-.995-1.05 0-1.842.604-1.842 1.454 0 2.02 4.725.91 4.725 3.851 0 1.015-.673 2.233-2.799 2.233-1.304-.002-2.284-.533-2.885-1.253zm12.017 1.109v-7.881H155v.614h-4.324v2.918h4.24v.614h-4.24v3.118H155v.614h-4.998v.003zm-67.74 12.044l.921-1.312a3.461 3.461 0 002.504 1.076c.934 0 1.37-.413 1.37-.873 0-1.37-4.536-.413-4.536-3.377 0-1.312 1.134-2.398 2.989-2.398 1.25 0 2.29.379 3.07 1.1l-.934 1.25c-.637-.591-1.487-.863-2.291-.863-.708 0-1.111.307-1.111.78 0 1.24 4.523.4 4.523 3.343 0 1.441-1.037 2.527-3.153 2.527-1.523-.002-2.609-.51-3.352-1.253zm12.346 1.108v-7.877h3.684c1.713 0 2.647 1.157 2.647 2.54 0 1.37-.944 2.527-2.647 2.527h-2.007v2.81h-1.677zm4.62-5.337c0-.663-.507-1.064-1.17-1.064h-1.77v2.114h1.77c.663 0 1.17-.401 1.17-1.05zm7.483 5.337v-7.877h1.677v7.878h-1.677zm12.41 0l-1.548-2.8h-1.228v2.8h-1.677v-7.877h3.684c1.641 0 2.659 1.075 2.659 2.54 0 1.382-.886 2.138-1.738 2.339l1.784 2.999h-1.936zm.165-5.35c0-.65-.508-1.05-1.17-1.05h-1.771v2.126h1.771c.662 0 1.17-.404 1.17-1.076zm7.695 5.35v-7.877h1.677v7.878h-1.677zm9.776 0v-6.4h-2.304v-1.477h6.285v1.476h-2.294v6.402h-1.687z" fill="#fff"/><ellipse cx="31.551" cy="31.493" rx="31.449" ry="31.452" fill="#fff"/><path d="M2.09 28.59c1.745.297 2.831-4.213 3.127-5.432-5.926.199-4.97 5.136-3.127 5.432z" fill="#B72032"/><path d="M15.828 51.787c.383-1.47 1.059-5.527 1.294-7.203-.353 2.293-2.322 6.145-4.762 5.938-6.057-.558-2.999-12.143-2.852-13.377-3.616-2.588-3.321-6.262-1.734-7.733 1.969-1.794 6.233-1.588 6.35.293.108 1.578-.537 3.986-.937 6.27 2.293-.53 2.638-2.45 2.823-3.484.226-1.269.226-3.774-2.313-6.315-1.282-1.282-3.06-1.967-4.463-2.328-.395 1.679-.856 3.292-1.415 4.313-2.492 4.78-6.605 2.454-7.568-.661A31.82 31.82 0 000 31.497c0 9.758 4.438 18.48 11.404 24.257-.116-1.433 1.025-3.124 4.424-3.967zM7.183 11.471A31.406 31.406 0 00.965 23.727c.838-.946 2.297-1.675 4.582-1.919.722-3.373 1.233-6.887 1.636-10.337z" fill="#B72032"/><path d="M8.272 30.06c-1.087 1.206-.97 3.911 1.558 5.262-.029.088.646-3.557.676-3.645.736-2.97-1-2.97-2.234-1.617zm19.595 8.26c-2.675 1.06-3.616 8.528-1.999 9.322 3.322 1.618 4.762-10.438 1.999-9.321z" fill="#B72032"/><path d="M54.629 46.878c-1.118 2.44-2.94 4.234-5.38 3.968a2.26 2.26 0 01-1.308-.595c-6.544 2.554-9.295-2.965-7.755-10.93a2.49 2.49 0 01-1.587.177c-.207 2.823-1 7.85-2.94 9.82-2.324 2.352-4.999.177-5.91-2.38-1.117 2.41-2.94 4.175-5.35 3.91-4.144-.411-3.91-11.82 1.206-14.437 1.557-.793 3.233-.764 4.264.588.028.059.058.089.086.147.117-.412.237-.794.354-1.206 2.645.823 3.292 1.324 3.204 1.706-3.558 14.995 3.646 13.524 4.469 1.646-1.617-.765-2.558-3.234-1.088-6.322l2.557 1.47c-1.999 5.558 1.088 4.97 1.47 1.941.44.117 3.38.97 3.233 1.676-1.919 8.057-1.3 12.707 3.217 11.51-2.005-3.13-1.065-11.035 3.083-13.156 1.558-.793 3.233-.764 4.263.588.028.03.058.089.088.118.676-3.145 1.676-6.526 2.44-8.497 2.647.853 3.058 1.883 2.97 2.264-.765 2.91-1.852 6.38-2.44 9.702-.62 3.608-.54 6.259.417 7.635a31.35 31.35 0 004.803-16.722C62.995 14.103 48.893 0 31.498 0a31.362 31.362 0 00-19.349 6.643c.363 2.964 1.893 10.525 2.716 12.599.33.79 6.946-8.296 8.198-12.05.362-1.153 4.28 1.548 4.148 2.238 0 0-2.304 10.667-2.106 15.869.208 5.06 2.192 4.362 4.735 3.207-1.525-3.521-.554-10.014 3.5-12.082 1.694-.877 3.564-.936 4.791.35.35.41.672.876.906 1.461-7.129-2.834-8.268 10.93-4.5 10.461 2.689-.35 4.12-4.762 3.653-6.749-3.8-.117-2.017-3.857-.03-3.04 2.221.936 1.403 4.558.847 6.371-.964 3.07-3.126 5.699-6.341 5.552-.97-.042-1.75-.572-2.326-1.407-5.84 3.088-9.515.906-9.352-6.263.066-2.437.33-4.51.823-7.802-1.218 1.283-6.75 9.91-8 6.518-1.35-3.687-2.172-7.11-2.665-9.218-.495 3.16-.955 6.387-1.58 9.581l-.006.012c1.624.41 3.727 1.213 5.29 2.776 3.063 3.064 3.047 6.174 2.765 7.754-.121.677-.372 2.085-1.372 3.231-.816.937-1.937 1.497-3.348 1.675l-.07.384c-.822 3.087-1.465 9.779.123 10.307 4.057 1.294 5.763-15.935 5.763-18.67 1.882.383 3.499.795 3.499 1.176-.383 6.763-1.53 14.907-3.117 21.522-1.063 3.865-2.823 5.454-4.392 5.743A31.341 31.341 0 0031.498 63c10.521 0 19.836-5.16 25.556-13.087-1.111-.58-1.922-1.628-2.425-3.035zM41.43 15.984a78.264 78.264 0 011.52-4.85c2.658.846 3.067 1.87 2.95 2.25a358.16 358.16 0 01-.789 2.922c1.081.03 2.22-.029 3.215-.234l.058 1.286c-1.14.234-2.397.234-3.594.117a38.133 38.133 0 00-.936 4.267c-.933 6.233.394 9.31 5.042 7.412-1.97-3.304-1.148-10.527 3.17-12.731 1.695-.878 3.565-.936 4.793.35.35.409.672.876.905 1.461-7.129-2.834-8.268 10.93-4.5 10.461 2.689-.35 4.12-4.763 3.653-6.75-3.8-.116-2.017-3.856-.029-3.039 2.22.936 1.403 4.558.848 6.37-.964 3.07-3.126 5.7-6.342 5.552-.823-.036-1.507-.422-2.049-1.047-6.7 3.242-9.82-1.383-8.939-8.713.147-1.314.439-2.775.819-4.178-.877-.234-1.431-.409-1.431-.409l-.03-.79c.001 0 .673.148 1.666.293z" fill="#B72032"/><path d="M12.595 56.14c.47.587 1.91.086 2.97-3.384-2.97.943-3.47 2.737-2.97 3.383zm40.122-17.82c-2.676 1.06-3.617 8.528-2 9.322 3.323 1.618 4.852-10.468 2-9.321z" fill="#B72032"/></symbol><symbol fill="none" xmlns="http://www.w3.org/2000/svg" viewBox="0 0 24 24" id="delivery-truck"><g clip-path="url(#clip0)"><path d="M23.185 11.086l-1.634-.707-1.388-2.7a2.185 2.185 0 00-1.966-1.195h-2.39v-.675A2.205 2.205 0 0013.61 3.59H2.186C.965 3.59 0 4.592 0 5.81v10.34a1.347 1.347 0 001.329 1.366h.305c0 .054-.005.075-.005.108a2.776 2.776 0 005.551.02v-.026c0-.037 0-.053-.005-.107h9.232v.107a2.776 2.776 0 005.551.022v-.134h.691c.745 0 1.35-.606 1.35-1.35v-3.827a1.344 1.344 0 00-.814-1.243zM4.41 19.343a1.7 1.7 0 01-1.704-1.703 1.7 1.7 0 011.704-1.704 1.7 1.7 0 011.704 1.704c0 .937-.766 1.703-1.704 1.703zm10.325-2.888H6.923a2.753 2.753 0 00-2.513-1.602 2.739 2.739 0 00-2.513 1.602H1.35c-.166 0-.278-.128-.278-.294V13.4h13.663v3.054zm0-10.641v6.515H1.072V5.814c0-.627.487-1.147 1.114-1.147H13.61c.627.006 1.13.52 1.125 1.142v.005zm1.072 1.747h2.39a1.13 1.13 0 011.018.605l1.071 2.074h-4.48V7.56zm3.38 11.782a1.7 1.7 0 01-1.703-1.703 1.7 1.7 0 011.704-1.704 1.705 1.705 0 010 3.408zm3.746-3.182c0 .166-.112.294-.278.294H21.7a2.774 2.774 0 00-5.026 0h-.868v-5.143h5.251l1.704.75a.315.315 0 01.171.289v3.81z" fill="#fff"/></g><defs><clipPath id="clip0"><path fill="#fff" d="M0 0h24v24H0z"/></clipPath></defs></symbol><symbol fill="none" xmlns="http://www.w3.org/2000/svg" viewBox="0 0 24 24" id="engine"><g clip-path="url(#clip0)" fill="#fff"><path d="M14.043 16.8a2 2 0 10-4-.001 2 2 0 004 0zm-3.2 0a1.2 1.2 0 112.4 0 1.2 1.2 0 01-2.4 0zm1.2-8.802a1.6 1.6 0 100-3.2 1.6 1.6 0 000 3.2zm0-2.4a.8.8 0 110 1.6.8.8 0 010-1.6z"/><path d="M.872 4.844a.4.4 0 00.523.217l.46-.19.377.914-.459.19a.4.4 0 10.307.74l.458-.19.379.913-.461.19a.4.4 0 00.307.74l.46-.19.753 1.82a.794.794 0 00-.14.833l.72 1.74a.8.8 0 001.046.433l1.326-.549.314.76V21.2a1.2 1.2 0 00-1.2 1.2v.4a1.2 1.2 0 001.2 1.2h9.601a1.2 1.2 0 001.2-1.2v-.4a1.2 1.2 0 00-1.2-1.2v-3.274a1.193 1.193 0 000-2.253v-2.405l.337-.813 1.328.55a.8.8 0 001.045-.433l.72-1.742a.8.8 0 00-.139-.832l.754-1.82.458.19a.4.4 0 00.307-.739l-.46-.19.38-.915.458.19a.4.4 0 10.306-.74l-.459-.19.379-.914.459.19a.402.402 0 00.545-.291.4.4 0 00-.239-.448l-.466-.193.27-.69a1.744 1.744 0 00-.945-2.277L19.4.133a1.744 1.744 0 00-2.28.949l-.267.686-.447-.186a.4.4 0 10-.306.739l.457.189-.378.915-.457-.19a.4.4 0 10-.306.74l.458.19-.219.527a3.992 3.992 0 00-7.214-.028l-.207-.5.459-.19a.4.4 0 10-.307-.739l-.457.19-.378-.915.456-.19a.4.4 0 00-.306-.738l-.448.185-.269-.694A1.743 1.743 0 004.71.133L2.23 1.16a1.736 1.736 0 00-.948 2.268l.272.699-.467.193a.4.4 0 00-.215.523zm14.395 3.914l.549.227-.72 1.74-1.327-.549.089-.215a4.023 4.023 0 001.41-1.203zm2.39.455l-1.062 2.567-.375.907-.928-.349.388-.935.002-.004 1.027-2.477.036-.087a.4.4 0 01.523-.214l.174.071a.4.4 0 01.215.52v.001zM8.042 17.6h.8v1.6h-.8v-1.6zM6.49 9.301v-.005l-.036-.086a.4.4 0 01.214-.52l.174-.074a.404.404 0 01.525.214l.037.088 1.029 2.48.385.93-.931.35-.37-.894v-.007c0-.003-.003-.004-.004-.006L6.49 9.3zm1.552 4.175l1.456-.547 2.407-.905a.389.389 0 01.266 0l3.872 1.452v.745l-3.59-1.35a1.201 1.201 0 00-.824 0l-3.587 1.35v-.745zm4.831-2.933a.4.4 0 00.217.217l1.698.703-.247.593-2.09-.785a1.199 1.199 0 00-.82 0l-2.063.775-.243-.584 1.695-.704a.394.394 0 00.232-.44c.53.108 1.077.106 1.606-.004a.39.39 0 00.015.23zm-2.61-.568l.08.2-1.326.55-.72-1.741.527-.218c.377.51.87.925 1.438 1.21zm-2.21-3.798c-.003.074-.01.147-.01.22 0 .578.126 1.148.37 1.672l-.464.192a1.205 1.205 0 00-1.41-.385l-.177.072c-.502.21-.8.73-.725 1.269l-.955.395-.72-1.74 4.091-1.695zm-2.757 6.088l-.72-1.74 1.328-.55.72 1.74-1.327.55zM17.245 22.4v.4a.4.4 0 01-.4.4H7.241a.4.4 0 01-.4-.4v-.4a.4.4 0 01.4-.4h9.601a.4.4 0 01.4.4zm-9.202-1.2V20h.8a.8.8 0 00.8-.8v-1.6a.8.8 0 00-.8-.8h-.8v-1.724l3.864-1.453a.394.394 0 01.27 0l3.867 1.453v.597a1.19 1.19 0 00-.7 1.606l-2.65 2.32h-1.05a.4.4 0 000 .8h1.05c.193 0 .38-.07.527-.197l2.674-2.342c.048.025.098.047.15.066V21.2H8.041zm8.401-4a.4.4 0 110-.8.4.4 0 010 .8zm2.371-4.934l-1.328-.55.72-1.742 1.328.55-.72 1.742zm.614-2.654l-.955-.396a1.198 1.198 0 00-.726-1.268l-.175-.072a1.2 1.2 0 00-1.409.385l-.486-.2a3.97 3.97 0 00.366-1.663c0-.08-.007-.154-.011-.231l4.117 1.705-.72 1.74zM17.865 1.38a.94.94 0 011.229-.508l2.48 1.029a.944.944 0 01.51 1.237l-.267.684-4.221-1.748.269-.694zm-.568 1.436l4.22 1.748-.377.914-4.221-1.748.378-.914zm3.537 3.4l-.38.915-4.22-1.746.38-.915 4.22 1.747zm-8.791-3.018a3.2 3.2 0 110 6.4 3.2 3.2 0 010-6.4zM7.876 5.386l-4.22 1.746-.379-.914 4.22-1.748.38.916zm-.684-1.655l-4.22 1.747-.379-.915 4.22-1.748.379.916zm-5.167-.6a.936.936 0 01.512-1.23l2.48-1.03a.94.94 0 011.225.5l.273.702-4.22 1.748-.27-.692z"/></g><defs><clipPath id="clip0"><path fill="#fff" d="M0 0h24v24H0z"/></clipPath></defs></symbol><symbol fill="none" xmlns="http://www.w3.org/2000/svg" viewBox="0 0 24 24" id="money"><g clip-path="url(#clip0)" fill="#fff"><path d="M3.988 21.325a.472.472 0 00-.663 0 .472.472 0 00.331.8.472.472 0 00.47-.469.472.472 0 00-.138-.331zm18.021-12.75a.471.471 0 00-.663 0 .472.472 0 000 .663.472.472 0 00.663 0 .47.47 0 000-.663z"/><path d="M23.863.137A.47.47 0 0023.53 0H12a.469.469 0 00-.47.47v1.34L7.088 3a.469.469 0 00-.331.575l2.303 8.594-1.993 1.992a1.406 1.406 0 00-1.16-.614h-4.5C.63 13.547 0 14.178 0 14.953v7.64C0 23.37.631 24 1.407 24h4.5c.658 0 1.212-.455 1.364-1.068l.558.486c.43.375.981.582 1.552.582h14.15c.259 0 .469-.21.469-.469V.47a.47.47 0 00-.137-.332zM6.375 22.594a.47.47 0 01-.468.468h-4.5a.47.47 0 01-.47-.468v-7.64a.47.47 0 01.47-.47h1.78v5.4a.469.469 0 00.938 0v-5.4h1.782a.47.47 0 01.468.47v7.64zm1.409-18.81L11.53 2.78v1.737l-.314.085a.469.469 0 00-.331.574c.18.672-.22 1.365-.893 1.545a.469.469 0 00-.33.575l1.826 6.766h-.94l-.485-1.896A.468.468 0 009.985 12L7.784 3.785zm3.747 2.883v3.955l-.855-3.165c.357-.185.65-.46.855-.79zm6.735 16.396H9.38c-.344 0-.677-.125-.936-.351l-1.132-.988v-6.483l2.046-2.046.371 1.452a.47.47 0 00.454.353H19.4a.657.657 0 010 1.313h-4.722a.469.469 0 000 .937h6.19a.657.657 0 010 1.313h-6.19a.469.469 0 000 .937h5.186a.657.657 0 010 1.313h-5.186a.469.469 0 000 .937h3.588a.657.657 0 010 1.313zm4.796 0h-3.345a1.584 1.584 0 000-1.313h.148a1.595 1.595 0 001.424-2.307 1.596 1.596 0 001.172-1.537c0-.355-.117-.684-.314-.95v-5.94a.469.469 0 00-.938 0v5.334a1.59 1.59 0 00-.342-.037h-.015a1.596 1.596 0 00-1.452-2.25h-.753A2.246 2.246 0 0020.009 12a2.246 2.246 0 00-2.244-2.243A2.246 2.246 0 0015.522 12c0 .924.562 1.72 1.362 2.063h-2.562V5.15a2.207 2.207 0 001.68-1.68h3.527a2.207 2.207 0 001.68 1.68v1.457a.469.469 0 00.938 0V4.731a.469.469 0 00-.47-.468A1.263 1.263 0 0120.417 3a.469.469 0 00-.469-.468h-4.363a.469.469 0 00-.469.468c0 .696-.566 1.263-1.262 1.263a.469.469 0 00-.469.468v9.332h-.915V.938h10.593v22.125zm-5.296-9.757c-.72 0-1.306-.586-1.306-1.306 0-.72.586-1.306 1.306-1.306a1.307 1.307 0 010 2.612z"/></g><defs><clipPath id="clip0"><path fill="#fff" d="M0 0h24v24H0z"/></clipPath></defs></symbol><symbol fill="none" xmlns="http://www.w3.org/2000/svg" viewBox="0 0 24 24" id="pc"><path d="M22.125 2.625H1.875c-.621 0-1.124.504-1.125 1.125v13.5c0 .621.504 1.124 1.125 1.125H10.5v.75H9A1.877 1.877 0 007.125 21c0 .207.168.375.375.375h9a.375.375 0 00.375-.375A1.877 1.877 0 0015 19.125h-1.5v-.75h8.625c.621 0 1.124-.504 1.125-1.125V3.75c0-.621-.504-1.124-1.125-1.125zM15 19.875c.477 0 .901.3 1.06.75H7.94c.159-.45.583-.75 1.06-.75h6zm-3.75-.75v-.75h1.5v.75h-1.5zM22.5 17.25a.375.375 0 01-.375.375H1.875a.375.375 0 01-.375-.375v-1.125h21v1.125zm0-1.875h-21V3.75c0-.207.168-.375.375-.375h20.25c.207 0 .375.168.375.375v11.625z" fill="#fff"/><path d="M20.625 10.125h-4.5a.375.375 0 00-.375.375V12c0 .207.168.375.375.375h.973l-.221 2.213a.375.375 0 00.598.337l1.183-.887.53.795a.375.375 0 00.624-.416l-.44-.66 1.326-.264a.375.375 0 00.152-.668l-.6-.45h.375A.375.375 0 0021 12v-1.5a.375.375 0 00-.375-.375zm-3.452 1.5H16.5v-.75h.748l-.075.75zm1.352 1.575l-.817.612.224-2.238 1.797 1.348-1.048.21a.425.425 0 00-.156.068zm1.725-1.575h-1l-1-.75h2v.75zm-6.375-6.75H12a.375.375 0 000 .75h1.875a.375.375 0 000-.75zm0 1.5h-3.75a.375.375 0 000 .75h3.75a.375.375 0 000-.75zm0 1.5h-3.75a.375.375 0 000 .75h3.75a.375.375 0 000-.75zM5.5 11.606a.375.375 0 00.232 0A5.239 5.239 0 007.51 10.5c.785-.74 1.676-2.062 1.456-4.164a.375.375 0 00-.173-.279L5.816 4.182a.375.375 0 00-.4 0L2.44 6.057a.375.375 0 00-.173.279 6.11 6.11 0 00.237 2.17c.459 1.538 1.494 2.61 2.996 3.1zM3.003 6.59l2.613-1.646 2.62 1.65c.099 1.351-.311 2.475-1.22 3.342-.41.387-.886.698-1.407.916-1.198-.428-1.998-1.281-2.38-2.535a5.566 5.566 0 01-.226-1.727z" fill="#fff"/><path d="M5.25 9.375h.02a.375.375 0 00.273-.14l1.5-1.876a.375.375 0 10-.586-.468L5.22 8.438l-.454-.453a.375.375 0 00-.53.53l.75.75c.07.07.166.11.265.11zm13.875-5.25c-.254 0-.506.037-.75.11a2.625 2.625 0 100 5.03 2.625 2.625 0 10.75-5.14zM15.75 6.75c.001-.892.63-1.66 1.503-1.838a2.62 2.62 0 000 3.676A1.878 1.878 0 0115.75 6.75zm3.375 1.875a1.875 1.875 0 110-3.75 1.875 1.875 0 010 3.75z" fill="#fff"/><path d="M19.875 6a.375.375 0 00-.375-.375h-.375a.75.75 0 100 1.5h-.375a.375.375 0 000 .75h.375a.75.75 0 100-1.5h.375A.375.375 0 0019.875 6zM10.5 5.625a.375.375 0 100-.75.375.375 0 000 .75zm3.375 3.75H9.75a.375.375 0 000 .75h4.125a.375.375 0 000-.75zm0 1.5H9a.375.375 0 000 .75h4.875a.375.375 0 000-.75zm0 1.5h-10.5a.375.375 0 000 .75h10.5a.375.375 0 000-.75zm0 1.5h-10.5a.375.375 0 000 .75h10.5a.375.375 0 000-.75z" fill="#fff"/></symbol><symbol xmlns="http://www.w3.org/2000/svg" viewBox="0 0 26 26" id="phone"><path d="M11.286 14.618a13.888 13.888 0 005.046 3.266l2.57-2.045a.457.457 0 01.518 0l4.773 3.075a1.364 1.364 0 01.225 2.168l-2.236 2.209a2.728 2.728 0 01-2.475.73 23.925 23.925 0 01-11.693-6.137 23.038 23.038 0 01-6.32-11.475 2.577 2.577 0 01.75-2.42L4.76 1.752a1.364 1.364 0 012.128.218l3.177 4.712a.43.43 0 010 .511L7.973 9.71a13.465 13.465 0 003.313 4.91z" fill="currentColor"/></symbol><symbol fill="none" xmlns="http://www.w3.org/2000/svg" viewBox="0 0 49 49" id="comment"><path d="M32.556 10.039l-.782-1.587-.783 1.587a1.44 1.44 0 01-1.081.785l-1.75.254 1.266 1.235c.338.33.493.805.413 1.27l-.3 1.744 1.566-.823a1.437 1.437 0 011.336 0l1.566.823-.299-1.743c-.08-.466.074-.941.413-1.271l1.266-1.235-1.75-.254a1.435 1.435 0 01-1.08-.785z" fill="#B72032"/><path d="M45.172.096H18.375a3.828 3.828 0 00-3.828 3.828v15.312a3.828 3.828 0 003.828 3.828h9.57l2.634 3.951c.568.852 1.82.852 2.389 0l2.634-3.95h9.57A3.828 3.828 0 0049 19.235V3.924A3.828 3.828 0 0045.172.096zm-5.697 11.008l-2.81 2.738.664 3.867a1.436 1.436 0 01-2.083 1.513l-3.473-1.826-3.472 1.826a1.435 1.435 0 01-2.083-1.513l.663-3.867-2.809-2.738a1.436 1.436 0 01.796-2.449l3.882-.564 1.736-3.518a1.436 1.436 0 012.575 0l1.736 3.518 3.882.564a1.435 1.435 0 01.796 2.449z" fill="#B72032"/><path d="M28.19 28.608l-1.781-2.672h-8.034c-2.922 0-5.412-1.882-6.325-4.496l-.374-.094H3.828A3.828 3.828 0 000 25.174v15.312a3.828 3.828 0 003.828 3.829h9.57l2.634 3.95c.568.852 1.82.852 2.389 0l2.634-3.95h9.57a3.828 3.828 0 003.828-3.829V29.591a4.298 4.298 0 01-2.68.934 4.298 4.298 0 01-3.583-1.917zM5.742 25.652h4.785a1.436 1.436 0 010 2.871H5.742a1.436 1.436 0 110-2.87zm22.969 14.356H5.742a1.436 1.436 0 110-2.871h22.969a1.436 1.436 0 010 2.87zm0-5.742H5.742a1.436 1.436 0 110-2.871h22.969a1.436 1.436 0 010 2.87z" fill="#B72032"/></symbol><symbol fill="none" xmlns="http://www.w3.org/2000/svg" viewBox="0 0 49 49" id="motorcycle"><path d="M41.822 27.371c-1.176 0-2.27.312-3.251.815l-1.94-2.306c.86-.508 1.79-.9 2.774-1.12.802-.18 1.597-.246 2.425-.259a4.099 4.099 0 002.91-1.194c.822-.813 1.293-1.944 1.293-3.282 0-7.352-6.194-12.752-12.733-12.752h-1.622a1.435 1.435 0 100 2.872H33.3c.428 0 .835.073 1.249.126v2.774c-.834.076-1.619.334-2.362.68-.01-.011-.021-.018-.03-.03a7.16 7.16 0 00-2.93 2.517l-3.268 4.901a1.44 1.44 0 01-.977.622c-2.906.447-5.425 2.3-6.748 5.005 1.226 1.833 1.96 4.016 1.96 6.373h-2.967c0-4.75-3.864-8.613-8.614-8.613C3.863 24.5 0 28.364 0 33.113c0 4.75 3.864 8.614 8.613 8.614 3.738 0 6.895-2.408 8.085-5.743h13.544c.793 0 1.436-.642 1.436-1.435 0-.798.095-1.612.282-2.42.39-1.676 1.262-3.202 2.433-4.448l1.937 2.302c-1.036 1.245-1.685 2.823-1.685 4.566 0 3.957 3.22 7.178 7.177 7.178 3.958 0 7.178-3.22 7.178-7.178 0-3.958-3.22-7.178-7.178-7.178zM8.613 38.856a5.748 5.748 0 01-5.742-5.743 5.748 5.748 0 015.742-5.742 5.748 5.748 0 015.742 5.742H10.05a1.436 1.436 0 01-1.436-1.435 1.435 1.435 0 10-2.87 0 4.312 4.312 0 004.306 4.306h3.508c-.996 1.709-2.827 2.871-4.944 2.871zm33.21 0a4.312 4.312 0 01-4.307-4.307c0-.832.248-1.602.658-2.262l2.527 3.159a1.437 1.437 0 002.243-1.794l-2.524-3.156a4.252 4.252 0 011.402-.254 4.312 4.312 0 014.307 4.307 4.312 4.312 0 01-4.307 4.306z" fill="#B72032"/><path d="M24.379 18.309l2.46-3.69c.786-1.18 1.817-2.138 2.988-2.882-1.576-.995-3.392-1.592-5.327-1.592a10.076 10.076 0 00-8.37 4.501l2.297 1.378c1.845 1.107 3.864 1.848 5.952 2.285zm-7.429.177l-9.213-5.47H1.436C.642 13.016 0 13.658 0 14.45c0 3.958 3.22 7.178 7.178 7.178 2.871 0 5.85.062 9.041 2.837.013-.023.013-.049.027-.071 1.113-1.79 2.686-3.18 4.488-4.155-1.305-.477-2.583-1.034-3.785-1.754z" fill="#B72032"/></symbol><symbol fill="none" xmlns="http://www.w3.org/2000/svg" viewBox="0 0 69 50" id="youtube_2"><path d="M69 19.139c0-1.511-.252-3.274-.252-5.289a348.8 348.8 0 00-.755-5.792c-.504-2.014-1.26-3.525-2.77-4.784-1.26-1.26-3.022-2.015-4.785-2.267C54.646.252 46.084 0 34.5 0S14.102.252 8.562 1.007c-1.763.252-3.525 1.008-4.785 2.267-1.259 1.259-2.266 2.77-2.77 4.784C.504 9.821.252 11.584.252 13.85 0 15.865 0 17.628 0 19.14v11.584c0 1.51.252 3.273.252 5.288.252 2.015.503 4.03.755 5.792.504 2.015 1.26 3.526 2.77 4.785 1.26 1.259 3.022 2.014 4.785 2.266 5.792.755 14.354 1.007 25.938 1.007s20.398-.252 25.938-1.007c1.763-.252 3.526-1.007 4.785-2.266 1.259-1.26 2.266-2.77 2.77-4.785.503-1.763.755-3.526.755-5.792.252-2.015.252-3.777.252-5.288V19.138zm-21.153 7.806l-19.894 12.34c-.252.252-.756.503-1.26.503-.503 0-.755 0-1.259-.252-.755-.503-1.259-1.259-1.259-2.266V12.34c0-1.008.504-1.763 1.26-2.267a2.287 2.287 0 012.518 0l19.894 12.34c.755.503 1.259 1.259 1.259 2.014 0 .756-.504 2.015-1.26 2.518z" fill="#B72032"/></symbol><symbol fill="none" xmlns="http://www.w3.org/2000/svg" viewBox="0 0 49 49" id="bike"><path d="M41.929 25.392a7.068 7.068 0 00-5.814 3.052l-1.84-.789v-1.154l5.766-2.392 1.48-3.413h.68l3.41 4.051a.664.664 0 00.939.08.666.666 0 00.08-.937l-2.689-3.194h.428a.665.665 0 100-1.33h-1l.87-.413a.832.832 0 00.4-1.102l-.502-1.082a.832.832 0 00-.748-.481l-9.232-.084h-.007a.832.832 0 00-.61.265c-.016.018-1.902 1.971-5.382 2.424a7.829 7.829 0 00-1.152-1.608c-1.338-1.435-3.097-2.194-5.086-2.194a8.69 8.69 0 00-1.249.093c-.098.015-2.42.377-5.635 1.278a2.777 2.777 0 01-.148.004c-.368 0-1.264-.066-1.613-.675a1.16 1.16 0 01-.072-.152l1.538-.28a.79.79 0 00-.282-1.555l-1.24.225c.19-.782.62-1.852 1.476-3.31a.832.832 0 00-1.01-1.2c-.093.035-2.282.876-4.268 2.952-1.272 1.329-2.621 3.352-3.045 6.183.113-.22.253-.433.429-.632 0 0 2.271 1.483.99 3.629H6.285c.036.436.093.885.173 1.35a.833.833 0 00.257.471l1.858 1.707c-6.11-.82-8.306 3.145-8.306 3.145-.459.61-.228 1.268.511.919A7.024 7.024 0 000 32.463c0 3.9 3.172 7.072 7.071 7.072a7.08 7.08 0 007.072-7.072c0-.29-.02-.574-.054-.854h8.64l-3.41-2.543s-4.048.391-6.935-2.751c.302-.015.631-.025.982-.025 2.341 0 5.601.421 7.832 2.429a.84.84 0 00.091.071l7.654 5.159a.83.83 0 001.053-.102l3.084-3.084 1.838.788c-.038.299-.06.603-.06.912 0 3.9 3.172 7.072 7.07 7.072A7.08 7.08 0 0049 32.463a7.08 7.08 0 00-7.071-7.071zm-7.654-1.715l5.21-2.47-.703 1.623-4.507 1.87v-1.023zM7.071 36.207a3.748 3.748 0 01-3.743-3.744A3.748 3.748 0 017.33 28.73l-1.548 3.192 2.994 1.453 1.431-2.952a3.72 3.72 0 01.608 2.04 3.748 3.748 0 01-3.744 3.744zm34.858 0a3.749 3.749 0 01-3.71-3.242l2.833 1.213 1.31-3.06-3.067-1.313a3.731 3.731 0 012.634-1.086 3.748 3.748 0 013.743 3.744 3.748 3.748 0 01-3.743 3.744z" fill="#B72032"/></symbol><symbol xmlns="http://www.w3.org/2000/svg" viewBox="0 0 20 14" id="arrow"><path fill-rule="evenodd" clip-rule="evenodd" d="M.375 7a.687.687 0 01.688-.687h16.215L12.95 1.987a.688.688 0 11.973-.974l5.5 5.5a.685.685 0 010 .974l-5.5 5.5a.688.688 0 11-.973-.974l4.327-4.325H1.063A.688.688 0 01.375 7z" fill="currentColor"/></symbol><symbol fill="none" xmlns="http://www.w3.org/2000/svg" viewBox="0 0 155 63" id="logo_black"><path d="M68 27.18l.414-.52c.352.472.837.876 1.57.876 1.076 0 1.748-.746 1.748-1.81v-5.599h.673v5.6c0 1.641-1.076 2.423-2.385 2.423-.85 0-1.5-.295-2.02-.97zm16.52.828l-.781-1.936h-4.172l-.779 1.936h-.781l3.225-7.881h.837l3.225 7.88h-.774zm-2.86-7.158l-1.864 4.605h3.722L81.66 20.85zm9.515 7.158v-7.881h2.954c1.512 0 2.374 1.063 2.374 2.304 0 1.24-.872 2.304-2.374 2.304H91.85v3.273h-.675zm4.618-5.575c0-.992-.685-1.69-1.738-1.69h-2.207v3.38h2.207c1.056 0 1.738-.71 1.738-1.69zm11.618 5.575l-.779-1.936h-4.171l-.779 1.936h-.779l3.225-7.881h.837l3.225 7.88h-.779zm-2.859-7.158l-1.865 4.605h3.722l-1.857-4.605zm15.15 7.158l-4.961-6.77v6.77h-.675v-7.881h.685l4.938 6.675v-6.675h.672v7.88h-.659zm7.337 0v-7.881h4.999v.614h-4.324v2.918h4.24v.614h-4.24v3.118h4.324v.614h-4.999v.003zm10.946-1.109l.437-.508c.507.579 1.334 1.147 2.468 1.147 1.606 0 2.068-.898 2.068-1.573 0-2.316-4.724-1.111-4.724-3.862 0-1.289 1.157-2.103 2.588-2.103 1.169 0 2.068.414 2.669 1.111l-.449.498c-.566-.685-1.37-.995-2.256-.995-1.05 0-1.842.604-1.842 1.454 0 2.02 4.725.91 4.725 3.851 0 1.015-.673 2.233-2.799 2.233-1.304-.002-2.284-.533-2.885-1.253zm12.017 1.109v-7.881H155v.614h-4.324v2.918h4.24v.614h-4.24v3.118H155v.614h-4.998v.003zm-67.74 12.044l.921-1.312a3.461 3.461 0 002.504 1.076c.934 0 1.37-.413 1.37-.873 0-1.37-4.536-.413-4.536-3.377 0-1.312 1.134-2.398 2.989-2.398 1.25 0 2.29.379 3.07 1.1l-.934 1.25c-.637-.591-1.487-.863-2.291-.863-.708 0-1.111.307-1.111.78 0 1.24 4.523.4 4.523 3.343 0 1.441-1.037 2.527-3.153 2.527-1.523-.002-2.609-.51-3.352-1.253zm12.346 1.108v-7.877h3.684c1.713 0 2.647 1.157 2.647 2.54 0 1.37-.944 2.527-2.647 2.527h-2.007v2.81h-1.677zm4.62-5.337c0-.663-.507-1.064-1.17-1.064h-1.77v2.114h1.77c.663 0 1.17-.401 1.17-1.05zm7.483 5.337v-7.877h1.677v7.878h-1.677zm12.41 0l-1.548-2.8h-1.228v2.8h-1.677v-7.877h3.684c1.641 0 2.659 1.075 2.659 2.54 0 1.382-.886 2.138-1.738 2.339l1.784 2.999h-1.936zm.165-5.35c0-.65-.508-1.05-1.17-1.05h-1.771v2.126h1.771c.662 0 1.17-.404 1.17-1.076zm7.695 5.35v-7.877h1.677v7.878h-1.677zm9.776 0v-6.4h-2.304v-1.477h6.285v1.476h-2.294v6.402h-1.687z" fill="#2C2C2C"/><ellipse cx="31.551" cy="31.492" rx="31.449" ry="31.452" fill="#fff"/><path d="M2.09 28.59c1.745.296 2.831-4.214 3.127-5.432-5.926.198-4.97 5.136-3.127 5.432z" fill="#B72032"/><path d="M15.828 51.787c.383-1.47 1.059-5.527 1.294-7.203-.353 2.293-2.322 6.145-4.762 5.938-6.057-.558-2.999-12.143-2.852-13.377-3.616-2.588-3.321-6.262-1.734-7.733 1.969-1.794 6.233-1.588 6.35.293.108 1.578-.537 3.986-.937 6.27 2.293-.53 2.638-2.45 2.823-3.484.226-1.269.226-3.774-2.313-6.315-1.282-1.282-3.06-1.967-4.463-2.328-.395 1.679-.856 3.292-1.415 4.313-2.492 4.78-6.605 2.454-7.568-.661A31.82 31.82 0 000 31.497c0 9.758 4.438 18.48 11.404 24.257-.116-1.433 1.025-3.124 4.424-3.967zM7.183 11.471A31.406 31.406 0 00.965 23.727c.838-.946 2.297-1.675 4.582-1.919.722-3.373 1.233-6.887 1.636-10.337z" fill="#B72032"/><path d="M8.272 30.06c-1.087 1.206-.97 3.911 1.558 5.262-.029.088.646-3.557.676-3.645.736-2.97-1-2.97-2.234-1.617zm19.595 8.26c-2.675 1.06-3.616 8.528-1.999 9.322 3.322 1.618 4.762-10.438 1.999-9.321z" fill="#B72032"/><path d="M54.629 46.878c-1.118 2.44-2.94 4.234-5.38 3.968a2.26 2.26 0 01-1.308-.595c-6.544 2.554-9.295-2.965-7.755-10.93a2.49 2.49 0 01-1.587.177c-.207 2.823-1 7.85-2.94 9.82-2.324 2.352-4.999.177-5.91-2.38-1.117 2.41-2.94 4.175-5.35 3.91-4.144-.411-3.91-11.82 1.206-14.437 1.557-.793 3.233-.764 4.264.588.028.059.058.089.086.147.117-.412.237-.794.354-1.206 2.645.823 3.292 1.324 3.204 1.706-3.558 14.995 3.646 13.524 4.469 1.646-1.617-.765-2.558-3.234-1.088-6.322l2.557 1.47c-1.999 5.558 1.088 4.97 1.47 1.941.44.117 3.38.97 3.233 1.676-1.919 8.057-1.3 12.707 3.217 11.51-2.005-3.13-1.065-11.035 3.083-13.156 1.558-.793 3.233-.764 4.263.588.028.03.058.089.088.118.676-3.145 1.676-6.526 2.44-8.497 2.647.853 3.058 1.883 2.97 2.264-.765 2.91-1.852 6.38-2.44 9.702-.62 3.608-.54 6.259.417 7.635a31.35 31.35 0 004.803-16.722C62.995 14.103 48.893 0 31.498 0a31.362 31.362 0 00-19.349 6.643c.363 2.964 1.893 10.525 2.716 12.599.33.79 6.946-8.296 8.198-12.05.362-1.153 4.28 1.548 4.148 2.238 0 0-2.304 10.667-2.106 15.869.208 5.06 2.192 4.362 4.735 3.207-1.525-3.521-.554-10.014 3.5-12.082 1.694-.877 3.564-.936 4.791.35.35.41.672.876.906 1.461-7.129-2.834-8.268 10.93-4.5 10.461 2.689-.35 4.12-4.762 3.653-6.749-3.8-.117-2.017-3.857-.03-3.04 2.221.936 1.403 4.558.847 6.371-.964 3.07-3.126 5.699-6.341 5.552-.97-.042-1.75-.572-2.326-1.407-5.84 3.088-9.515.906-9.352-6.263.066-2.437.33-4.51.823-7.802-1.218 1.283-6.75 9.91-8 6.518-1.35-3.687-2.172-7.11-2.665-9.218-.495 3.16-.955 6.387-1.58 9.581l-.006.012c1.624.41 3.727 1.213 5.29 2.776 3.063 3.064 3.047 6.174 2.765 7.754-.121.677-.372 2.085-1.372 3.231-.816.937-1.937 1.497-3.348 1.675l-.07.384c-.822 3.087-1.465 9.779.123 10.307 4.057 1.294 5.763-15.935 5.763-18.67 1.882.383 3.499.795 3.499 1.176-.383 6.763-1.53 14.907-3.117 21.522-1.063 3.865-2.823 5.454-4.392 5.743A31.341 31.341 0 0031.498 63c10.521 0 19.836-5.16 25.556-13.087-1.111-.58-1.922-1.628-2.425-3.035zM41.43 15.984a78.264 78.264 0 011.52-4.85c2.658.846 3.067 1.87 2.95 2.25a358.16 358.16 0 01-.789 2.922c1.081.03 2.22-.029 3.215-.234l.058 1.286c-1.14.234-2.397.234-3.594.117a38.133 38.133 0 00-.936 4.267c-.933 6.233.394 9.31 5.042 7.412-1.97-3.304-1.148-10.527 3.17-12.731 1.695-.878 3.565-.936 4.793.35.35.409.672.876.905 1.461-7.129-2.834-8.268 10.93-4.5 10.461 2.689-.35 4.12-4.763 3.653-6.75-3.8-.116-2.017-3.856-.029-3.039 2.22.936 1.403 4.558.848 6.37-.964 3.07-3.126 5.7-6.342 5.552-.823-.036-1.507-.422-2.049-1.047-6.7 3.242-9.82-1.383-8.939-8.713.147-1.314.439-2.775.819-4.178-.877-.234-1.431-.409-1.431-.409l-.03-.79c.001 0 .673.148 1.666.293z" fill="#B72032"/><path d="M12.595 56.14c.47.587 1.91.086 2.97-3.384-2.97.943-3.47 2.737-2.97 3.383zm40.122-17.82c-2.676 1.06-3.617 8.527-2 9.322 3.323 1.617 4.852-10.468 2-9.322z" fill="#B72032"/></symbol><symbol fill="none" xmlns="http://www.w3.org/2000/svg" viewBox="0 0 100 100" id="scooter"><g clip-path="url(#clip0)" fill="#B72032"><path d="M85.417 56.9c-8.041 0-14.583 6.542-14.583 14.584 0 8.041 6.542 14.583 14.583 14.583 8.042 0 14.584-6.542 14.584-14.583 0-8.042-6.542-14.584-14.584-14.584zm0 20.834a6.258 6.258 0 01-6.25-6.25 6.258 6.258 0 016.25-6.25 6.258 6.258 0 016.25 6.25 6.258 6.258 0 01-6.25 6.25zM36.615 66.621a2.075 2.075 0 00-1.962-1.387H22.915a6.258 6.258 0 016.25 6.25 6.258 6.258 0 01-6.25 6.25 6.258 6.258 0 01-6.25-6.25 6.258 6.258 0 016.25-6.25H11.182c-.883 0-1.67.554-1.962 1.387-.6 1.683-.888 3.27-.888 4.863 0 8.041 6.542 14.583 14.583 14.583 8.042 0 14.584-6.542 14.584-14.583 0-1.592-.288-3.18-.884-4.863zm7.134-30.554H14.582a6.258 6.258 0 00-6.25 6.25 6.258 6.258 0 006.25 6.25h29.167a6.258 6.258 0 006.25-6.25 6.258 6.258 0 00-6.25-6.25zm21.639 4.325a2.09 2.09 0 00-2.725 1.12l-10.416 25a2.084 2.084 0 003.845 1.605l10.417-25a2.084 2.084 0 00-1.12-2.725z"/><path d="M42.763 53.476a2.082 2.082 0 00-1.596-.742H14.583c-2.42 0-4.72-.858-6.654-2.483a2.088 2.088 0 00-2.858.166c-.396.417-.767.846-1.113 1.267C1.404 54.826 0 58.897 0 63.15a6.258 6.258 0 006.25 6.25h33.333a2.08 2.08 0 002.075-1.909c.005-.066.567-6.633 1.563-12.316a2.094 2.094 0 00-.458-1.7zm27.841-34.859a3.538 3.538 0 00-2.666 4.591l.008.021a3.536 3.536 0 003.359 2.421H75l2.084-8.333-6.48 1.3z"/><path d="M78.59 15.88a2.086 2.086 0 00-1.916-.605l-6.483 1.296a5.624 5.624 0 00-4.225 7.317 5.62 5.62 0 005.337 3.846H75c.954 0 1.788-.65 2.021-1.58l2.084-8.333a2.08 2.08 0 00-.513-1.942zm-5.216 7.687h-2.07c-.63 0-1.188-.404-1.392-1.021a1.426 1.426 0 01.12-1.192 1.44 1.44 0 01.976-.7l3.254-.65-.888 3.563z"/><path d="M85.416 48.567c-4.504 0-6.304-4.687-6.42-4.987l-11.01-25.688c-1.266-2.962-4.445-4.537-7.587-3.762a6.538 6.538 0 00-4.137 3.191 6.55 6.55 0 00-.471 5.209l2.079 6.241 5.7-3.42a2.085 2.085 0 012.858.712 2.085 2.085 0 01-.712 2.858l-6.492 3.896 3.384 10.154c.079.234.196.45.346.642l3.733 4.67c1.808 2.26 1.854 5.4.117 7.647-1.18 1.52-2.13 3.096-2.83 4.679a6.228 6.228 0 00.488 5.937 6.248 6.248 0 005.246 2.85h3.208c1.15 0 2.084-.933 2.084-2.083 0-.43-.159-.804-.384-1.134l9.096-6.062c.363.541.942.929 1.646.95 4.2.129 11.583 0 13.733-2.088.588-.57.909-1.312.909-2.079 0-4.291-8.217-8.333-14.584-8.333z"/><path d="M64.284 22.492a2.081 2.081 0 00-2.858-.713l-10.417 6.25a2.086 2.086 0 001.075 3.871c.367 0 .738-.096 1.071-.3l10.417-6.25a2.087 2.087 0 00.712-2.858zM54.167 65.234H39.583a2.084 2.084 0 000 4.166h14.584a2.084 2.084 0 000-4.166z"/></g><defs><clipPath id="clip0"><path fill="#fff" d="M0 0h100v100H0z"/></clipPath></defs></symbol><symbol fill="none" xmlns="http://www.w3.org/2000/svg" viewBox="0 0 100 100" id="bike_2"><path d="M14.431 51.82c4.912 0 9.256 2.468 11.864 6.228l3.756-1.61v-2.354l-11.766-4.882-3.021-6.965h-1.388l-6.961 8.267a1.356 1.356 0 01-1.914.165 1.358 1.358 0 01-.164-1.914l5.487-6.518h-.873a1.358 1.358 0 110-2.716h2.04l-1.777-.843a1.698 1.698 0 01-.812-2.248l1.023-2.207c.276-.595.87-.977 1.525-.983l18.841-.171h.015a1.7 1.7 0 011.243.54c.035.038 3.884 4.023 10.985 4.948a15.965 15.965 0 012.352-3.282c2.731-2.93 6.32-4.477 10.378-4.477a17.723 17.723 0 012.55.19c.2.03 4.94.768 11.5 2.608.072.004.175.008.302.008.752 0 2.58-.135 3.292-1.378.051-.09.1-.193.147-.31l-3.139-.57a1.613 1.613 0 01.577-3.174l2.529.459c-.387-1.597-1.266-3.78-3.013-6.757a1.698 1.698 0 012.064-2.448c.188.07 4.656 1.789 8.71 6.025 2.594 2.712 5.348 6.84 6.213 12.619a6.221 6.221 0 00-.875-1.29s-4.636 3.025-2.02 7.405h3.07c-.074.89-.188 1.807-.352 2.755-.064.37-.249.708-.525.962l-3.791 3.483c12.467-1.672 16.95 6.42 16.95 6.42.936 1.244.465 2.586-1.043 1.873a14.335 14.335 0 011.59 6.573c0 7.958-6.474 14.432-14.431 14.432-7.958 0-14.431-6.474-14.431-14.432 0-.59.04-1.172.108-1.744H53.614l6.96-5.188s8.261.798 14.155-5.616c-.617-.03-1.29-.05-2.005-.05-4.779 0-11.431.86-15.984 4.957a1.727 1.727 0 01-.187.145l-15.62 10.528a1.693 1.693 0 01-2.149-.208l-6.293-6.293-3.752 1.607c.08.61.124 1.23.124 1.862 0 7.958-6.473 14.432-14.43 14.432C6.473 80.683 0 74.209 0 66.25s6.474-14.432 14.431-14.432zm15.62-3.5l-10.634-5.042 1.437 3.313 9.197 3.817V48.32zm55.518 25.571c4.213 0 7.64-3.427 7.64-7.64 0-4.213-3.428-7.64-7.64-7.64a7.72 7.72 0 00-.529.02l3.161 6.516-6.11 2.964-2.922-6.024a7.591 7.591 0 00-1.24 4.164c0 4.213 3.427 7.64 7.64 7.64zm-71.138 0c3.866 0 7.068-2.886 7.57-6.617l-5.78 2.476-2.674-6.242 6.258-2.681a7.614 7.614 0 00-5.374-2.216c-4.212 0-7.64 3.427-7.64 7.64 0 4.213 3.428 7.64 7.64 7.64z" fill="#B72032"/></symbol><symbol xmlns="http://www.w3.org/2000/svg" viewBox="0 0 18 17" id="star_full"><path d="M16.736 5.896l-4.96-.72L9.56.682a.628.628 0 00-1.121 0L6.222 5.176l-4.959.72a.624.624 0 00-.345 1.067l3.587 3.498-.847 4.94a.624.624 0 00.906.657L9 13.726l4.435 2.332a.624.624 0 00.906-.658l-.847-4.94 3.588-3.497a.623.623 0 00.181-.358.623.623 0 00-.527-.709z" fill="currentColor"/></symbol><symbol xmlns="http://www.w3.org/2000/svg" viewBox="0 0 20 20" id="star_empty"><path d="M17.736 6.896l-4.96-.72-2.216-4.494a.628.628 0 00-1.121 0L7.222 6.176l-4.959.72a.624.624 0 00-.345 1.067l3.587 3.498-.847 4.94a.624.624 0 00.906.657L10 14.726l4.435 2.332a.624.624 0 00.906-.658l-.847-4.94 3.588-3.497a.623.623 0 00.181-.358.623.623 0 00-.527-.709zm-4.752 4.073l.705 4.107-3.69-1.937-3.689 1.939.705-4.107-2.984-2.91 4.125-.6L10 3.724l1.843 3.737 4.125.6-2.984 2.908z" fill="currentColor"/></symbol><symbol xmlns="http://www.w3.org/2000/svg" viewBox="0 0 20 20" id="calendare"><path d="M14.792 2.5A2.708 2.708 0 0117.5 5.208v.625h-15v-.625A2.708 2.708 0 015.208 2.5h9.584zM17.5 7.083v2.935a5.417 5.417 0 00-7.482 7.482h-4.81A2.708 2.708 0 012.5 14.792V7.083h15z" fill="currentColor"/><path d="M19.167 14.583a4.583 4.583 0 10-9.167 0 4.583 4.583 0 009.167 0zm-4.584 0h1.667a.416.416 0 110 .834h-2.083A.417.417 0 0113.75 15v-2.5a.417.417 0 11.833 0v2.083z" fill="currentColor"/></symbol><symbol xmlns="http://www.w3.org/2000/svg" viewBox="0 0 20 20" id="mail"><path d="M2.143 7.231l7.61 3.958a.536.536 0 00.494 0l7.61-3.957v6.875a2.322 2.322 0 01-2.19 2.318l-.131.004H4.464a2.322 2.322 0 01-2.317-2.19l-.004-.132V7.231zm2.322-3.66h11.07a2.321 2.321 0 012.319 2.19l.003.132v.131L10 10.11 2.143 6.024v-.131a2.321 2.321 0 012.19-2.318l.131-.004h11.072H4.465z" fill="currentColor"/></symbol><symbol xmlns="http://www.w3.org/2000/svg" viewBox="0 0 10 5" id="arrow-dropdown"><path d="M5 4.667a.667.667 0 01-.427-.154l-4-3.333A.667.667 0 111.427.153L5 3.14 8.573.26a.667.667 0 01.94.1.667.667 0 01-.093.973l-4 3.22a.667.667 0 01-.42.114z" fill="currentColor"/></symbol><symbol xmlns="http://www.w3.org/2000/svg" viewBox="0 0 30 30" id="type-3"><path d="M4.33 15.546c1.473 0 2.776.74 3.558 1.868l1.127-.483v-.706l-3.53-1.465-.906-2.089h-.416l-2.089 2.48a.407.407 0 11-.623-.525l1.646-1.955h-.262a.407.407 0 110-.815h.613l-.534-.253a.51.51 0 01-.244-.674l.308-.662a.51.51 0 01.457-.295l5.652-.052h.005a.51.51 0 01.373.163c.01.01 1.165 1.207 3.295 1.484.14-.259.368-.623.706-.985.82-.879 1.896-1.343 3.113-1.343.247 0 .503.019.761.056l.004.001c.06.01 1.482.23 3.45.783l.09.002c.226 0 .775-.04.988-.413a.709.709 0 00.044-.094l-.941-.17a.484.484 0 01.173-.953l.759.138c-.117-.48-.38-1.134-.904-2.027a.51.51 0 01.619-.734c.056.02 1.397.536 2.613 1.807a6.897 6.897 0 011.864 3.786 1.861 1.861 0 00-.263-.387s-1.39.907-.605 2.221h.92a9.386 9.386 0 01-.105.827.51.51 0 01-.158.288l-1.137 1.045c3.74-.501 5.085 1.926 5.085 1.926.28.373.14.776-.313.562.304.592.477 1.262.477 1.972a4.334 4.334 0 01-4.33 4.33 4.334 4.334 0 01-4.296-4.853h-5.29l2.088-1.557s2.478.24 4.246-1.684c-.185-.01-.387-.015-.601-.015-1.434 0-3.43.258-4.795 1.487a.516.516 0 01-.056.043l-4.686 3.159a.508.508 0 01-.645-.063l-1.888-1.888-1.126.482a4.334 4.334 0 01-4.292 4.888A4.334 4.334 0 010 19.876a4.334 4.334 0 014.33-4.33zm4.685-1.05l-3.19-1.513.431.994 2.76 1.145v-.626zm16.656 7.671a2.295 2.295 0 002.292-2.292 2.295 2.295 0 00-2.45-2.286l.947 1.955-1.833.89-.876-1.808c-.235.36-.372.788-.372 1.25a2.295 2.295 0 002.292 2.291zm-21.342 0c1.16 0 2.12-.866 2.271-1.985l-1.734.743-.802-1.873 1.878-.804a2.284 2.284 0 00-1.613-.665 2.295 2.295 0 00-2.292 2.292 2.295 2.295 0 002.292 2.292z" fill="currentColor"/></symbol><symbol xmlns="http://www.w3.org/2000/svg" viewBox="0 0 30 30" id="type-4"><g clip-path="url(#clip0)" fill="currentColor"><path d="M4.828 25.63a4.828 4.828 0 004.803-5.325l1.946-.341s.066-.088.545.393c.205.205.484.23.739.197a8.63 8.63 0 002.658.448c.917 0 1.928-.179 2.83-.741 1.378-.86 2.192-2.422 2.439-4.633a9.665 9.665 0 011.857-1.597l.531 1.583a4.826 4.826 0 001.996 9.222 4.829 4.829 0 000-9.656c-.364 0-.718.043-1.059.12l-.596-1.777c1.86-.948 3.4-.934 3.4-.934l.578.316 1.92.153c-1.156-1.342-5.717-1.102-5.717-1.102l.972-.164s-.033-1.047-.633-2.335c-.6-1.287-1.255-2.04-1.255-2.04a.718.718 0 00-.13.23c.01-.887.022-1.773.09-2.658.002-.012-.003-.02-.003-.032a.205.205 0 00-.119-.243c-.358-.175-.71-.322-1.113-.342-.11-.006-.21.08-.237.181a3.71 3.71 0 00-.107 1.415c-.04-.08-.078-.16-.121-.239-.067-.12-.184-.139-.284-.101-.113-.02-.241.024-.291.16-.081.222-.258.37-.267.627-.014.403.454.665.75.826.056.03.112.032.165.022.146.59.194 1.199.158 1.824-.9.585-.553 1.118-.553 1.118l-.164.278s-.852-1.211-3.633.59c-2.782 1.8-4.975.654-6.808 0-1.833-.655-8.576-.819-8.576-.819 3.317.502 4.78 3.23 4.78 3.23l-2.62-1.615c-1.156.11-.85 1.331-.85 1.331l4.822 2.946c.938-.35 2.007.698 2.007.698l1.004 1.768-1.375.391a4.827 4.827 0 10-4.479 6.626zm20.343-8.97a3.35 3.35 0 013.346 3.347 3.35 3.35 0 01-3.346 3.346 3.35 3.35 0 01-3.346-3.346c0-1.297.743-2.422 1.826-2.977l1.052 3.134a.495.495 0 00.937-.315l-1.052-3.134c.19-.033.384-.054.583-.054zm-3.427-9.829c.15-.117.296-.232.434-.353-.019.73-.023 1.462-.038 2.193-.131.048-.25.097-.36.146a6.293 6.293 0 00-.252-1.926c.07.01.147-.006.216-.06zm-5.258 7.721c2.302-.69 3.082.349 3.327.904-.203 1.927-.865 3.265-1.982 3.964-1.466.916-3.386.558-4.308.302.101-1.354.592-4.458 2.963-5.17zM4.829 17.455c1.35 0 2.511.804 3.04 1.957l-3.623 1.032.13.785 3.787-.665c.006.079.012.157.012.237a3.35 3.35 0 01-3.346 3.346 3.35 3.35 0 01-3.346-3.346 3.35 3.35 0 013.346-3.346z"/><path d="M19.214 16.31h-4.353l-.72 3.076c4.386.818 5.073-3.077 5.073-3.077z"/></g><defs><clipPath id="clip0"><path fill="#fff" d="M0 0h30v30H0z"/></clipPath></defs></symbol><symbol xmlns="http://www.w3.org/2000/svg" viewBox="0 0 30 30" id="type-5"><g clip-path="url(#clip0)" fill="currentColor"><path d="M25.002 13.754a5.006 5.006 0 00-4.998 4.998 5.003 5.003 0 004.998 4.998A5.003 5.003 0 0030 18.752a5.002 5.002 0 00-4.998-4.998zm0 8.748a3.753 3.753 0 01-3.75-3.75 3.753 3.753 0 013.75-3.75 3.754 3.754 0 013.75 3.75 3.753 3.753 0 01-3.75 3.75zM9.844 17.563a.626.626 0 00-.756-.457.626.626 0 00-.457.755c.082.334.117.616.117.891a3.753 3.753 0 01-3.75 3.75 3.753 3.753 0 01-3.75-3.75c0-1.47.873-2.812 2.22-3.416a.625.625 0 10-.509-1.143A5.007 5.007 0 000 18.752a5.003 5.003 0 004.998 4.998 5.004 5.004 0 005.004-4.998c0-.37-.053-.762-.158-1.19zM23.56 6.43a.632.632 0 00-.456-.176c-.446.012-4.354.205-4.354 2.502 0 2.297 3.908 2.485 4.354 2.502h.017a.62.62 0 00.621-.627v-3.75a.592.592 0 00-.181-.451z"/><path d="M19.576 7.532l-3.75-1.248a.625.625 0 00-.398 1.183l3.75 1.248c.07.024.134.035.199.035a.626.626 0 00.2-1.218zm5.971 10.916L20.549 9.7a.628.628 0 00-.856-.235.619.619 0 00-.234.85l4.998 8.748a.624.624 0 00.855.234.619.619 0 00.235-.85zm-16.172-.323l-.68-.176-1.945-1.3.059-.118a.624.624 0 10-1.12-.557l-1.248 2.502a.643.643 0 00.024.61.64.64 0 00.533.299h4.377a.628.628 0 00.627-.628.633.633 0 00-.627-.632z"/><path d="M20.18 9.447c-.182-.644-.662-.697-.803-.697-3.375 0-6.592 1.735-8.414 3.223a.61.61 0 00-.34-.1c-1.26 0-4.857-.61-4.893-.615a.601.601 0 00-.51.14.621.621 0 00-.222.475v.633c-2.039.059-3.387.416-4.008 1.06-.357.37-.369.727-.369.833a.626.626 0 00.627.597c2.531 0 8.273 3.533 10.272 4.893.105.07.222.111.351.111h5.004c2.121 0 3.387-8.261 3.387-9.732 0-.346-.03-.615-.082-.82z"/></g><defs><clipPath id="clip0"><path fill="#fff" d="M0 0h30v30H0z"/></clipPath></defs></symbol><symbol xmlns="http://www.w3.org/2000/svg" viewBox="0 0 30 30" id="type-6"><path d="M23.752 13.865a4.92 4.92 0 00-1.402.742l-2.438-2.772-1.089-1.238-.64-.73a2.16 2.16 0 00-.213.12c-.519-.67-1.087-1.27-1.872-1.664-1.062-.533-2.332-.197-3.427-.629-.699-.275-.998.842-.31 1.114.688.27 1.382.302 2.114.337 1.34.064 2.08.844 2.817 1.86a.608.608 0 00.16.153c-.064.175-.375.25-.375.25-1.186-2.903-3.7-.093-6.036 2.378-.692.08-1.341.275-1.804.752-.566.584-1.44 1.5-1.998.4-.23-.456-.712-.545-1.165-.606-.417-.055-.597.286-.544.612-2.004-1.248-4.54.678-4.54.678l.503.251A3.563 3.563 0 000 18.77c0 1.977 1.616 3.58 3.61 3.58a3.61 3.61 0 002.864-1.41c1.696.312 5.646.168 7.382.168 2.095 0 2.309-1.27 2.309-1.27s2.095-6.621 2.193-7.218c.097-.596.504.135.504.135l.64-.347s1.096 1.25 2.338 2.643c-.37.372-.684.801-.922 1.284a4.81 4.81 0 00-.242 3.709.484.484 0 10.916-.314 3.848 3.848 0 01.193-2.967c.183-.37.421-.702.7-.99l.225.25a3.666 3.666 0 00-1.054 2.573c0 2.04 1.668 3.695 3.726 3.695 2.057 0 3.725-1.655 3.725-3.695s-1.668-3.695-3.726-3.695c-.808 0-1.555.258-2.165.692l-.227-.258a3.947 3.947 0 011.07-.552c2.06-.69 4.302.406 4.999 2.446a.484.484 0 10.916-.313c-.869-2.543-3.66-3.912-6.222-3.051zM3.14 16.695a2.18 2.18 0 01.468-.054 2.16 2.16 0 011.579.689c.355.38.578.883.578 1.44 0 1.172-.968 2.126-2.157 2.126-1.19 0-2.158-.954-2.158-2.127 0-1.015.725-1.862 1.69-2.074zm4.018 2.704a3.534 3.534 0 00-.427-2.418l.137-.03c1.304 1.896.642 2.343.29 2.448zm18.222-3.046c1.254 0 2.274 1.006 2.274 2.242 0 1.237-1.02 2.243-2.274 2.243-1.253 0-2.273-1.006-2.273-2.242 0-.573.226-1.091.586-1.488.872.954 1.559 1.677 1.65 1.69.271.038.368-.366.368-.366l-1.526-1.735a2.268 2.268 0 011.195-.344z" fill="currentColor"/></symbol><symbol xmlns="http://www.w3.org/2000/svg" viewBox="0 0 30 30" id="type-7"><g clip-path="url(#clip0)" fill="currentColor"><path d="M25.605 14.56c-.44 0-.865.066-1.267.188l-1.047-1.945h.557a.879.879 0 00.879-.88V8.409a.88.88 0 00-1.233-.804l-2.427 1.068-.84-1.56a.879.879 0 00-.774-.462h-3.515a.879.879 0 00-.622.258l-1.758 1.758a.879.879 0 001.243 1.243l1.5-1.5h2.627l.525.974v1.686c-2.227.119-3.925.676-5.273 1.244v5.763h2.636c.58 0 1.132-.113 1.639-.318-.72 1.228-1.84 2.076-3.396 2.076H9.785a.879.879 0 000 1.758h5.274c4.014 0 6.152-3.853 6.152-7.91v-.88h.084l1.496 2.78a4.387 4.387 0 00-1.58 3.373 4.4 4.4 0 004.395 4.395A4.4 4.4 0 0030 18.955a4.4 4.4 0 00-4.395-4.394zm0 7.032a2.64 2.64 0 01-2.636-2.637c0-.681.26-1.302.685-1.77l1.178 2.187a.879.879 0 101.547-.834l-1.178-2.189a2.64 2.64 0 013.041 2.606 2.64 2.64 0 01-2.637 2.637z"/><path d="M12.422 18.076v-4.972c-1.572.712-2.5.97-3.951-.101-.364-.334-2.317-1.958-5.834-1.958a.879.879 0 000 1.758c2.383 0 3.835.87 4.394 1.288v1.35a4.371 4.371 0 00-2.636-.88A4.4 4.4 0 000 18.954a4.4 4.4 0 004.395 4.395A4.4 4.4 0 008.7 18.076h3.72zm-8.027 3.516a2.64 2.64 0 01-2.637-2.637 2.64 2.64 0 012.637-2.637 2.64 2.64 0 012.636 2.637 2.64 2.64 0 01-2.636 2.637z"/><path d="M4.395 19.834a.879.879 0 100-1.758.879.879 0 000 1.758z"/></g><defs><clipPath id="clip0"><path fill="#fff" d="M0 0h30v30H0z"/></clipPath></defs></symbol><symbol xmlns="http://www.w3.org/2000/svg" viewBox="0 0 30 30" id="type-1"><path d="M27.508 14.639c.547-.227.66-1.173-.066-1.362a5.136 5.136 0 00-1.677-.147c1.206-1.112 1.775-1.985.889-2.179-.77-.169-1.399-.466-1.966-.775.152-1.904.308-4.68-2.337-4.634-.924.017-.925 1.451 0 1.435 1.166-.02 1.113 1.371.992 2.452-.955-.471-1.896-.647-3.303.237-2.789 1.754-7.968 1.594-12.112-.318-4.143-1.913-4.223-.479-4.223-.479s-4.468 6.332-1.434 3.905c1.106-.885 2.747-.773 4.539-.152-2.06-.41-4.414.177-6.182 1.857-.448.425-.144 1.015.306 1.173A5.319 5.319 0 005.32 23.98a5.317 5.317 0 005.316-5.264c.393.05.81-.175.78-.683-.104-1.685-.75-3-1.707-3.926.022-.04.041-.08.062-.12 1.89 1.054 3.723 2.37 5.093 3.429a.6.6 0 00-.064.096l-.478.956c-.175.35-.096.774.257.98.32.189.807.093.981-.256l.438-.875c.732.597 1.174.99 1.174.99s.452-.282 1.161-.742c-.063.31-.1.63-.105.962-.01.703.813.87 1.216.505a5.316 5.316 0 108.065-5.393zm-22.19 7.907a3.89 3.89 0 01-3.884-3.885 3.889 3.889 0 013.885-3.884c.715 0 1.384.198 1.96.536a29.9 29.9 0 01-2.407 3.05c-.616.687.396 1.704 1.014 1.014a32.365 32.365 0 002.48-3.117c.523.662.837 1.494.837 2.4a3.89 3.89 0 01-3.884 3.886zm18.576-5.42c-.39-.45-.805-.878-1.222-1.305a3.89 3.89 0 011.131-.463c.026.59.053 1.178.09 1.767zm.788 5.898a3.889 3.889 0 01-3.885-3.885c0-.893.306-1.714.815-2.37 1 1.019 1.972 2.057 2.63 3.36.398.79 1.417.187 1.31-.553-.204-1.419-.274-2.848-.33-4.28a3.887 3.887 0 013.345 3.843 3.89 3.89 0 01-3.885 3.885z" fill="currentColor"/></symbol><symbol fill="none" xmlns="http://www.w3.org/2000/svg" viewBox="0 0 30 30" id="type-2"><g clip-path="url(#clip0)"><path d="M4.935 13.52a4.935 4.935 0 000 9.87c1.99 0 3.701-1.18 4.482-2.878l1.172.904s8.616.062 9.09-.206c0 0-1.07-2.92.287-4.154.143-.13.323-.278.52-.435a4.934 4.934 0 104.58-3.101c-.045 0-.088.006-.133.007.357-.232.584-.377.584-.377l-.37-.33s1.07-.246.823-.78c-.247-.535-2.837-3.743-2.837-3.743s.458-.987-.49-1.687l-.457.988s-1.161-.802-1.624-.648c-.463.154-1.156.231-1.373.57l-.215.201s-.061.355.293.88c0 0 3.562 1.094 3.732 1.896 0 0 .247.51-.818.632l-.215.278-.571.031-1.033-2.36s-.988.262-1.496.663l.077.4s-4.148-2.821-8.05 1.358c0 0-2.884.833-4.905-1.727 0 0-.03-.833-4.904-.679l.34.355s-.34.031-.478.247c-.139.216.077.447 1.187.447 0 0 2.515 2.868 4.442 2.699l2.745 1.327 1.219 2.081s.002.18.014.453l-.936.198a4.935 4.935 0 00-4.682-3.38zm20.13 1.512a3.426 3.426 0 013.423 3.423 3.426 3.426 0 01-3.423 3.422 3.426 3.426 0 01-3.422-3.422 3.426 3.426 0 013.422-3.423zm-20.13 6.846a3.427 3.427 0 01-3.423-3.422 3.426 3.426 0 013.423-3.423c1.45 0 2.69.909 3.187 2.186l-3.616.77.233 1.28 3.554-.157a3.426 3.426 0 01-3.358 2.766zm5.927-2.88c.101.342.233.615.406.732l-1.586.062c.068-.243.12-.493.15-.75l1.03-.044z" fill="currentColor"/></g><defs><clipPath id="clip0"><path fill="#fff" d="M0 0h30v30H0z"/></clipPath></defs></symbol><symbol xmlns="http://www.w3.org/2000/svg" viewBox="0 0 20 11" id="kawasaki"><g clip-path="url(#clip0)"><path d="M.03 3.951v2.563h5.854V3.586h1.142c.729 0 1.944.122 3.05.365 1.287.28 2.43.74 2.43 1.397 0 .546-.851 1.166-.876 1.166H20s-.206-.923-.644-1.53c-.28-.4-.631-.753-1.166-1.033-.462-.243-1.057-.437-1.87-.57v-.134c.376 0 1.384-.365 2.259-.948C19.757 1.51 19.975.04 19.975.04h-8.284s.692.57.692 1.093c0 1.093-3.91 1.92-5.332 1.92H5.885V.04H.029v3.911zm.05 4.875v-1.83h.993v.987l.878-.988h1.165L2.008 8.143l.442.684.787 1.21H2.043l-.735-1.21-.235.246v.965H.08V8.826z" fill="currentColor"/><path d="M3.484 8.826c.47-.19 1.16-.08 1.16-.356 0-.16-.195-.178-.287-.178-.126 0-.287.023-.31.213h-.844c0-.471.333-.741 1.206-.741 1.05 0 1.113.385 1.113.913v1.039c0 .126.006.19.12.281v.04H4.73l-.04-.235c-.247.235-.505.298-.833.298-.419 0-.792-.206-.792-.665 0-.339.184-.511.42-.609z" fill="currentColor"/><path d="M5.757 8.826l-.333-.999h.855l.247 1 .092.367.098-.368.253-.999h.746l.246 1 .092.367.092-.368.259-.999h.832l-.322 1-.384 1.21h-.855l-.322-1.21-.023-.087-.023.086-.293 1.212h-.86l-.397-1.212zm3.639 0c.466-.19 1.154-.08 1.154-.356 0-.16-.189-.178-.287-.178-.12 0-.287.023-.304.213h-.85c0-.471.34-.741 1.212-.741 1.045 0 1.108.385 1.108.913v1.039c0 .126.005.19.12.281v.04h-.907l-.046-.235c-.247.235-.5.298-.832.298-.414 0-.787-.206-.787-.665 0-.339.179-.511.42-.609zm2.28 0a.545.545 0 01-.098-.333c0-.568.586-.729 1.05-.729.483 0 1.045.11 1.097.695h-.798a.244.244 0 00-.086-.16.265.265 0 00-.178-.058c-.15 0-.247.051-.247.16 0 .219.695.178 1.103.425a.555.555 0 01.292.505c0 .46-.379.77-1.188.77-.505 0-1.068-.155-1.114-.752h.838c0 .092.035.16.092.206.057.04.132.064.218.064.132 0 .276-.04.276-.196 0-.298-.953-.149-1.257-.597zm2.589 0c.465-.19 1.154-.08 1.154-.356 0-.16-.196-.178-.287-.178-.12 0-.287.023-.31.213h-.844c0-.471.333-.741 1.211-.741 1.045 0 1.108.385 1.108.913v1.039c0 .126.006.19.12.281v.04h-.912l-.04-.235c-.247.235-.5.298-.833.298-.419 0-.792-.206-.792-.665 0-.339.184-.511.425-.609zm2.205 0v-1.83h.878v1.503l.562-.671h1.028l-.821.855.098.144.832 1.21h-1.056l-.477-.786-.167.167v.62h-.878V8.826zm2.628-.998v2.21h.879V7.827h-.879zm0-.913v.626h.879v-.626h-.879z" fill="currentColor"/><path d="M15.418 9.062c-.287.138-.665.069-.665.356 0 .11.103.184.275.184.31 0 .413-.241.39-.54zm-4.868 0c-.287.138-.665.069-.665.356 0 .11.103.184.281.184.304 0 .408-.241.384-.54zm-5.906 0c-.288.138-.666.069-.666.356 0 .11.103.184.275.184.31 0 .414-.241.39-.54z" fill="#fff"/></g><defs><clipPath id="clip0"><path fill="#fff" d="M0 0h20v10.101H0z"/></clipPath></defs></symbol><symbol xmlns="http://www.w3.org/2000/svg" viewBox="0 0 20 21" id="suzuki"><path d="M14.514 16.81C11.269 18.823 10 20.177 10 20.177L0 13.203s4.206-3.123 7.723-.731l4.716 3.263.574-.38-13.012-9.2s1.871-.547 5.484-2.787C8.732 1.353 10 0 10 0l10 6.974s-4.206 3.123-7.723.732L7.562 4.44l-.574.381 13.01 9.202s-1.87.545-5.484 2.787z" fill="currentColor"/></symbol><symbol xmlns="http://www.w3.org/2000/svg" viewBox="0 0 20 20" id="yamaha"><g clip-path="url(#clip0)"><path d="M10 0a10 10 0 100 20 10 10 0 000-20zm0 .475A9.522 9.522 0 0119.525 10c0 5.258-4.262 9.525-9.525 9.525C4.742 19.525.475 15.262.475 10 .475 4.742 4.742.475 10 .475zm0 .195a.194.194 0 00-.182.122l-.41 1.293A7.936 7.936 0 002.063 10c0 1.233.28 2.404.783 3.447l-.917 1.005a.2.2 0 00-.012.218.205.205 0 00.198.096l1.327-.294A7.933 7.933 0 0010 17.938a7.94 7.94 0 006.562-3.466l1.326.294a.196.196 0 00.192-.103.194.194 0 00-.013-.218l-.917-.998a7.936 7.936 0 00-6.557-11.362L10.181.789A.197.197 0 0010 .67zm-.002.208c.02 0 .04.017.046.036l.85 2.795a1 1 0 00-.4.798c0 .324.159.611.4.793h-.003c.363.272.598.705.598 1.19v.934l3.605-2.08.397.687-4.002 2.308v.804l.695.4 4.002-2.311.396.687-3.605 2.083.81.467c.424.245.682.665.736 1.115v-.003a.993.993 0 001.379.794l1.994 2.133c.017.017.017.04.006.059-.013.02-.033.027-.056.024l-2.844-.662a.995.995 0 00-1.375-.797l.002-.004c-.416.18-.909.166-1.333-.079l-.807-.466v4.161h-.793v-4.62l-.695-.4-.694.4v4.62h-.795v-4.16l-.81.462a1.487 1.487 0 01-1.333.08l.003.003a.993.993 0 00-1.375.798l-2.845.66a.045.045 0 01-.052-.023c-.013-.017-.01-.039.007-.056l1.997-2.133c.278.12.609.113.89-.053a.988.988 0 00.49-.741v.003c.052-.45.31-.87.733-1.114l.808-.467-3.606-2.08.398-.688 4.001 2.312.694-.404V8.34L4.511 6.032l.396-.689 3.605 2.08v-.931c0-.486.236-.92.6-1.191h-.004a.98.98 0 00.397-.793.997.997 0 00-.4-.798l.85-2.794c.007-.024.026-.037.043-.037zM10 5.797a.694.694 0 00-.694.694v1.392l.693.4.694-.4V6.491A.694.694 0 0010 5.797zM10 9.2l-.694.4v.803L10 10.8l.694-.4v-.8L10 9.2zm-2.183 1.263l-1.204.695a.694.694 0 000 1.203c.106.06.226.091.348.09a.691.691 0 00.346-.093l1.204-.695v-.8l-.695-.4zm4.369 0l-.694.4v.804l1.204.695a.695.695 0 00.694-1.204l-1.204-.695z" fill="currentColor"/></g><defs><clipPath id="clip0"><path fill="#fff" d="M0 0h20v20H0z"/></clipPath></defs></symbol><symbol xmlns="http://www.w3.org/2000/svg" viewBox="0 0 20 16" id="harley"><path fill-rule="evenodd" clip-rule="evenodd" d="M20 4.777h-4.246a.865.865 0 01.864-.814V2.064C12.694 1.927 10.858.647 10.014 0 9.17.647 7.328 1.927 3.406 2.064v1.9a.865.865 0 01.864.813H0v5.25h3.968c0 .167-.088.664-1.155.783.73.671 4.99 4.284 7.201 4.284 2.212 0 6.482-3.613 7.212-4.284-.997-.109-1.155-.546-1.155-.783H20v-5.25zM3.84 3.64V2.455C7.39 2.27 9.142 1.205 10.014.55c.936.664 2.62 1.72 6.17 1.904l-.002 1.184c-.483.174-.832.599-.848 1.138h-.426c.014-.61.347-1.111.84-1.403v-.536c-2.865-.202-4.737-1.09-5.734-1.776-.87.639-2.62 1.495-5.74 1.776l.002.536c.492.292.826.793.84 1.403H4.69c-.017-.54-.368-.964-.85-1.138zm10.681.655v.483h-.464v-.379c0-.118-.143-.173-.207-.173h-.444v.552h-.464V2.74l1.115.232c.158.034.464.138.464.444v.33c0 .119-.014.223-.162.297.069.04.162.172.162.251zM12.547 3.08v1.244c.005.153-.084.453-.489.453h-.607c-.202 0-.464-.107-.464-.473V2.488c0-.217.222-.355.47-.267l.809.311c.197.08.286.252.28.548zM9.17 2.513v-.514l.843-.459.884.484v.513l-.612-.33v2.57h-.503v-2.6l-.612.336zm-.06-.025v1.816c0 .366-.261.473-.463.473H8.04c-.405 0-.494-.3-.49-.453V3.08c-.004-.296.085-.469.282-.548l.81-.31c.247-.09.469.049.469.266zm-2.66 2.29l-.38-.814v.813h-.464V3.065l.464-.083.365.78.405-.943.434-.114v2.072H6.81v-.843l-.36.843zm9.788 6.21c-1.165 1.184-4.685 3.652-6.225 3.652S4.965 12.172 3.8 10.987c.602-.266.7-.654.74-.96h.484c-.03.286-.09.743-.484 1.02.454.434 3.854 3.159 5.473 3.159 1.62 0 5.03-2.725 5.485-3.16-.395-.276-.455-.733-.484-1.02h.484c.04.307.138.695.74.961zm-10.21.275c.026.017 1.068.83 1.068.83v.495s-1.466-1.096-1.51-1.122a.482.482 0 01-.141-.247c-.018-.089 0-.795 0-.875 0-.079.088-.317.212-.317h1.139v.468h-.68c-.106-.01-.168.026-.168.123v.521c0 .036.044.106.08.124zm1.041-1.236h.477l.256.795.415-.795h.45l-.644 1.395v1.67c0 .079-.45-.169-.459-.23-.018-.062 0-1.458 0-1.458l-.495-1.377zm2.227 3.027c.026.053.609.327.609.327v.548s-.936-.398-1.024-.486a.346.346 0 01-.107-.247v-2.773c0-.168.336-.396.416-.396h.688v.502c0 .017-.397.017-.494 0-.053-.01-.124.062-.124.309v2.049c0 .044 0 .123.036.167zm1.986-.132v.477s-.777.344-.9.406c-.071.035-.15-.027-.15-.133v-3.645h.53v3.107l.52-.212zm1.14-1.677v.406h-.495v.98l.6-.282v.433l-.795.397c-.097.044-.22 0-.22-.088v-2.888c0-.115.097-.176.176-.176h.927v.503h-.688v.715h.494zm1.526.034s-.777.018-.918 0c-.133-.018-.186-.044-.186-.141 0-.088-.009-.671 0-.84.018-.167.283-.254.407-.271a45 45 0 011.165 0v.457h-1.121c-.044 0-.036.38 0 .38h1.006c.142 0 .124.035.124.097v.565c0 .062-.088.133-.124.168-.026.027-1.501.919-1.501.919v-.398s1.175-.742 1.183-.795c.018-.08-.035-.14-.035-.14zm5.627-1.693H.444V5.282h19.132v4.304zM8.124 2.927L8.5 2.78c.069-.03.148 0 .148.109V4.15c0 .084-.04.153-.144.153h-.34c-.109 0-.148-.054-.148-.143V3.154c0-.108.01-.177.108-.227zm3.959.227v1.007c0 .089-.04.143-.148.143h-.34c-.104 0-.144-.069-.144-.153V2.888c0-.109.079-.138.148-.109l.375.148c.1.05.109.119.109.227zm1.876.247c.098.02.098.114.098.198 0 .083-.015.162-.104.162h-.547v-.473l.553.113zM.889 5.677V9.14H19.14V5.676H.89zm1.702 3.06H2.19V7.578h-.317v1.159H1.47v-2.7h.402v1.08h.317v-1.08h.402v2.7zm.936 0l-.071-.702h-.294l-.083.702h-.363l.307-2.7h.602l.307 2.7h-.405zm1.682-1.854c0 .2-.036.358-.18.472.02.024.175.128.18.31v1.072h-.401v-.903c0-.163-.07-.215-.326-.215v1.118H4.08v-2.7h.664c.323 0 .465.114.465.463v.383zm1.043 1.854h-.81v-2.7h.402V8.31h.408v.427zm.972 0h-.838v-2.7h.831v.422h-.429v.66h.41v.426h-.41v.765h.436v.427zm.932 0h-.401V7.728l-.414-1.69h.414l.216.943.223-.943h.376l-.414 1.671v1.028zm1.025-1.19h-.736v-.34h.736v.34zm1.266.7c0 .258-.167.49-.478.49h-.572v-2.7h.485c.398 0 .565.137.565.611v1.6zm.918.49l-.07-.702H11l-.082.702h-.364l.307-2.7h.602l.308 2.7h-.406zm1.106 0h-.45l-.377-2.7h.41l.195 1.624.194-1.623h.405l-.377 2.699zm.893 0h-.402v-2.7h.402v2.7zm1.288-.49c0 .258-.166.49-.477.49h-.573v-2.7h.486c.398 0 .564.137.564.611v1.6zm1.308-1.293h-.402v-.377c0-.136-.08-.166-.16-.166-.084 0-.16.03-.16.166v.3c0 .193.717.535.717.808v.65c0 .353-.311.455-.561.455-.247 0-.553-.102-.553-.455v-.587h.402v.479c0 .136.071.167.154.167.08 0 .156-.03.156-.167v-.284c0-.38-.717-.485-.717-.924v-.58c0-.352.311-.454.558-.454.25 0 .566.102.566.455v.514zm1.305 1.38c0 .353-.324.456-.57.456-.247 0-.563-.103-.563-.455V6.44c0-.353.316-.455.563-.455.246 0 .57.102.57.455v1.895zm1.38.403h-.492l-.32-1.537v1.537h-.404v-2.7h.544l.263 1.373V6.038h.408v2.699zM3.21 7.579l.093-1.049h.027l.078 1.049H3.21zm1.272-1.17h.159c.091 0 .152.065.152.168v.405c0 .098-.03.218-.171.218h-.14v-.79zm5.317.055h.095c.102 0 .151.026.151.2V8.11c0 .174-.05.2-.151.2h-.095V6.465zm1.249 1.115l.093-1.049h.027l.078 1.049h-.198zm2.956-1.115h.095c.102 0 .152.026.152.2V8.11c0 .174-.05.2-.152.2h-.095V6.465zm2.53 1.708V6.587c0-.136.08-.167.164-.167s.165.03.165.167v1.585c0 .137-.081.167-.165.167-.083 0-.164-.03-.164-.167z" fill="currentColor"/></symbol><symbol xmlns="http://www.w3.org/2000/svg" viewBox="0 0 20 16" id="honda"><path fill-rule="evenodd" clip-rule="evenodd" d="M9.293 11.515l-5.034.542.993.97h7.128l-2.643-1.56-.444.048zm0-4.016l6.933-1.85s1.01-.073 2.012-2.344L9.293 6.238 2.335 8.51s-.598.194-.832.356c0 0-.162.097-.162.323 0 0 .016.17.138.29l.299.3 3.798-.986s-.235-.307.234-.372l3.483-.92zm0 3.62a.319.319 0 00.073.154l-.073.008-5.277.598-1.002-.937 6.279-1.124 5.365-.953c-.88 1.73-2.658 1.73-2.658 1.73l-2.214.282c-.372.008-.477.105-.493.202v.04zm0-2.99l7.313-1.85c-.865 1.955-2.602 2.02-2.602 2.02l-4.711.954-1.544.315c-.743.016-.42.396-.42.396l-4.5.768-.841-.744 7.305-1.859zm0-3.951L19.515 0s-.347 1.026-.566 1.552c0 0-.266.832-1.333 1.163L9.293 5.657 2.077 8.194s-.93.331-1.083.72c0 0-.218.444.372.945l3.482 3.168H3.483L.679 10.279S.049 9.762 0 9.026v-.153c.008-.049.008-.097.024-.154 0 0 .121-.808 1.334-1.3l7.935-3.241zm-7.434 9.366H.049v.444H.46v1.35H.049v.46h1.81v-.46h-.445v-.428h1.334v.428H2.31v.46h1.786v-.46H3.67v-1.35h.428v-.444H2.303v.444h.445v.445H1.414v-.445h.445v-.444zm15.895 1.042h.347l-.347-.525-.04-.048-.316.573h.356zm0-1.042h.719l1.083 1.794H20v.46h-1.948v-.46h.437l-.186-.267h-1.18l-.145.267h.428v.46h-1.503v-.46h.46l.744-1.35h-.5v-.444h1.147zm-3.467 1.77c.428-.049.679-.21.679-.63 0-.486-.283-.639-.68-.68-.072-.008-.145-.008-.225-.008h-.453v1.334h.364c.113 0 .218-.008.315-.016zm0-1.77h.29c.744 0 1.302.347 1.302 1.14 0 .912-.525 1.098-1.592 1.115h-2.028v-.461h.436v-1.35h-.436v-.444h2.028zm-8.291 1.875a.754.754 0 00.752-.744.745.745 0 00-.752-.751h-.008a.736.736 0 00-.744.743c0 .396.316.752.736.752h.016zm0-1.988h.024c1.059 0 1.754.396 1.754 1.212 0 .751-.639 1.252-1.778 1.252h-.032c-1.107 0-1.77-.428-1.77-1.236 0-.776.654-1.228 1.802-1.228zm3.71.113H7.918v.444h.429v1.35h-.429v.46H9.34v-.46h-.444v-1.156l1.253 1.616h1.381v-1.81h.453v-.444h-1.471v.444h.46v1.188l-1.268-1.632z" fill="currentColor"/></symbol><symbol xmlns="http://www.w3.org/2000/svg" viewBox="0 0 20 20" id="bmw"><path d="M10 0C4.479 0 0 4.479 0 9.99a9.98 9.98 0 002.922 7.078A9.945 9.945 0 0010 20a9.939 9.939 0 007.068-2.932A9.945 9.945 0 0020 9.989a9.939 9.939 0 00-2.932-7.067A9.928 9.928 0 0010 0zm0 .344a9.57 9.57 0 016.82 2.825 9.57 9.57 0 012.825 6.82c0 5.328-4.328 9.656-9.645 9.656a9.595 9.595 0 01-6.831-2.824A9.576 9.576 0 01.344 9.989a9.57 9.57 0 012.825-6.82A9.595 9.595 0 0110 .344zm0 .397C4.887.741.741 4.887.741 9.99A9.26 9.26 0 0010 19.25c5.113 0 9.248-4.147 9.248-9.26 0-5.102-4.135-9.248-9.248-9.248zm-1.364.494h.741l.666 1.74.666-1.74h.73v2.45h-.494v-1.71l-.633 1.708h-.538L9.13 1.976v1.708h-.494V1.235zm6.939 1.87l.376.461-.956 1.257 1.46-.623.409.494-.924 1.3 1.428-.677.376.472L15.5 6.874l-.44-.547.88-1.3-1.438.59-.452-.547 1.526-1.966zm-11.279.354c.108 0 .205.043.312.118.097.086.14.118.268.344a.609.609 0 01-.01.365c.279-.172.59-.13.784.064.3.29.258.645-.032.978L4.372 6.82l-1.87-1.569 1.182-1.417c.172-.204.387-.376.612-.376zM10 4.082a5.918 5.918 0 015.908 5.907c0 3.266-2.653 5.919-5.908 5.919a5.923 5.923 0 01-5.918-5.919c0-3.254 2.653-5.907 5.918-5.907zm-5.865.032c-.075 0-.15.021-.182.075l-.72.849.44.365.71-.838c.085-.107.085-.258-.044-.376a.398.398 0 00-.204-.075zM10 4.468A5.522 5.522 0 004.468 9.99H10V4.47zm0 5.521v5.532a5.53 5.53 0 005.532-5.532H10zM4.952 4.694a.275.275 0 00-.204.086l-.752.891.462.398.74-.892c.108-.118.087-.3-.053-.419a.322.322 0 00-.193-.064z" fill="currentColor"/></symbol><symbol xmlns="http://www.w3.org/2000/svg" viewBox="0 0 25 24" id="cross"><path d="M13.475 12l4.293-4.29a1.005 1.005 0 00-.709-1.714c-.265 0-.52.106-.709.294l-4.283 4.3-4.283-4.3A1.002 1.002 0 006.072 7c0 .266.106.522.294.71L10.659 12l-4.293 4.29a1 1 0 000 1.42 1 1 0 001.418 0l4.283-4.3 4.284 4.3a1 1 0 001.636-.325 1.001 1.001 0 00-.219-1.095L13.475 12z" fill="currentColor"/></symbol><symbol xmlns="http://www.w3.org/2000/svg" viewBox="0 0 20 20" id="download"><path d="M17.5 12.5v3.333a1.666 1.666 0 01-1.667 1.667H4.167A1.667 1.667 0 012.5 15.833V12.5m3.334-4.167l4.167 4.167 4.166-4.167M10 12.5v-10" stroke="currentColor" stroke-width="2" stroke-linecap="round" stroke-linejoin="round"/></symbol><symbol fill="none" xmlns="http://www.w3.org/2000/svg" viewBox="0 0 24 24" id="notice-bike"><g clip-path="url(#clip0)" fill="#B72032"><path d="M13.258 5.618l1.241-.886a.4.4 0 00-.004-.654l-.296-.205a.393.393 0 00-.399-.03l-.426.214a.4.4 0 00.038.733l.16.06-.722.36.408.408zM10.4 9.51c.232-.15.431-.346.584-.576l1.784-2.672.004-.004-.004-.004-.672-.672h-.004l-.06.032A9.228 9.228 0 008.98 8.05l-.164.2a1.72 1.72 0 00.048 2.229L10.4 9.51zm-4.64 3.945l2.348-1.18a.395.395 0 00.22-.404l-.016-.136-2.96 1.684a.404.404 0 00.408.036zm6.396.608a.389.389 0 000-.556.572.572 0 00-.116-.084c-.011 0-.02-.008-.032-.008a.348.348 0 00-.128-.024.407.407 0 00-.28.116.396.396 0 000 .556c.157.146.4.146.556 0zm3.209-2.016v.732a.79.79 0 01-.232.564l-1.168 1.168v.553l2.26-2.265-.168-1.172-.692.42z"/><path d="M22.838 4.746a3.93 3.93 0 00-2.804-1.165 3.93 3.93 0 00-2.809 1.165l-.036.036c.028-.04.056-.084.088-.124.176-.224.332-.424.472-.609l.004-.004a51.341 51.341 0 01.828-1.036.947.947 0 00.216-.604.957.957 0 00-.616-.888l-.744-.28-.416-.156a7.178 7.178 0 00-5.177.056l-1.232.492a.401.401 0 00.088.768l1.616.248c.096.012.196.032.296.052.076.016.156.032.236.052a9.3 9.3 0 011.116.32c.213.072.42.152.617.232-.008 0 .616.256.68.3.297.156.49.457.508.793a.828.828 0 01-.34.66l-1.873 1.332a.764.764 0 01-.12.316l-1.72 2.584v.048l-.24 2.653.272-.004c.217 0 .425.088.576.244.145.155.224.36.22.572.066.041.126.09.18.144a1.193 1.193 0 01-.656 2.02l-.06.252.228 2.08-.824-.167-.204-1.825a.832.832 0 01.024-.288l.048-.2a1.059 1.059 0 01-.244-.184 1.198 1.198 0 010-1.688 1.06 1.06 0 01.244-.184.792.792 0 01-.6-.844l.156-1.737c-.004.004-.004.008-.008.008L9.06 11.303l.06.472c.065.504-.2.993-.656 1.216l-2.345 1.176a1.197 1.197 0 01-1.38-.22l-.092-.096-.476.716a2.396 2.396 0 01-1.228.936l-1.04.356-.688-.232.8-.648.672-.232c.334-.112.622-.332.82-.624l.372-.564.456-.688-.288-.096a.817.817 0 00-.784.144L.146 15.463a.4.4 0 00.124.688l.216.073a.288.288 0 00.056.02l1.537.52a.436.436 0 00.248 0l3.78-1.193c.02-.008.036-.012.052-.02l2.377-1.132-.244 1.044a3.898 3.898 0 00-2.577 1.157 3.956 3.956 0 106.533 1.496l.572.116a1.24 1.24 0 001.129-.34l5.072-5.073a1.23 1.23 0 00.265-1.364 3.97 3.97 0 003.553-6.71zM12.28 1.829h-.008c.008-.004.016-.004.02-.008-.004.004-.008.008-.012.008zm-1.992 16.69c.075.152.128.312.16.477h-.352l.192-.476zm-3.256 2.19a1.944 1.944 0 01-.497-1.413l.88.176c.007.146.043.29.109.42l-.492.816zm-.297-2.185v-.004c.22-.447.602-.794 1.069-.968l-.268 1.128-.8-.156zm1.777 2.852a1.96 1.96 0 01-.832-.184l.428-.712a1.158 1.158 0 00.476.116l.648.648-.72.132zm1.4-.584l-.484-.484c.15-.127.265-.29.336-.472l.016-.04h.672a1.946 1.946 0 01-.54.996zM20.05 5.546c.056 0 .116.004.172.008v.388a1.586 1.586 0 00-.885.164l-.2-.336c.282-.147.595-.224.913-.224zm-1.537.744l.144.236h-.308c.048-.084.102-.163.164-.236zm-1.94-4.257l.144-.212c.008.004.016.004.024.008l.744.28-.248.368a.43.43 0 00.056.54l.14.14c-.14.18-.304.396-.496.636l-.212-.212a1.23 1.23 0 01-.152-1.548zm.22 11.334l-2.948 2.944a.398.398 0 01-.28.12.403.403 0 01-.4-.404v-1.516a.8.8 0 01.232-.564l1.172-1.172-.004-.728a.8.8 0 01.388-.684l.696-.42a.805.805 0 01.756-.037.79.79 0 01.444.609l.168 1.176a.802.802 0 01-.224.676zm1.86-4.445a2.116 2.116 0 01-.304-.4l.473-.004a1.5 1.5 0 00.108.128l-.277.276zm.348-1.204l-1.244.004-.888-.004a2.096 2.096 0 01.004-.388h.948l1.172-.004h.789a.2.2 0 01.196.188.204.204 0 01-.2.204H19zm1.057 1.784a1.96 1.96 0 01-.716-.132l.312-.312a1.497 1.497 0 00.732.02h.004l.176.356-.508.068zm.964-3.708c.162.086.31.197.44.328.205.207.362.457.46.732l-.368.124a1.646 1.646 0 00-.368-.58 1.327 1.327 0 00-.164-.14v-.464zm.436 3.132l-.172.152h-.004l-.18-.36h.004a1.588 1.588 0 00.52-.92l.408-.136a1.95 1.95 0 01-.576 1.264z"/></g><defs><clipPath id="clip0"><path fill="#fff" d="M0 0h24v24H0z"/></clipPath></defs></symbol><symbol fill="none" xmlns="http://www.w3.org/2000/svg" viewBox="0 0 24 24" id="document"><g clip-path="url(#clip0)"><path d="M23.853 14.422l-4.241 8.026c-.208.4-.796.822-1.25.822l-17.008.003A1.353 1.353 0 010 21.919L.003 8.712c0-.747.605-1.353 1.352-1.354H2.6V8.51h-.832a.614.614 0 00-.615.614l.002 12.38c0 .34.275.615.614.615h.852l4.02-8.131c.226-.454.656-.822 1.11-.822h9.843l.003-3.272a1.26 1.26 0 011.15 1.251v2.021h4.515c.533.006.982.533.592 1.255zm-20.47 3.605c-.037-4.048 0-16.19 0-16.19 0-.612.498-1.11 1.11-1.11h8.891c.143 0 .278.06.375.164l2.874 3.123a.51.51 0 01.134.345v8.09h-.932v-7.39a.232.232 0 00-.232-.232h-2.2a.467.467 0 01-.467-.466V1.89a.232.232 0 00-.232-.231h-8.21a.178.178 0 00-.178.177V17.01l-.714 1.443s-.215-.016-.22-.425zM13.87 3.894h1.385L13.87 2.388v1.506zm.505 1.882H5.782a.574.574 0 000 1.147h8.593a.575.575 0 000-1.147zm.574 3.915a.574.574 0 00-.574-.573H5.782a.574.574 0 000 1.146h8.593a.574.574 0 00.574-.573zm-9.741 3.364c0 .316.257.573.574.573h.206c.362-1.01 1.261-1.146 1.261-1.146H5.782a.574.574 0 00-.574.573z" fill="#B72032"/></g><defs><clipPath id="clip0"><path fill="#fff" d="M0 0h24v24H0z"/></clipPath></defs></symbol><symbol xmlns="http://www.w3.org/2000/svg" viewBox="0 0 20 21" id="mozy"><g clip-path="url(#clip0)"><path d="M17.07.177h-3.554a2.933 2.933 0 00-2.93 2.93V6.66a4.106 4.106 0 01-4.102 4.102H2.93A2.933 2.933 0 000 13.693v3.554a2.933 2.933 0 002.93 2.93h3.554a2.933 2.933 0 002.93-2.93v-3.555a4.106 4.106 0 014.102-4.101h3.554A2.933 2.933 0 0020 6.66V3.106a2.933 2.933 0 00-2.93-2.93zM8.242 13.692v3.555a1.76 1.76 0 01-1.758 1.758H2.93a1.76 1.76 0 01-1.758-1.758v-3.555c0-.969.788-1.757 1.758-1.757h3.554a5.25 5.25 0 002.274-.516 5.242 5.242 0 00-.516 2.273zm10.586-7.03a1.76 1.76 0 01-1.758 1.757h-3.554c-.814 0-1.585.185-2.274.516.33-.69.516-1.46.516-2.274V3.106c0-.969.788-1.757 1.758-1.757h3.554c.97 0 1.758.788 1.758 1.757v3.555z" fill="currentColor"/></g><defs><clipPath id="clip0"><path fill="#fff" transform="translate(0 .177)" d="M0 0h20v20H0z"/></clipPath></defs></symbol><symbol fill="none" xmlns="http://www.w3.org/2000/svg" viewBox="0 0 20 20" id="bike_3"><g clip-path="url(#clip0)"><path d="M3.29 9.013a3.29 3.29 0 000 6.58 3.288 3.288 0 002.988-1.918l.781.603s5.744.04 6.06-.138c0 0-.713-1.946.192-2.769.095-.087.215-.185.346-.29a3.29 3.29 0 103.053-2.067c-.03 0-.058.003-.088.004l.39-.251-.247-.22s.713-.164.549-.52c-.165-.357-1.892-2.496-1.892-2.496s.306-.658-.327-1.124l-.304.658s-.775-.535-1.083-.432c-.308.103-.77.155-.915.38l-.144.135s-.04.236.195.586c0 0 2.376.73 2.489 1.264 0 0 .164.34-.545.422l-.144.185-.38.02-.69-1.573s-.658.175-.997.442l.052.267s-2.766-1.88-5.367.905c0 0-1.923.555-3.27-1.151 0 0-.02-.555-3.27-.453L.95 6.3s-.226.02-.319.164c-.092.144.052.298.792.298 0 0 1.676 1.913 2.961 1.8l1.83.884.813 1.388s.001.12.01.302l-.625.132A3.29 3.29 0 003.29 9.013zm13.42 1.009a2.284 2.284 0 012.282 2.281 2.284 2.284 0 01-2.282 2.282 2.284 2.284 0 01-2.281-2.282 2.284 2.284 0 012.281-2.281zM3.29 14.585a2.284 2.284 0 01-2.282-2.281 2.284 2.284 0 012.282-2.282c.967 0 1.794.606 2.125 1.457l-2.41.514.154.853 2.37-.105a2.284 2.284 0 01-2.239 1.844zm3.952-1.92c.067.229.155.41.27.488l-1.057.042a3.43 3.43 0 00.1-.5l.687-.03z" fill="#fff"/></g><defs><clipPath id="clip0"><path fill="#fff" d="M0 0h20v20H0z"/></clipPath></defs></symbol><symbol fill="none" xmlns="http://www.w3.org/2000/svg" viewBox="0 0 63 63" id="logo_mobile"><ellipse cx="31.551" cy="31.493" rx="31.449" ry="31.452" fill="#fff"/><path d="M2.09 28.59c1.745.297 2.831-4.213 3.127-5.432-5.926.199-4.97 5.136-3.127 5.432z" fill="#B72032"/><path d="M15.828 51.787c.383-1.47 1.059-5.527 1.294-7.203-.353 2.293-2.322 6.145-4.762 5.938-6.057-.558-2.999-12.143-2.852-13.377-3.616-2.588-3.321-6.262-1.734-7.733 1.969-1.794 6.233-1.588 6.35.293.108 1.578-.537 3.986-.937 6.27 2.293-.53 2.638-2.45 2.823-3.484.226-1.269.226-3.774-2.313-6.315-1.282-1.282-3.06-1.967-4.463-2.328-.395 1.679-.856 3.292-1.415 4.313-2.492 4.78-6.605 2.454-7.568-.661A31.82 31.82 0 000 31.497c0 9.758 4.438 18.48 11.404 24.257-.116-1.433 1.025-3.124 4.424-3.967zM7.183 11.471A31.405 31.405 0 00.965 23.727c.838-.946 2.297-1.675 4.582-1.919.722-3.373 1.233-6.887 1.636-10.337z" fill="#B72032"/><path d="M8.272 30.06c-1.087 1.206-.97 3.911 1.558 5.262-.029.088.646-3.557.676-3.645.736-2.97-1-2.97-2.234-1.617zm19.595 8.26c-2.675 1.06-3.616 8.528-1.999 9.322 3.322 1.618 4.762-10.438 1.999-9.321z" fill="#B72032"/><path d="M54.628 46.878c-1.117 2.44-2.94 4.234-5.38 3.968a2.26 2.26 0 01-1.307-.595c-6.544 2.554-9.295-2.965-7.755-10.93-.53.236-1.06.294-1.588.177-.206 2.823-.999 7.85-2.94 9.82-2.323 2.352-4.998.177-5.91-2.38-1.117 2.41-2.939 4.175-5.35 3.91-4.144-.411-3.909-11.82 1.207-14.437 1.557-.793 3.233-.764 4.263.588.029.059.059.089.087.147.117-.412.237-.794.353-1.206 2.646.823 3.293 1.324 3.205 1.706-3.558 14.995 3.646 13.524 4.469 1.646-1.617-.765-2.558-3.234-1.088-6.322l2.557 1.47c-1.999 5.558 1.088 4.97 1.47 1.941.44.117 3.38.97 3.233 1.676-1.92 8.057-1.3 12.707 3.216 11.51-2.004-3.13-1.064-11.035 3.084-13.156 1.558-.793 3.233-.764 4.263.588.028.03.058.089.088.118.676-3.145 1.676-6.526 2.44-8.497 2.647.853 3.058 1.883 2.97 2.264-.765 2.91-1.852 6.38-2.44 9.702-.62 3.608-.54 6.259.417 7.635a31.35 31.35 0 004.803-16.722C62.995 14.103 48.892 0 31.498 0a31.362 31.362 0 00-19.349 6.643c.363 2.964 1.893 10.525 2.716 12.599.33.79 6.946-8.296 8.198-12.05.362-1.153 4.28 1.548 4.148 2.238 0 0-2.304 10.667-2.106 15.869.208 5.06 2.192 4.362 4.735 3.207-1.525-3.521-.554-10.014 3.5-12.082 1.694-.877 3.564-.936 4.791.35.35.41.672.876.906 1.461-7.129-2.834-8.268 10.93-4.5 10.461 2.688-.35 4.12-4.762 3.653-6.749-3.8-.117-2.017-3.857-.03-3.04 2.221.936 1.403 4.558.847 6.371-.964 3.07-3.126 5.699-6.341 5.552-.97-.042-1.75-.572-2.326-1.407-5.84 3.088-9.515.906-9.352-6.263.066-2.437.33-4.51.823-7.802-1.218 1.283-6.75 9.91-8 6.518-1.35-3.687-2.172-7.11-2.665-9.218-.495 3.16-.955 6.387-1.581 9.581l-.005.012c1.624.41 3.727 1.213 5.29 2.776 3.063 3.064 3.047 6.174 2.765 7.754-.121.677-.372 2.085-1.372 3.231-.816.937-1.938 1.497-3.348 1.675l-.07.384c-.823 3.087-1.465 9.779.123 10.307 4.057 1.294 5.762-15.935 5.762-18.67 1.883.383 3.5.795 3.5 1.176-.383 6.763-1.53 14.907-3.117 21.522-1.063 3.865-2.823 5.454-4.392 5.743A31.341 31.341 0 0031.498 63c10.52 0 19.836-5.16 25.556-13.087-1.111-.58-1.922-1.628-2.426-3.035zM41.431 15.984a78.195 78.195 0 011.52-4.85c2.658.846 3.067 1.87 2.95 2.25a387.13 387.13 0 01-.789 2.922c1.081.03 2.22-.029 3.214-.234l.059 1.286c-1.14.234-2.397.234-3.595.117a38.06 38.06 0 00-.935 4.267c-.933 6.233.394 9.31 5.042 7.412-1.97-3.304-1.148-10.527 3.17-12.731 1.695-.878 3.565-.936 4.792.35.35.409.673.876.906 1.461-7.129-2.834-8.268 10.93-4.5 10.461 2.689-.35 4.12-4.763 3.653-6.75-3.8-.116-2.017-3.856-.029-3.039 2.22.936 1.403 4.558.848 6.37-.964 3.07-3.126 5.7-6.342 5.552-.823-.036-1.507-.422-2.049-1.047-6.701 3.242-9.82-1.383-8.939-8.713.147-1.314.439-2.775.819-4.178-.877-.234-1.431-.409-1.431-.409l-.03-.79c.001 0 .673.148 1.666.293z" fill="#B72032"/><path d="M12.594 56.14c.47.587 1.911.086 2.97-3.384-2.97.943-3.47 2.737-2.97 3.383zm40.123-17.82c-2.676 1.06-3.617 8.528-2 9.322 3.323 1.618 4.852-10.468 2-9.321z" fill="#B72032"/></symbol><symbol xmlns="http://www.w3.org/2000/svg" viewBox="0 0 111.577 111.577" id="info"><path d="M78.962 99.536l-1.559 6.373c-4.677 1.846-8.413 3.251-11.195 4.217-2.785.969-6.021 1.451-9.708 1.451-5.662 0-10.066-1.387-13.207-4.142-3.141-2.766-4.712-6.271-4.712-10.523 0-1.646.114-3.339.351-5.064.239-1.727.619-3.672 1.139-5.846l5.845-20.688c.52-1.981.962-3.858 1.316-5.633.359-1.764.532-3.387.532-4.848 0-2.642-.547-4.49-1.636-5.529-1.089-1.036-3.167-1.562-6.252-1.562-1.511 0-3.064.242-4.647.71-1.59.47-2.949.924-4.09 1.346l1.563-6.378c3.829-1.559 7.489-2.894 10.99-4.002 3.501-1.111 6.809-1.667 9.938-1.667 5.623 0 9.962 1.359 13.009 4.077 3.047 2.72 4.57 6.246 4.57 10.591 0 .899-.1 2.483-.315 4.747-.21 2.269-.601 4.348-1.171 6.239l-5.82 20.605c-.477 1.655-.906 3.547-1.279 5.676-.385 2.115-.569 3.731-.569 4.815 0 2.736.61 4.604 1.833 5.597 1.232.993 3.354 1.487 6.368 1.487 1.415 0 3.025-.251 4.814-.744 1.784-.493 3.085-.926 3.892-1.305zm1.476-86.506c0 3.59-1.353 6.656-4.072 9.177-2.712 2.53-5.98 3.796-9.803 3.796-3.835 0-7.111-1.266-9.854-3.796-2.738-2.522-4.11-5.587-4.11-9.177 0-3.583 1.372-6.654 4.11-9.207C59.447 1.274 62.729 0 66.563 0c3.822 0 7.091 1.277 9.803 3.823 2.721 2.553 4.072 5.625 4.072 9.207z" fill="currentColor"/></symbol></svg>