<svg width="16" height="15" fill="none" xmlns="http://www.w3.org/2000/svg"><path d="M6.205 15c-.472 0-.925-.197-1.259-.55a1.926 1.926 0 01-.521-1.325c0-.497.187-.974.521-1.326a1.74 1.74 0 011.26-.549c.472 0 .925.197 1.259.55.334.35.521.828.521 1.325s-.187.974-.521 1.326a1.74 1.74 0 01-1.26.549zm6.234 0c-.473 0-.926-.197-1.26-.55a1.926 1.926 0 01-.521-1.325c0-.497.187-.974.521-1.326a1.74 1.74 0 011.26-.549c.472 0 .925.197 1.259.55.334.35.521.828.521 1.325s-.187.974-.521 1.326a1.74 1.74 0 01-1.26.549zM.829 1.803a.837.837 0 01-.588-.274A.927.927 0 010 .9C0 .667.087.442.241.274A.838.838 0 01.83 0h1.025c.803 0 1.498.587 1.672 1.412l1.116 5.29c.174.824.869 1.411 1.672 1.411h6.69l1.283-5.41H5.966a.838.838 0 01-.58-.277.928.928 0 01-.238-.623c0-.232.085-.455.238-.623a.838.838 0 01.58-.278h8.321c.26 0 .517.062.751.182.234.12.44.295.6.511a1.894 1.894 0 01.311 1.547L14.665 8.55c-.093.39-.307.737-.608.984a1.658 1.658 0 01-1.054.382H6.314a3.32 3.32 0 01-2.143-.793 3.637 3.637 0 01-1.2-2.03l-1.117-5.29H.829z" fill="#fff"/></svg>