<svg width="30" height="30" fill="none" xmlns="http://www.w3.org/2000/svg"><g clip-path="url(#clip0)" fill="#2C2C2C"><path d="M25.605 14.56c-.44 0-.865.066-1.267.188l-1.047-1.945h.557a.879.879 0 00.879-.88V8.409a.88.88 0 00-1.233-.804l-2.427 1.068-.84-1.56a.879.879 0 00-.774-.462h-3.515a.879.879 0 00-.622.258l-1.758 1.758a.879.879 0 001.243 1.243l1.5-1.5h2.627l.525.974v1.686c-2.227.119-3.925.676-5.273 1.244v5.763h2.636c.58 0 1.132-.113 1.639-.318-.72 1.228-1.84 2.076-3.396 2.076H9.785a.879.879 0 000 1.758h5.274c4.014 0 6.152-3.853 6.152-7.91v-.88h.084l1.496 2.78a4.387 4.387 0 00-1.58 3.373 4.4 4.4 0 004.395 4.395A4.4 4.4 0 0030 18.955a4.4 4.4 0 00-4.395-4.394zm0 7.032a2.64 2.64 0 01-2.636-2.637c0-.681.26-1.302.685-1.77l1.178 2.187a.879.879 0 101.547-.834l-1.178-2.189a2.64 2.64 0 013.041 2.606 2.64 2.64 0 01-2.637 2.637z"/><path d="M12.422 18.076v-4.972c-1.572.712-2.5.97-3.951-.101-.364-.334-2.317-1.958-5.834-1.958a.879.879 0 000 1.758c2.383 0 3.835.87 4.394 1.288v1.35a4.371 4.371 0 00-2.636-.88A4.4 4.4 0 000 18.954a4.4 4.4 0 004.395 4.395A4.4 4.4 0 008.7 18.076h3.72zm-8.027 3.516a2.64 2.64 0 01-2.637-2.637 2.64 2.64 0 012.637-2.637 2.64 2.64 0 012.636 2.637 2.64 2.64 0 01-2.636 2.637z"/><path d="M4.395 19.834a.879.879 0 100-1.758.879.879 0 000 1.758z"/></g><defs><clipPath id="clip0"><path fill="#fff" d="M0 0h30v30H0z"/></clipPath></defs></svg>