<svg width="30" height="30" fill="none" xmlns="http://www.w3.org/2000/svg"><path d="M23.752 13.865a4.92 4.92 0 00-1.402.742l-2.438-2.772-1.089-1.238-.64-.73a2.16 2.16 0 00-.213.12c-.519-.67-1.087-1.27-1.872-1.664-1.062-.533-2.332-.197-3.427-.629-.699-.275-.998.842-.31 1.114.688.27 1.382.302 2.114.337 1.34.064 2.08.844 2.817 1.86a.608.608 0 00.16.153c-.064.175-.375.25-.375.25-1.186-2.903-3.7-.093-6.036 2.378-.692.08-1.341.275-1.804.752-.566.584-1.44 1.5-1.998.4-.23-.456-.712-.545-1.165-.606-.417-.055-.597.286-.544.612-2.004-1.248-4.54.678-4.54.678l.503.251A3.563 3.563 0 000 18.77c0 1.977 1.616 3.58 3.61 3.58a3.61 3.61 0 002.864-1.41c1.696.312 5.646.168 7.382.168 2.095 0 2.309-1.27 2.309-1.27s2.095-6.621 2.193-7.218c.097-.596.504.135.504.135l.64-.347s1.096 1.25 2.338 2.643c-.37.372-.684.801-.922 1.284a4.81 4.81 0 00-.242 3.709.484.484 0 10.916-.314 3.848 3.848 0 01.193-2.967c.183-.37.421-.702.7-.99l.225.25a3.666 3.666 0 00-1.054 2.573c0 2.04 1.668 3.695 3.726 3.695 2.057 0 3.725-1.655 3.725-3.695s-1.668-3.695-3.726-3.695c-.808 0-1.555.258-2.165.692l-.227-.258a3.947 3.947 0 011.07-.552c2.06-.69 4.302.406 4.999 2.446a.484.484 0 10.916-.313c-.869-2.543-3.66-3.912-6.222-3.051zM3.14 16.695a2.18 2.18 0 01.468-.054 2.16 2.16 0 011.579.689c.355.38.578.883.578 1.44 0 1.172-.968 2.126-2.157 2.126-1.19 0-2.158-.954-2.158-2.127 0-1.015.725-1.862 1.69-2.074zm4.018 2.704a3.534 3.534 0 00-.427-2.418l.137-.03c1.304 1.896.642 2.343.29 2.448zm18.222-3.046c1.254 0 2.274 1.006 2.274 2.242 0 1.237-1.02 2.243-2.274 2.243-1.253 0-2.273-1.006-2.273-2.242 0-.573.226-1.091.586-1.488.872.954 1.559 1.677 1.65 1.69.271.038.368-.366.368-.366l-1.526-1.735a2.268 2.268 0 011.195-.344z" fill="#2C2C2C"/></svg>