<svg width="30" height="30" fill="none" xmlns="http://www.w3.org/2000/svg"><g clip-path="url(#clip0)" fill="#2C2C2C"><path d="M4.828 25.63a4.828 4.828 0 004.803-5.325l1.946-.341s.066-.088.545.393c.205.205.484.23.739.197a8.63 8.63 0 002.658.448c.917 0 1.928-.179 2.83-.741 1.378-.86 2.192-2.422 2.439-4.633a9.665 9.665 0 011.857-1.597l.531 1.583a4.826 4.826 0 001.996 9.222 4.829 4.829 0 000-9.656c-.364 0-.718.043-1.059.12l-.596-1.777c1.86-.948 3.4-.934 3.4-.934l.578.316 1.92.153c-1.156-1.342-5.717-1.102-5.717-1.102l.972-.164s-.033-1.047-.633-2.335c-.6-1.287-1.255-2.04-1.255-2.04a.718.718 0 00-.13.23c.01-.887.022-1.773.09-2.658.002-.012-.003-.02-.003-.032a.205.205 0 00-.119-.243c-.358-.175-.71-.322-1.113-.342-.11-.006-.21.08-.237.181a3.71 3.71 0 00-.107 1.415c-.04-.08-.078-.16-.121-.239-.067-.12-.184-.139-.284-.101-.113-.02-.241.024-.291.16-.081.222-.258.37-.267.627-.014.403.454.665.75.826.056.03.112.032.165.022.146.59.194 1.199.158 1.824-.9.585-.553 1.118-.553 1.118l-.164.278s-.852-1.211-3.633.59c-2.782 1.8-4.975.654-6.808 0-1.833-.655-8.576-.819-8.576-.819 3.317.502 4.78 3.23 4.78 3.23l-2.62-1.615c-1.156.11-.85 1.331-.85 1.331l4.822 2.946c.938-.35 2.007.698 2.007.698l1.004 1.768-1.375.391a4.827 4.827 0 10-4.479 6.626zm20.343-8.97a3.35 3.35 0 013.346 3.347 3.35 3.35 0 01-3.346 3.346 3.35 3.35 0 01-3.346-3.346c0-1.297.743-2.422 1.826-2.977l1.052 3.134a.495.495 0 00.937-.315l-1.052-3.134c.19-.033.384-.054.583-.054zm-3.427-9.829c.15-.117.296-.232.434-.353-.019.73-.023 1.462-.038 2.193-.131.048-.25.097-.36.146a6.293 6.293 0 00-.252-1.926c.07.01.147-.006.216-.06zm-5.258 7.721c2.302-.69 3.082.349 3.327.904-.203 1.927-.865 3.265-1.982 3.964-1.466.916-3.386.558-4.308.302.101-1.354.592-4.458 2.963-5.17zM4.829 17.455c1.35 0 2.511.804 3.04 1.957l-3.623 1.032.13.785 3.787-.665c.006.079.012.157.012.237a3.35 3.35 0 01-3.346 3.346 3.35 3.35 0 01-3.346-3.346 3.35 3.35 0 013.346-3.346z"/><path d="M19.214 16.31h-4.353l-.72 3.076c4.386.818 5.073-3.077 5.073-3.077z"/></g><defs><clipPath id="clip0"><path fill="#fff" d="M0 0h30v30H0z"/></clipPath></defs></svg>