<svg width="30" height="30" fill="none" xmlns="http://www.w3.org/2000/svg"><g clip-path="url(#clip0)" fill="#2C2C2C"><path d="M25.002 13.754a5.006 5.006 0 00-4.998 4.998 5.003 5.003 0 004.998 4.998A5.003 5.003 0 0030 18.752a5.002 5.002 0 00-4.998-4.998zm0 8.748a3.753 3.753 0 01-3.75-3.75 3.753 3.753 0 013.75-3.75 3.754 3.754 0 013.75 3.75 3.753 3.753 0 01-3.75 3.75zM9.844 17.563a.626.626 0 00-.756-.457.626.626 0 00-.457.755c.082.334.117.616.117.891a3.753 3.753 0 01-3.75 3.75 3.753 3.753 0 01-3.75-3.75c0-1.47.873-2.812 2.22-3.416a.625.625 0 10-.509-1.143A5.007 5.007 0 000 18.752a5.003 5.003 0 004.998 4.998 5.004 5.004 0 005.004-4.998c0-.37-.053-.762-.158-1.19zM23.56 6.43a.632.632 0 00-.456-.176c-.446.012-4.354.205-4.354 2.502 0 2.297 3.908 2.485 4.354 2.502h.017a.62.62 0 00.621-.627v-3.75a.592.592 0 00-.181-.451z"/><path d="M19.576 7.532l-3.75-1.248a.625.625 0 00-.398 1.183l3.75 1.248c.07.024.134.035.199.035a.626.626 0 00.2-1.218zm5.971 10.916L20.549 9.7a.628.628 0 00-.856-.235.619.619 0 00-.234.85l4.998 8.748a.624.624 0 00.855.234.619.619 0 00.235-.85zm-16.172-.323l-.68-.176-1.945-1.3.059-.118a.624.624 0 10-1.12-.557l-1.248 2.502a.643.643 0 00.024.61.64.64 0 00.533.299h4.377a.628.628 0 00.627-.628.633.633 0 00-.627-.632z"/><path d="M20.18 9.447c-.182-.644-.662-.697-.803-.697-3.375 0-6.592 1.735-8.414 3.223a.61.61 0 00-.34-.1c-1.26 0-4.857-.61-4.893-.615a.601.601 0 00-.51.14.621.621 0 00-.222.475v.633c-2.039.059-3.387.416-4.008 1.06-.357.37-.369.727-.369.833a.626.626 0 00.627.597c2.531 0 8.273 3.533 10.272 4.893.105.07.222.111.351.111h5.004c2.121 0 3.387-8.261 3.387-9.732 0-.346-.03-.615-.082-.82z"/></g><defs><clipPath id="clip0"><path fill="#fff" d="M0 0h30v30H0z"/></clipPath></defs></svg>