<svg width="20" height="20" fill="none" xmlns="http://www.w3.org/2000/svg"><g clip-path="url(#clip0)"><path d="M10 0a10 10 0 100 20 10 10 0 000-20zm0 .475A9.522 9.522 0 0119.525 10c0 5.258-4.262 9.525-9.525 9.525C4.742 19.525.475 15.262.475 10 .475 4.742 4.742.475 10 .475zm0 .195a.194.194 0 00-.182.122l-.41 1.293A7.936 7.936 0 002.063 10c0 1.233.28 2.404.783 3.447l-.917 1.005a.2.2 0 00-.012.218.205.205 0 00.198.096l1.327-.294A7.933 7.933 0 0010 17.938a7.94 7.94 0 006.562-3.466l1.326.294a.196.196 0 00.192-.103.194.194 0 00-.013-.218l-.917-.998a7.936 7.936 0 00-6.557-11.362L10.181.789A.197.197 0 0010 .67zm-.002.208c.02 0 .04.017.046.036l.85 2.795a1 1 0 00-.4.798c0 .324.159.611.4.793h-.003c.363.272.598.705.598 1.19v.934l3.605-2.08.397.687-4.002 2.308v.804l.695.4 4.002-2.311.396.687-3.605 2.083.81.467c.424.245.682.665.736 1.115v-.003a.993.993 0 001.379.794l1.994 2.133c.017.017.017.04.006.059-.013.02-.033.027-.056.024l-2.844-.662a.995.995 0 00-1.375-.797l.002-.004c-.416.18-.909.166-1.333-.079l-.807-.466v4.161h-.793v-4.62l-.695-.4-.694.4v4.62h-.795v-4.16l-.81.462a1.487 1.487 0 01-1.333.08l.003.003a.993.993 0 00-1.375.798l-2.845.66a.045.045 0 01-.052-.023c-.013-.017-.01-.039.007-.056l1.997-2.133c.278.12.609.113.89-.053a.988.988 0 00.49-.741v.003c.052-.45.31-.87.733-1.114l.808-.467-3.606-2.08.398-.688 4.001 2.312.694-.404V8.34L4.511 6.032l.396-.689 3.605 2.08v-.931c0-.486.236-.92.6-1.191h-.004a.98.98 0 00.397-.793.997.997 0 00-.4-.798l.85-2.794c.007-.024.026-.037.043-.037zM10 5.797a.694.694 0 00-.694.694v1.392l.693.4.694-.4V6.491A.694.694 0 0010 5.797zM10 9.2l-.694.4v.803L10 10.8l.694-.4v-.8L10 9.2zm-2.183 1.263l-1.204.695a.694.694 0 000 1.203c.106.06.226.091.348.09a.691.691 0 00.346-.093l1.204-.695v-.8l-.695-.4zm4.369 0l-.694.4v.804l1.204.695a.695.695 0 00.694-1.204l-1.204-.695z" fill="#2C2C2C"/></g><defs><clipPath id="clip0"><path fill="#fff" d="M0 0h20v20H0z"/></clipPath></defs></svg>