<svg width="69" height="50" fill="none" xmlns="http://www.w3.org/2000/svg"><path d="M69 19.139c0-1.511-.252-3.274-.252-5.289a348.8 348.8 0 00-.755-5.792c-.504-2.014-1.26-3.525-2.77-4.784-1.26-1.26-3.022-2.015-4.785-2.267C54.646.252 46.084 0 34.5 0S14.102.252 8.562 1.007c-1.763.252-3.525 1.008-4.785 2.267-1.259 1.259-2.266 2.77-2.77 4.784C.504 9.821.252 11.584.252 13.85 0 15.865 0 17.628 0 19.14v11.584c0 1.51.252 3.273.252 5.288.252 2.015.503 4.03.755 5.792.504 2.015 1.26 3.526 2.77 4.785 1.26 1.259 3.022 2.014 4.785 2.266 5.792.755 14.354 1.007 25.938 1.007s20.398-.252 25.938-1.007c1.763-.252 3.526-1.007 4.785-2.266 1.259-1.26 2.266-2.77 2.77-4.785.503-1.763.755-3.526.755-5.792.252-2.015.252-3.777.252-5.288V19.138zm-21.153 7.806l-19.894 12.34c-.252.252-.756.503-1.26.503-.503 0-.755 0-1.259-.252-.755-.503-1.259-1.259-1.259-2.266V12.34c0-1.008.504-1.763 1.26-2.267a2.287 2.287 0 012.518 0l19.894 12.34c.755.503 1.259 1.259 1.259 2.014 0 .756-.504 2.015-1.26 2.518z" fill="#B72032"/></svg>